<mxfile host="app.diagrams.net" agent="Mozilla/5.0 (Windows NT 10.0; Win64; x64) AppleWebKit/537.36 (KHTML, like Gecko) Chrome/133.0.0.0 Safari/537.36" version="26.1.0">
  <diagram name="Page-1" id="rdWiAV3xpOoovO5mrEq9">
    <mxGraphModel dx="3976" dy="2216" grid="0" gridSize="10" guides="1" tooltips="1" connect="1" arrows="1" fold="1" page="0" pageScale="1" pageWidth="850" pageHeight="1100" math="0" shadow="0">
      <root>
        <mxCell id="0" />
        <mxCell id="1" parent="0" />
        <mxCell id="nevUS6qvJ938rSR4ISRd-1" value="&lt;span style=&quot;font-size: 35px;&quot;&gt;&lt;b style=&quot;&quot;&gt;&lt;font data-font-src=&quot;https://fonts.googleapis.com/css?family=Nunito&quot; face=&quot;Nunito&quot;&gt;SQL Query&lt;/font&gt;&lt;/b&gt;&lt;/span&gt;" style="text;html=1;align=center;verticalAlign=middle;whiteSpace=wrap;rounded=0;" vertex="1" parent="1">
          <mxGeometry x="-380" y="217" width="239" height="92" as="geometry" />
        </mxCell>
        <mxCell id="nevUS6qvJ938rSR4ISRd-6" value="" style="shape=image;verticalLabelPosition=bottom;labelBackgroundColor=default;verticalAlign=top;aspect=fixed;imageAspect=0;image=data:image/png,iVBORw0KGgoAAAANSUhEUgAAAgAAAAIACAYAAAD0eNT6AAAACXBIWXMAAAsTAAALEwEAmpwYAAAKT2lDQ1BQaG90b3Nob3AgSUNDIHByb2ZpbGUAAHjanVNnVFPpFj333vRCS4iAlEtvUhUIIFJCi4AUkSYqIQkQSoghodkVUcERRUUEG8igiAOOjoCMFVEsDIoK2AfkIaKOg6OIisr74Xuja9a89+bN/rXXPues852zzwfACAyWSDNRNYAMqUIeEeCDx8TG4eQuQIEKJHAAEAizZCFz/SMBAPh+PDwrIsAHvgABeNMLCADATZvAMByH/w/qQplcAYCEAcB0kThLCIAUAEB6jkKmAEBGAYCdmCZTAKAEAGDLY2LjAFAtAGAnf+bTAICd+Jl7AQBblCEVAaCRACATZYhEAGg7AKzPVopFAFgwABRmS8Q5ANgtADBJV2ZIALC3AMDOEAuyAAgMADBRiIUpAAR7AGDIIyN4AISZABRG8lc88SuuEOcqAAB4mbI8uSQ5RYFbCC1xB1dXLh4ozkkXKxQ2YQJhmkAuwnmZGTKBNA/g88wAAKCRFRHgg/P9eM4Ors7ONo62Dl8t6r8G/yJiYuP+5c+rcEAAAOF0ftH+LC+zGoA7BoBt/qIl7gRoXgugdfeLZrIPQLUAoOnaV/Nw+H48PEWhkLnZ2eXk5NhKxEJbYcpXff5nwl/AV/1s+X48/Pf14L7iJIEyXYFHBPjgwsz0TKUcz5IJhGLc5o9H/LcL//wd0yLESWK5WCoU41EScY5EmozzMqUiiUKSKcUl0v9k4t8s+wM+3zUAsGo+AXuRLahdYwP2SycQWHTA4vcAAPK7b8HUKAgDgGiD4c93/+8//UegJQCAZkmScQAAXkQkLlTKsz/HCAAARKCBKrBBG/TBGCzABhzBBdzBC/xgNoRCJMTCQhBCCmSAHHJgKayCQiiGzbAdKmAv1EAdNMBRaIaTcA4uwlW4Dj1wD/phCJ7BKLyBCQRByAgTYSHaiAFiilgjjggXmYX4IcFIBBKLJCDJiBRRIkuRNUgxUopUIFVIHfI9cgI5h1xGupE7yAAygvyGvEcxlIGyUT3UDLVDuag3GoRGogvQZHQxmo8WoJvQcrQaPYw2oefQq2gP2o8+Q8cwwOgYBzPEbDAuxsNCsTgsCZNjy7EirAyrxhqwVqwDu4n1Y8+xdwQSgUXACTYEd0IgYR5BSFhMWE7YSKggHCQ0EdoJNwkDhFHCJyKTqEu0JroR+cQYYjIxh1hILCPWEo8TLxB7iEPENyQSiUMyJ7mQAkmxpFTSEtJG0m5SI+ksqZs0SBojk8naZGuyBzmULCAryIXkneTD5DPkG+Qh8lsKnWJAcaT4U+IoUspqShnlEOU05QZlmDJBVaOaUt2ooVQRNY9aQq2htlKvUYeoEzR1mjnNgxZJS6WtopXTGmgXaPdpr+h0uhHdlR5Ol9BX0svpR+iX6AP0dwwNhhWDx4hnKBmbGAcYZxl3GK+YTKYZ04sZx1QwNzHrmOeZD5lvVVgqtip8FZHKCpVKlSaVGyovVKmqpqreqgtV81XLVI+pXlN9rkZVM1PjqQnUlqtVqp1Q61MbU2epO6iHqmeob1Q/pH5Z/YkGWcNMw09DpFGgsV/jvMYgC2MZs3gsIWsNq4Z1gTXEJrHN2Xx2KruY/R27iz2qqaE5QzNKM1ezUvOUZj8H45hx+Jx0TgnnKKeX836K3hTvKeIpG6Y0TLkxZVxrqpaXllirSKtRq0frvTau7aedpr1Fu1n7gQ5Bx0onXCdHZ4/OBZ3nU9lT3acKpxZNPTr1ri6qa6UbobtEd79up+6Ynr5egJ5Mb6feeb3n+hx9L/1U/W36p/VHDFgGswwkBtsMzhg8xTVxbzwdL8fb8VFDXcNAQ6VhlWGX4YSRudE8o9VGjUYPjGnGXOMk423GbcajJgYmISZLTepN7ppSTbmmKaY7TDtMx83MzaLN1pk1mz0x1zLnm+eb15vft2BaeFostqi2uGVJsuRaplnutrxuhVo5WaVYVVpds0atna0l1rutu6cRp7lOk06rntZnw7Dxtsm2qbcZsOXYBtuutm22fWFnYhdnt8Wuw+6TvZN9un2N/T0HDYfZDqsdWh1+c7RyFDpWOt6azpzuP33F9JbpL2dYzxDP2DPjthPLKcRpnVOb00dnF2e5c4PziIuJS4LLLpc+Lpsbxt3IveRKdPVxXeF60vWdm7Obwu2o26/uNu5p7ofcn8w0nymeWTNz0MPIQ+BR5dE/C5+VMGvfrH5PQ0+BZ7XnIy9jL5FXrdewt6V3qvdh7xc+9j5yn+M+4zw33jLeWV/MN8C3yLfLT8Nvnl+F30N/I/9k/3r/0QCngCUBZwOJgUGBWwL7+Hp8Ib+OPzrbZfay2e1BjKC5QRVBj4KtguXBrSFoyOyQrSH355jOkc5pDoVQfujW0Adh5mGLw34MJ4WHhVeGP45wiFga0TGXNXfR3ENz30T6RJZE3ptnMU85ry1KNSo+qi5qPNo3ujS6P8YuZlnM1VidWElsSxw5LiquNm5svt/87fOH4p3iC+N7F5gvyF1weaHOwvSFpxapLhIsOpZATIhOOJTwQRAqqBaMJfITdyWOCnnCHcJnIi/RNtGI2ENcKh5O8kgqTXqS7JG8NXkkxTOlLOW5hCepkLxMDUzdmzqeFpp2IG0yPTq9MYOSkZBxQqohTZO2Z+pn5mZ2y6xlhbL+xW6Lty8elQfJa7OQrAVZLQq2QqboVFoo1yoHsmdlV2a/zYnKOZarnivN7cyzytuQN5zvn//tEsIS4ZK2pYZLVy0dWOa9rGo5sjxxedsK4xUFK4ZWBqw8uIq2Km3VT6vtV5eufr0mek1rgV7ByoLBtQFr6wtVCuWFfevc1+1dT1gvWd+1YfqGnRs+FYmKrhTbF5cVf9go3HjlG4dvyr+Z3JS0qavEuWTPZtJm6ebeLZ5bDpaql+aXDm4N2dq0Dd9WtO319kXbL5fNKNu7g7ZDuaO/PLi8ZafJzs07P1SkVPRU+lQ27tLdtWHX+G7R7ht7vPY07NXbW7z3/T7JvttVAVVN1WbVZftJ+7P3P66Jqun4lvttXa1ObXHtxwPSA/0HIw6217nU1R3SPVRSj9Yr60cOxx++/p3vdy0NNg1VjZzG4iNwRHnk6fcJ3/ceDTradox7rOEH0x92HWcdL2pCmvKaRptTmvtbYlu6T8w+0dbq3nr8R9sfD5w0PFl5SvNUyWna6YLTk2fyz4ydlZ19fi753GDborZ752PO32oPb++6EHTh0kX/i+c7vDvOXPK4dPKy2+UTV7hXmq86X23qdOo8/pPTT8e7nLuarrlca7nuer21e2b36RueN87d9L158Rb/1tWeOT3dvfN6b/fF9/XfFt1+cif9zsu72Xcn7q28T7xf9EDtQdlD3YfVP1v+3Njv3H9qwHeg89HcR/cGhYPP/pH1jw9DBY+Zj8uGDYbrnjg+OTniP3L96fynQ89kzyaeF/6i/suuFxYvfvjV69fO0ZjRoZfyl5O/bXyl/erA6xmv28bCxh6+yXgzMV70VvvtwXfcdx3vo98PT+R8IH8o/2j5sfVT0Kf7kxmTk/8EA5jz/GMzLdsAAAAgY0hSTQAAeiUAAICDAAD5/wAAgOkAAHUwAADqYAAAOpgAABdvkl/FRgABQU1JREFUeNrsfXec5EaZ9lNS9+TZ2Z3d2ZxzzvY654BtHDBgG2zCHQc4EI74HXBwBAN3gDHBRJ8x4Ui2AWNsjHHOa2/OOec0Ozm1VPX9oVRVKqnVabpnRuVfe7Qq6VWpJNWbn5cwxhC3uMUtbnGLW9wGVtPiKYhb3OIWt7jFLRYA4ha3uMUtbnGLWywAxC1ucYtb3OIWt/7YEvEUxC1ucYtb3Hqzkcs+SApFmz1zP+tD8yCPPRYA4ha3uMUtbgOK2eciELB01+tLQkEsAMQtbnGLW9z6I8MnIfuyEQKYfR4LEwzkMcUCQSwAxC1ucYtb3ArL9Ini3ySgPxNBgCm0f9W+UCvBQBcEYgEgbnGLW9ziViimT0KYPAlg/NkIAPxflkYgYLEgEAsAcYtb3OIWt/ww/iCmLzP8dP+OIgDIWj9TCAD8j6SxGAxYQSAWAOIWt7jFLW6FYPxRfoCXjk4CrAYqASCM4Yf9AH/MwIAVBGIBIG5xi1vc4pYt48+U6WsRhQKVNSDI3O/8aMg+yp1HY0EgFgDiFre4xS1u+Wf8WsC/NUW/lqUAwDPzIIZPbfr8X94lEEkQ6M9CQCwAxC1ucYtb3PLJ+Pm/8naYMKASBFQtSOunCgEgaJ9KmAAUaYX92RoQCwBxi1vc4ha3IObP/1tTMH5Zmw/6EQB6iHDA01BZAIIC/1gI0zcV+/gfgdptMGCsAbEAELe4xS1uMeOPovWrNH6VZq9L+/UIwoEWwQrAQiwADsNnHOM3JWGA36/Zf4mCTqg1oD8JAbEAELe4xS1uMfPPlPHzzJ7X7nWJ8QftjyIEyBYIOYiPcgxfxfhNxbbM/E2JrgYxNoD2ZyEgFgDiFre4xS1m/DLz503xQb59TWLwYdvphIGwgEDZCiD7/KlC0w/6Gdy1eWEAHKPnXQMaFBgC/UUIiAWAuMUtbnGLmX+Y1h/ky9dz+KmsAbIQEGQBCPL7BzF8g9vWuX28JYBw1gJI11EJIf1CCIgFgLjFLW5xi5l/mNYva/yyAJAI2U5EEAJkASPICsDSWACCmL8hMX/eAmBI1zW5a8ouAUCKC+jrQkAsAMQtbnGLW6z1h2n9Kr++zOAT0r5EBCEgigAA+KF8o1gADEn7T9nbKe76DvNPSdfkXQJ8vEG/EwJiASBucYtb3GLmH9XHnwhg/kmFAJBOCAhi/hqCcQBkAKCgaP8g7V/nhAD+uoZC+DCla/c7ISAWAOIWt7jFbWAyfy2C1q9i/LrN8GVmn4woAGhpBIBMggBlIUDl+0/Z1+e1/xTSZyCoGlUII+irQkAsAMQtbnGL28Bg/mEIfkEBfirTfjLitiomQAuwAMjjAaLjANAAC4DJMX0jAwtEJkKAIAj0NSEgFgDiFre4xW3gaP1h+fy89q/S4JOKv8mAPp0TAqIw/3QYADKzVUEA81aABPxR/zLzJwrmL1+XZCoExBaAuMUtbnGLW6kxfznKXxXdr0Pty+cZfJkkACShdgHIFgDZtaDCGIBCAycAmEYIKsvL9LENQ8rHNQwpHzqopmzqmOE1Y4YNrhlSU10xqKqiTNMIIYTQ7h6ju6O7p+PQydONB040Nh5tbGnZd+xU0+4jJ5pOtbR3mZQGaf9Io/2rhIA+Gw8QCwBxi1vc4ta/mX86k7/8k035SQXDT4YIAEGBf2FQwCrTO9EIwRVL5zT88CPvunzqmOFj8jVPRxubt33513/7yc8ef3FngPCRTghwQIL4VME+JwQQxlj81cQtbnGLW//U+sOi/B2mnM7UX5YB81dp/6qgP3k87lgTuqZdumjW0B9+9N2XThszfHQh5+1Ec+u2u//viR898OQrO9q7ursAdAPosX8p7q+TQujEF/AuBz4g0REOIlUPJJd9UJQqnrk/FgDiFre4xS1u6duY+zbh8KPfy4T5B6H4RWH8ZSECQFDgX2Tm/5Yz5jb84CPvumTamOGjlCo3Y0iZFE3tHWhs60BrZxcOnmrCkdMtON3WgeaOTlDKQAhQVVaGQdWVGFs/GKPr61BfW4WhtdUYXF2J8kQChPgV/FMtbVvuefjpe775+79v4QQBXghwBAEnwFCuNuivJjioIpzBtnTFAkDc4ha3uMUtr5p/kL+fZ8pySp/s55cZf1mI5p8N8ycAyNvOWzTyu7fffPHEkUMbVEyfMobGtg68tnU3Vu7ajy0Hj2HvsVM43NiM9p5umCYFZQBlFIwCRCMgDNB0DQmdoFxPYsSQWkwdOQyzxo3ChXOm4uzpk1BdUQZd03xzerq1Y/MPH332W//1q8c2ctYAWQgIswQgshAQCwBxi1vcisA4irLgxK3XmD+v/fMV+9L5+nmmXxYiDASZ/dOl2blju+2ys8b+zwffftHooYOH8DdBGUNLRxe2HjqKlzbtwt9Xb8KaPQfR3tUDyhhy4VmEEOgawdDaKlw0ZzretmwBLpgzFcPragRhIGWYzX9/c8O3bvjSj/6hEAJkkCHZCiAKAXUVTMgR4J9acywAxC1ucYsFgLjlzvzD4Hzl9D7+VwbR5K9i/kHafxDQT1CwH4IYf0d3D3YdPYmXNu/Co2+sw9o9h3CytV1x9/njWWW6jpljR+Jd5y/BNUvmYNbYkUjoniDQ2Z3a/6eXV33jPf/9wCsKIcCJCZDdAX5XQF2AFSAWAOIWt7jFAkDc8sj8Vfn9MqiPys8vCwBRTP/pgv1cjf+6cxaM+N6dt1w4aeSw4fzgT7W2Y/2+w/jL8nX428oN2Hv8NMAY4PjpnW13H1P3K4+N2A+CaaMa8N6Ll+Ed5yzEzDEjBKPE8i27v3H2R7/5ewS7A3gMArUVIBYA4ha3uMUCQNx6kfmHBfqFMf4ypA/6ixLpT65YOmfYDz/yroumjx0xUmb8T6/bhkdeX4M/v7EejFIvo95l0vYt8owb/D5wjB0AswWEoPP583z91vbkEcPw/952GW5YNh/D62rd8bZ3dW955KVVX37/tx5cyQkAfGaAbAWgaa0AsQAQt7jFLRYA4pZH5q+C801EZPzJNAKACuAnUOv/5Dsun/Ll9153YW1VRaUz6K5UCo++uQEPvboaj6/YiJRp19whxGOXfP0/Z5swi8GzgH7hWESj5e5jQr9GgKuXzsXnbrwc58yc7E54d8o4/MK6bf/1lv/43rPwxwSEuwJiASBucYtbLADErZeYf1CUf1karV/F/FVFfgJR/a5cOqfhvo+++4KpY4a7Wj9lDP9cuxX3P/Mqnl63Da2d3RK3dtX5NNvSPpamPxItpuyfMmIo7rrqAnz4yvNQVV4GADApbVu1fd+Xln3kG39GeHpgeitALADELW5xiwWAuPUC85f9/emYfxmC/f1y7QB3PN/60DvmfuamKy/kB7z98HH86B8v4+HX1uBIY0uWWnuafih4ey607O1kQsPN5y7BN99zLcYOHexeZueh4/8z7X1f+JFCCOBrE0hWgEomDLbIAkAMBRy3uMUtbn1IHghh/ios/2QGTD+d5h9k8icAtFsuPmP0tz/0zgvHNgypdwZrUopfv/Amvvu357Fp/1EvhU9m2EH7MulXHRtU3icDWimD4v9eXIEjTc24919uxLwJFjjh1DHD/9/u//umOfm2z/2YY/o6J2IQH9XmThIYEFiMlym2AMQtbrEFIG59QvuX8/yjMn/Z3F+eT+Z/2eJZDT/62K0XTB87QkDwe2XLbnz1oSfx2rY9aO/u5nzuzL+t2if023w00rFp+qGgRaLQAmaNGYF73v82XLV4tnufnd2pVc+s3vzZ675433qIrgAVSqBtBXAFgqJaALT4E4tb3OIWt37F/IOYvupXwW2nEwR8QsB15ywY+bNPvOcSnvk3tXfivr+/hNu+/ys8vX4b2ru6FUxcZsII6YebqhfYnwktZEsL2HLwGD56/yP4x5rN7oOpLE8uuXzJ7P8JsIzI9gfLClAiLRYA4ha3uMWt7zJ/TcH8g0z+MsMvl4QDVe6/bAVwGdy7L1k25scfu+3SyaMaGgALtnfH4RP48E//iH9/8M/Yd+K0PXrCsULNS8cjmpeG5+TkC8dK2+n6M6FFYIX6u/kKEWkRYNfxk7j9pw/hbys3gtoW9Iqy5NI9//ff/wJ/hUOh0FGpvWexABC3uMUtbn2H+csof0HMP5mG8ctCgBwkqGL8rvb/n7deM+OBT7/vmjHDLDS/rlQK//fSSlz5tR/joVfXwKSO6ZzYqXvONkQ/PX+Muw/q7XT9mRybI619Jxpx588ewl/f3OA+qIkjh35zx6++fjOCSx2XXIsFgLjFLW5x6zvMX8X4gwL+VJq+SuMvUzD/IFx/8r+fet+Sr/3LDZdVlCWTANDY1oGv/PEfuOvnD2PP8cYB86wONjbhs7/+K17essvdN2V0w/9seuArl6W1AjR3EtDiywSxABC3uMUtbqXL/Pm/KuavQvhTMXuV1i8z/wRCTP4AyONf/+gFH7jqvGXOINftPYQ7f/4Q/vvRZ9Da3S2OGIq7kbd5Nuls8KV6M6GVybF5orXzyAl87IFHsHbPIWs3IdUzxo38zooff+EMhMUBAEAqFgDiFre4xS1m/v5cf0Bd1EdV0S/M518eYA1QMX5+m4f2JTdduHT0/t//zy3XLJs/1xncYys24l3f+yX++NoatdgSZL+Q9WJlpTzixQo42yxEOCBhtKBOA0zH/CPSWrv7EO66/yEcPNUEANA1bdyCyePuWf7Dz89HmBtAiwWAuMUtbnGLm5rxkxAhQKX1lyHY9B8W5S+b/QVc/w+/9cKJP/74rZeNa6h38/t/8tQr+PBP/4gtB4/7maWqheXaq4QG1bHuPm5aGFHTSndd4XwSPq60tIDXtu3B3Q8/hfbuHgBAMqHPWzxt/HcVYo93wY62oksAsQAQt7jFLW6lo/1HYfzpgH7KA6wAQVH+Sn//FUvnDNv2y7tv/Om/33bN0EE1tQDQ3NGJz/z6r/h/v3kMR5tb/MySpdG2g9B4gxivJlkSkCktjtGHIgZzFod04wq47i9feAM/fvJlmJQ6QsAZWx/82rmSaFNSwYCxABC3uMUtbqXD/BHA/FWBf0Fm/3Qm/zBsfwIrv3/ETz5+6yV8Bb8DJ0/jU796FPc+/oKF419IDDmSgX0kMNA+DEE57FrZ8ejulIF7HnsOz23Y4e6bMnr4vWt/9qVFKNFMgBgKOG5xi1vcSof5y7n+QYw/SOsPCvKTzf4qXH/yzguXjr7n9ndeOK6hfpgzMMqAZ3ccx7f/8Aie3bAdlLJgfH2C8Jo7QdvpaJGotLiKgprUT0No+Y4lyiqBLh6AeywTaB1rbsXn/u8xLJ36EQyprkRC12bOmTjmXgAXKiQQla0htgDELW5xi9sAZv7OT0b4y8X0n475awA0mfl3GxRffHoH/u2Hv8TT67f5mT9QOBdAhEKApUhr1e4D+Oaf/umWOU7o2tKdv/7GMpSgGyAWAOIWt7jFrXjMXxYCgqL+w8z+QRj/vLk/XUU/8u5Llo1xmH9biuJURwpffGoLfvXXP2P/kcP+UQYV2lHdUbr+fNGS4XcgXUPOyg+i5dpg+NREEm1cAH753HK8vNnDB5g0atj3UIJugFgAiFvc4ha3IsoDSJ/ul07rV4H9hPn8Beb/vivOGXv4oe/c+tvP/9sNzqCe2duKD/9lHX7517/g0OGDtjZMOPQ+KPbJSH9c5T+3n4n9TIrA9/XLtFiaY1m0YwlEFT+IFtIdy3F/bg5OtLTj248+i7YuCxtBI2T+4Ye+o3IDFPflK3Y1wN/+9cngz4IBzC7CoGkakskEkgnrp+u6/SyYMmNDemT5b0WaNxagNvTKPRdx7rK4r0oAs6V9YwCMTHNeA4DxWdxVDYAZWdyMDmCh1xV4p80AdmYxrk4Am7N8UqsiHLMBQA9/vWsvOX8z4hZF+1dF/DuMWQb54aP3eYavgvgNEwB8mv/hh75z66j6usHOoE53pvDdF7biu7//AzramgEtAbdAjtJZL+9T2didfqo4n9+W+9NdK9tjs6QVOAeQjmWoKCvDN269Fp+49iIAAGVsh375h+bDqxTIIIpMvV4NsPSDABWCGbMZvwMKURRRipCiCAQkg/4+IAyMtxku3+bZC5fAWEkII2fq80pb5wsQCAjXKQkDdQRkiXha5Cd8Xm/e3t+ee1nedQjAUWnfZls48Qkq3Kd0lBAckj6zzddden5nP2H+UGj/BH58/yDzf5SyvmHlfMl15ywY4TD/U10mtpzsxJPrduFbv/sjjM5mQE96Wq4GoTSuFyjH7XO0YGfbxy/THUuCj03Xn8mx2dIKmgPIxxJ0pQw8+Nxy3HbhUjQMqoFGyLSTf7736mE3fuLxEKljgAkAMuqSInODMFEacLX+NEyX9CYjJBHFkCJZDgpkKZgKoE7SYnkN2ukXNWR+rvIwHyS/loPiPpwAYUB9GslGGChGG2P/+LYk20/psWcFAaPHtkI4bQ+ARnsiHQtGo70fAPZcd+kFvQ5Yn0XEv6rITxnCYwBUZXyTQYz/e3fecuGkkcOGO4Nq7TLw9X9uwCsvPQGjs8li/gC3ABPFtv2XcPuYot89R17YmXQsP0sB1wocSybH5omWxlkA+GPtOdh68Bj+95nX8bkbLwcA1NdW/wDAE6XyYSZKchH0dTCOXzD3F9UCUNQ8i1KcUnVzFuR6AJMUDFzVn1/BqQDCUZ9zkYSZcLKzHPSvd9r/Upc576b9+ixJ9/Y/9uxLzqZKQNgJy90i9F936QV7CvSkVRH/QUh/UZl/IkDzd/P8ZebfbVD872vb8NorT6Kt6RSQLPfeMUKCt1X7fCl5JHtagORRyActkn9akI61x5tiFA+/thbvOm8JJg6vByFkzOlHv3/VkBs+/kQpsKY+hQPA7JgARwAg/IpASNG06xJsjml9ks2wgxg43x+3uA20tiTqgZzQ4AgIJoC19r4TAPZL/duuu/SCtgDtPwjoR4X2lw7rPwzaN6Fi/lcsnTPMYf7dJsPvNp/GvqPHcO8fH0ZHa6PF/NOlvcmCaFgaIM0jrXyMixWIVsCxGw4cxp+Wr8OnrrsYAFBXXflDzgpQVCGg+EGAjz0ZwvGdmWHQiAZd15HQdfcv0QgIIZ4gEPFeWAZKV0GkmCDVJv3462yt3GHijrl9JGdmHZnpHJRs3AA/H2F24TwEFZakpSCTQYY8RN4i0J8tBdm9LqygtkLG3FiHDYzRFIBVBqW0oyu1vrMnZdz+s79ugRj0ly7Svxxe4F+FJAg45wRW9Ltm2fzh37/rlgunjG4YDgA9JsXtf1mPRx5/BK0tzYCmZ5YjH/VYZx+NSCvoPMv3K11Lhu9lAePiNXdWuHtUbJ8/cwp+8/HbMKHB0reON7WeO+Idn3wTYjDgQA4CJCrxRDQhWfq/+x9hEb72PFpgC2XD5Prm2Ux9qv1rADAPjKki2vM928WZj2znaiA0kp+HGBRLIO/v6wJB1NdF9DqRiG985iKiLWjY3y1bQggBZeyDOtFQXVGGqvIk/vipW2BS2pUyjG0pw2zt7DH2tXR0H2jr7GrbebRx557jp1tW7j7SEqL1y6Z/VbCfBkC7/pyFI+698+YLJ40c1uDcwQ9e2ol/PPcPtLa2AHpClI7yAZQj96vy5rWAc+Tz5GA7p1+TaFEiapDKcUnuhaBj8wR49OrW3Xhh006876IzAQANdTU/BLCs2N9M33MBMAZGGajGPO0/Q9m9iGxlts3UZ3Aa/EJOgy95fhQ7WeIWtxwsFMxTYyhjoJSBMVZBQBbomoaKpH5eoroCtRVJNAyqwtJJI3HD0ulo6+ze29ljtDS1d5443d51srWzu/PQ6bbjJ9u6Ohrbu7rgB/sRBIDrzlkgMH/KGJbvb8TD/3gcR44ftTR/IDrgTibHDgRaaY6lYPjnuq246ZxFqCxLghCy+PSj35835IaPryvm8lryAoAUAugFAVIGRhgYsdwArmhf/DiA8ZwGv8Rm9FORz8C5ElA6+7og0M/SKePW629J+BsiuxmYxPiddYwyCpNSUMpgmNT6UROmSWEYJgxq/dUJmVie0FBfXYHasgRSgyoxeWgtUqZ1bEtXz5GOntTptq5Uc1t3qvVUe/fJxo6e5h6T0uvOWTDi3js85m9QhvXH2/DRHzyI1XsO2HXpbZWVceso4W7GNbUzLtWNSceqttP150gLIbRcdwMBGBXP0yRalCGR0MAYgWmaWYwLXhZAwLEvbNyBN3fsw4VzpgIA6qorf4ReTtEtQQEg3UfGhPfQtQLYH1WRRlbGrLzz2Ryzn4FC5aLn2f/d/9bpeH7yYeIibGBkEuT/1ZEzleATDpibwmytX5RyP5PZQoD1M00KwzQtYcCw/5qmvW0LBSaFYQsOJqWoSGijkiQ5qrYsAUrLMam+GowBMyaN6/roLdclJo5qSACAyYBNJ9rx5V88gtV79gO6bEPlotoZv0+1rdk3SzjkPPk8mVbQNsfQA/sVtJTnKQQCH12RVl1VFSrKkzjV2qa4X5bmHuz/pbnHw40tWL5jL86fPQWapbie/aFrLtB//sRLxgAWADI1o1kStEaZnYNZcJP+JFhm+nn234Ulpc2XCCAR6wsrfJZzE1sDYrlSfnX8nx1x1yf5baE2ghnlrZe29k8pBWUcw3d/JrdPFAJM07IauH9tQcBZG63rWGP56C3XVkwcbWX7mQzY1tiJ//nD4/jbilVAQgeIJgbTubIAB2qjDLbjra689htwrLwvlBbyR0tzNHwSSGv8sHoMqa7CrqMnYZgcHoFgAXCuJc0XL2hEGNdTa7fifRediZGDBwEA7r3z5nk/f+KltRiwQEAZCNfOx8UYBWOa9W+uXCNhOc2iA2azRGL4NX2aAcYteHWPrSeBLzVhJNAKMFAwB/KjsBC/35/B1f5NylwGblKLyZuCMCAJAdwxPPOnlMJk1l8HLG325PGYOHoEACBFgQNtKfzw0Wfw+2dfBMqSHvPnNVUip5AEaLWESFqvQgPOmpbiWB8efw60uGPPmDIOg6ursGLnPrR1dWVBi/92WNpxvbF9LzYfPOoKAJVlyR8DOKdY76dWqusQ4f9FRAuA91MvShlo9u8G8DMAmwAYAFba/74Dlm+mJtMxp/v1CmOL8iuwRaBkmT5//1nMB8ny1xeFAWL/F37YAM/U8FkEvCfObCFK6fdn1Gb+DIbJYFBTsAKYARYAT+tntsvAom064Gi2pWHGxLG465Zr3fG19aTwf88tx4NPPQckEl7Qn6PhQhEH4GhVmvOdcNvOec4+h5UQTUFLk/qlbeawImkswrggjivoWMbU/fI9gOCGM+Zh2qgGrNy5H00dXep79I2biXND+AJIYeOy7rGj28CbO/bBMKn93pBlD33xw0VTxBMlvgaBN/K73jTuw4qof+gAzpZ+I+NlqzBCQLr09ZK0nBQYkbAvP1Aip8rJ/xwAsQPpZETGK3qc359wWCaUwvuZzNXcLb8/s38UKdkNYPv+TV4IME1OCKCAkx3FGKZPGIO7br7W1f67DBMPvboB9z78GLq7U0B5ksuXJ9I2k/LpSZpjuX0axwyJ5u9PS0sLPzbbcUnbZbqO91+8DLWVZXjwuTdwuqMznJYWQEuT3Qz8PVCJlhcv8dLm3fjgZedgaG01AOD8edPqAJyMBYD09jT7/WKi+V/dzgNwOYBLbIavxyt63OIWtwIvUgAUfn8n+M/1+zOFn9/bTqUJ+qO2ud+h71gCpo23mP+UcaMAACnK8LcN+/CfDz6Epo5Oy/SvlORKLc+OFeS61WVluOPKczFicC2+9ehzaGzr9GMDFHI+CPDS5l041dbhCgCDqisnDFgBIF1amRobgokZAZYg0ADgEhDyDpvp15eiJpc/mJHStwTELfPnW5LvQQY5kz5rgfTd9kuWz9T/9uX7gw/UszV/agkCllnftFMATRgGhUGZre2rg/6oy/it92TGxLEC8zcow0u7j+PzD/weJzvagUTSC9azHpZiW1EIR3Usk5Bv+H6NN8ODiwfIhBakY7ljCM1qXIMqy/Hlm69CXVUlPvmrv6C5vSvzcTHFsY7vX2Nqxu+agaz+9q4ebDl4FNNHWYVQq8rLfgTgrGK8u1opLZCR/aXM/bzOZIx9hQFvADjOgD8AeAf6CL59UX3ERYoVKKk5yHVucpifPhsbkNOzVv/Xf5i/l+8vav98vj+1g/2cOADTDf5zff9coF/K9LapFPTnRfxb1+WZv8mAVYeb8eUHH8LOw8ctlD8+Sh5B29ybGXYskSS/MFrE036V2xokFxy3KjDNr2EzLeNxjRwyCD/64Dsxur4On//d42ju6MruHvlx818zyYzWq1v2oMcwnX+eueNXXy9KKfNEH1tBAIYZAN7NGN7DGJtkpdVQUE1zawK4cmwc6Z0fZhim7sQtblGtBSxYMOj7lgIx399xATAq5vw7fntXCHAD/kQhwKQWIJBjJTDdc+WgP4v5L5g+ydP8GbCtsQs/+NOTeGXbLiChiUFqzNaiGaedC9uqfdI2oh6bAS0acqzGadlCP0s7rokNQ/GNd78VIwfX4vafP4Rjza1iPYC83CNnCZDLBStordl7EK2dXa4bYMSQQbUAumMBQN0qbc3+Dlj+fJcXOVKwZgd++KCBYyGgOEJDnue8ZHPxcwweTIf/ORAxCPpKmqHS9O9o/nzKH/OYvpfqp470T9nAPyZ1Iv5N2+dPQeHl+3tBf8CcKeNx1y1vdcexu7kbj7zwBn730uuAlvCX02WcVipv89qsqp8RRWneYtKS74cJtKaNbsD33v82TB3ZgHfc8wtsP3JcxDjIdVyMRJtbKtLaeeQETrS0uQJAeVliNIBTvf2Zl7oAUA/gkzbjr7eWBsZJWzaohsaVB1ZprTJD6mNabUlF0bsvcRpklDzfZ1SmWdzamiQr7tEnCjMV8aUuRYEgDOqXL1nOB/1Rh/k7fn85+M+Q3AF2doCb7keZKwQ4gsWimVNw1y3XYtQwy+vZkaJ4bs0WfOWPjwKEq+wnV61jUmR9YFU75u/30UJEWmmO1eCvwBdES0t/3UnDh+I3H70N44YOxq0/+A027D8Cz+vNoo8rXT8iHKuJfw82NuFoUytmjrEyNcoSiR8DOL+332OtRJeHGgDfArAPwBfg8+kTIRuAUmrDA4esMb3o187X+hjFT9zn881znJ9c5q7oloMc3sc++dyzeKll90DpxQ5EgPqlXhAfpcwy8ZvUivTnfPyGEAvgBf3x9QJcGHT7ujzz76HAP7ccxFd++2fLSqDb2qfCje6rzBfYL2Nn5EIrg2OdcWtpztGkY+3xzh47Er/6yK1YMnkcPvfbx/HCpl0QkA5Dx0K4XH8SbdwZzodBGbYfPs4jR5775fde1+svdSlaAN5jM/+RQYuDYwCgjIEwCkIJiOa5AeKydXGLW9x6R/v3m/7llD+TMZeZu2l9Mua/lO9vUv7HWRM4wJ9l82a4zL/TZFh/pBlf+83DONp4GkgmIqipyLAfeaRFCkQLWDR5LH78r+/EWTMm4Au/fwL/9/LKgGOjjgsRxoWM72HD/sNImRRlCStD/dZLlyXRy3EApSQA1AD4XwA3h5t+RZ8rpQwaYZ4FgFjaAcsEFziqWTuOJQiem7D+sHnNcU77RVW/AoMQ9WnXgcx/It5ModwG6Uz/lAvU8/5KaXxcpT9eCPCOsf5tne+l/DE7qJAxYMGMSbjrZg/p71hrF77/yJNYvWuPle6nilJ3tlmQ6gq/uspHrwvnsRA1l6lpIYPrZtm/YOJo/OyDN+GMqePx25dW4bt/ewGURaGFiNdlebuHbYdPWMGidqsoS/a6Rb5UXAB1AF4OY/4qw5snaftBgbIyEZK+b0QvSSjasNS5Puaa6WvPnYQc1ydvTvrGo6QWFibtUG36ZzwwD/WK+5iUeoA+AQh/Lh6AKZYJdoQAJ91v7tQJuOvmazHUxpNv7jbwm+dX4pFX3gB0nUOgkwQlFV9OZ44POo8RL11PSI+TBYYAA4Lcn8mxAf2zx47ETz9kMf/nN+7A5//wBLoMQ32PvvP51MOwcXH3neM9Hm5sRnNHp3vokNqquoEoAOgA/gqr8E50bUaoCUA9QKBcNagwhhQzq7jFbcC2UNO/Au3PlPz/fMofr/mnuMI+HtCPF/jnBRRaVoa7br4WoxuGAgA6DYZHV23H//zuz0iBg6J1U+S4bSdKPqifD/oL7bdpBR0LJkXH50Ar4rgWTByN337sNpw1bQLW7j2ET//mr9h/sjGYFmAD9zgYztmMi0sJTDe3Clrt3d04crrFfZ/KEolRvf1Ol4IL4P0ALsxaBuc/jthCn15wSm89HTBzEK7bFdFaEsRxYpdUEbm/6A/2mf6ZaPo3qafFC/5/kwrwvqJwYNcEcIQHW7Hh/f7nLpyNcSMtBLluk+GFXcdxz5/+jnYjBZSVcW8wX0GP2yYkvJ9HACQhtFjUY+3Qd3ef5gkJGV9X3T9/wmh8/19uxMKJY9Dc0YVv/fU5rN5zMPt7ZJmMi7sfYW651AYC2HmAAq2OnhROtbZznzcZOhAFgHfnIpIz4kniKm8fKdSiHmYF6AMLczbMcKDEVvYZYSkodiXP70CfEBizfGhRXQJM2kpn+jd5Bk/9KX78v51jPYQ/DurXSXVmwBlzpwt+/+Mt7fj1E89hw849QEU5Z6on4du59quODTwvE1paSD9TnjNjdAO+//634cLZU2BSiu///UX84dXV6a8bNhb++6Ihx2pcP4LHaG1r3HWtne2dPTjZwgsAGNbbn03RXQBtnZ1LnY+AZbOQ8ZI4E39B60PB/eP9yFVQ1FLGA3EO+sB89IkHE9KXaTyAW+nPOcfOoY9i+jdM3gLgT/lzNH/qIP9x/n4v7Q+u6b+uxgKOOd1l4N6/v4Y/vPwaUM5p/kLFPHk7XT84FLsotFh6Wo7p2+E0bgldkjktaVzjhg3G/95+Cy6aMxWMMfzulVX49mPPe7D7YfeQ73sEf18Q71dT0+pKGWhs7+AtAL0OYV90AeBEY1NOY3DmkzGx5jZDnAkYt7jFLTfJLRDr32bKaU3/EtqfBQJEXSwAQyrw48H9Ui7AGbhs2SIMs4P+2lIUf127C/f+6Qmrup+bq87nrKu20/VzkxWJFsmRlpY1rfENg/GDf7kR582aDABYvecg7n7kabR1daW/R5LHe8yBFgPDKc4CAKDXXQBFFwDWbNne3NXTgx4jBZPS6FK/9G17ABzUywrIEpq1oNpeEQvv9DnNOJOiPEUoXpTuVzRLQQGLF/VZ4KmoN5DmOL4SqaNlhJn+HZ8+b/oXwH5ocLS/4/c/f/EcfOQWz/T/6p4T+O8/PAroMsKPHH4eFPYuh8VnGG7v/s0ydN+dVzmHnvtLeAuCuNqPHlKHb912HW44cx4A4HhzG7780FPYfvRkFveQpp+3YhBpXFBYEwjEaoZ8kKFwHgEDwfGWNo8ZE9Iw4ASAvQcO96zauA09PYaQExl94eOlc95nxtLJDmkZWV4Wu35mxs1mrnqVacRm814VQPs8EmXIDai0f04McGuRMAeXP8D0L2QAKKL9fUIA51q46Iz5+Ni7b0AyYYVrHW7pwgOPP4ttBw7ZAoCEpetA/PKQt65p2um3z3FyqfnzfP1Qn+e6QmRa3Ha6fl6rZ1r6YxkwuLoK//3ut+LmcxYBAAyT4p7Hn8fjqzZzY9W47SBa6a8V6R6zoeVYABi1ShJ7rdfTAIseBGiYRmLlxs1gYFg6ZyZ0TYNGCEiEBYlw/3e0f0IIqP1C6baAQECyiy+IW9ziNiCbzPx57Z8yEYLcMt1bjNuD/BVx/l1rAOf3Fxh/SMpfpe3jb+ph+PmzK/DwGyttsB9OuwQAyvmmGePw8pkCq56ptx1a7j4SsJ0NrbBjpX2K88rLEvjCjZfjXectdp/MX95cj589/TpEvzxPi4VcN4tx5ZlWe7cA/Fc94AQAk1KdEIKVG7bgVFMLLlm2BBXlSYAAuqZD1zXoRFNzfyZ+sJQyEEJBOQGitzDD84K2VmBEuFJSunKapz52n+nuteSR+jJIP+yv1QspvGA8wEPko5TBZBbcr+H68b0of1MF88tX+ZO0fj7l76pzz3CZ/+luiue27sf3HnuK0yKJyFz4XxBardNPpQfG7yfSsxdocV9vVORbhPTL9miVV4AAZbqO/7jhMnzkLechoVv8YOfRk/jcb59Ac0cXJD+N6DYg4CM5oUwVY5zfnn+/oyMQp+9X0GrtEgSA2gEnAICBMFtD333gEE6cOoUz58/FpLGjUZZkABLQEuktAo6Gr8oACHxYxWDy2S66ERfgUmR+JcW8ijSnfQ6SuMDvQCm/welM/5QxUNiV+ZhX6c+Uivi4KIAmdU3/hhDwpzD924LFeYvn4K6bvRK/exvbcO/Df0dzaxuQ0MWKc4Ca+QXB1KuQe7Olle7YvNBi+MBly/D/rr8EFUmLZTV3dOGLf/w7dh0/FcxgBVpEtC7k+x5JdrS6DYMfTfmAEwAYQMBF7re0deDZ5SvRUF+HM+bOxoTRI0EpRSKRgK7ZWr1ioXJAgShloBpTVgcsBUYYOyLyKpPFc9LPrSNFX50gBv7xJno3+p/P93f8+iYTcP3ddD+TK/CjMP0zABNGD8ddN1/rrnNHOwz85plX8eq27VaFP2/lhM++zO+TtxkHRBN4rLwPwbSE6wbQjTqukGNvOWcRvnHLNagsS7pP5r5/vIy/vLnBNvGH0NLC1PLcxiXco+vyyIyWSYW3Xx+AFgAmxkwyBkYpTpxqwlOvLMfQwXWYN2Mqpo4fa8UHaAS6pkPTNRACK17Alu4s9woFo5pnSivCAlZU7bePuRFKRkDqxXlLx+RL3kWSZ0TCUhKSVXC/AtgPx7QF+F7TCegzkTKtnH7PFcDh/FMe8Efy+dum/7tuvha1VZWWpptieOSNTfjRP1+0ZsoFy+Gw6IkE3s8Ctp1jWMixGkfLdRUE0CJpaGUyrgBa1y6Zje+9/20YXF3pHvr46s346dOvoztl+s/jaZGw67KQcWkSLZb73AbcY3cqNbAtAIGLgF1C80RjE55fvgqvrlqHiWNHY/aUSWioH4xkQoeu6SAJXZhvN0/X/nIZY5YkzUrvPgseK9DH3QglxeTyPG9RmPxAtZAUy3UQnPPPmf6ZV+GPcmV+BZM/VUH+MhcHwKQUplDljwEUmDxmFO68+a2YMXGsO4q9x5vw23++iJ72diBZJqLNudtMMnPL/fKx6foj0NKIHXSoQAIMpcUij2vhhNG45z3XY0Sd5xpvau/Ed/72PA42NnkPTSMcwI4YaS+i8/HH8uNClvMF9XUzoVXkliiBhZaRgC+RN+N3mia27dqL7Xv2Y0jdIMycPAEzJo1DdWWlmyJjITdqHpIWY9B6gdGVjMbfjxZ/VkymEDanBdZ+o/anmx9WrHewF2MpCv0eqEz/VuAf5YB/+Nx/DtyHj/63LQOmU+GPUTA7eJByEf8y89/f0oN7H3sOy7fusND+WD6c0GH9ClpBWPpZO8d5DTuY1ozRDbj3fTdg2igvNb7HMPH1vzyNV7fuCb4u4YP9Qu6XhMwHkWiFzqeUhumZUhT9floJTQhwNwasBSCKeE4BEEpxurkFb6zdiDfXb8LIYUMxqmEYJo0dhfq6QVbWgK7DoCbKTQYzSaHrOjRCLHeBRmLHc9ziFre02j8nBrjpf0LQnxPM56b9efC+BhULAZmUgppMwPnnA5YnjxnlMn/KgJPdFH94bT1+8+zLQDLhMVM5ul0Qi0L63RgA5I8W8kGL+WiNGFyL/3n3tbhozlThGT365gY88NwbMCjN77hYHmix7OarLCGw4J5YAAgT+22pjlEKkxAQBhw+dgKHj5/Aqo1bUFaWxJgRwzFp3GhMHjcatJIhSRMoSyagazoSCR06X6ayxEydLIvz+qssE0P4FMaS0p+sAYW55/Q5/75Sv050P1f1zwH+8Qr+MH/OP2epvJOL+GcA3thzHA/87Z8WOJqmcSVlNS/H3zFhO0oNoRCj3aVtsPB+3kRNWHpaGuHwBiLSEsYNX02ARELD3bdcheuWzhGeyo4jJ/H1vzyD022dYt69alwk3T3CHxCphdCiEWjJc+sWEoJodZDO13XBAmAOSAEglB9rIiuwAKu4esvuWsNgdJrYtf8g9h0+itfXbMTI4cMwftQIjBkxDKMahqGcJVGmJ0A0YoMIBmcV9HumVyLpcfmet6IyvF6cuz4hIJXoOya/L2GBf2BSzr/N/MUyvyLmvwD9yyH+ucWCeNM/Y9A1TdD+9zV34a8vvI7t+/YBtYMARr11UOnf5iLcVf3ysaQAtByBwOnXJGbImPoe4MUTEE3DJ6+5GP968TJhTW7r6sa9T7yI9fuP2LRobvfoPvmI9yjfl9vPoy1q/vOdY2nwuKrcEs4AgI7YApDtQsFgZeYywKQmulMpHDl2AidPN2Hjzj1IliUxfMhgjBhaj+FDBqOhvg5VlRU26iCgQRMWLU0jwmqhgZSMoFDURTwOHuxzlgA2AO85qmVNnB+u1G9I4B9VaPse2p+I809NL+ffMf3zUgcDcOvVFwuj/duqbXjwmReB6hp4aiQTI9jlaHYCgEY8NgotxnqXFgFuPW8x/vPGy6FJa85jKzfh1y+tDD8/k3EJZXnzREs+lqj67bgA7ro1lYIA0BYLAFGYUQDOP4hmTSuloDCQsqUwTdNANA0nm1rQ2NqGLXv2g4GhqrwMQwfXoWFwHUYMHYIhgwYhmdAAQqBRTjAgBNABjaHkhICSTKMroqCQjyCxvDHNAmcS9AkLSQlbUVTkKQvK+af+nH8X5McTAgzO9E957Z/yVQM9C8CEUcNx0xUXuNdfcfA0fvTYU6BEtn5G2CaaFPgWdGwmdHuH1kVzpuDrt1yN2koxE27XsVP41l+fR3tXj197T3st+bqsqPeo2lddLggA7QNOACDZdEgLhsX8PcmMMcA0LZ8dSWkWfoCuw9R1Ny6TUooWoxOtnd3Yf+S47RYgqK2sRF1tNYbWDcKQ2hoMHTwI1VWV0CiBTjQXf4CHGCYlVrs+F+aXN7NuiWuGRcVuKFGrSkkKCr0gHDjFWWlIsR9X83cYOF/Ih9P+eWwAgwP94TMHHJqTx47ER272qvztaOrBdx55CjuOHOEC/7LkLZpUMpWHwi0uz/NtL5w4Bt++7VqMHzZEeC4d3T34+p+fwbr9h9PQIgrQol64x6DkhrR0Pdfz0FoB/v9UbAHIejX20jYYHNAODZrzAdofn/dxO5jeFIwQEApoYGhub0dLewcOHjvpFhIqTyZQV1ON+kGDMKSuGvW1gzC4rgYJXRfWKNmNQFzkQqe/eEJDjEiY2StWNNhnmanlOaiuXwWQRhSkSGT5gXmZWzxIjy/wj7mBfwYX6GeYIuP3GD7lgH480/9Hbr4W0yd4aX+vbN6FP725GtD1/M1JCVhZwtqY+jr859suw9LJ46QhMTy1bht+8/JKhUmOZPll53kVJLmfPrQmFgDyvqwTt143tRg8Na2/zPKREfmjsPEGKC/VMeYGhnZ0m+js7sHRxtP2VazzKsqSqKmqxKDqatTX1aKupgo1VZWoq6623Aia6EZgGicMMJSkBSFucRsILSjtLwjxj6/0xwf+CaZ/ARHQ3ubS/vjAv+kTxrjMnzLgzYNNuPfPT4JRykX1S5pmuqI76QrWkNKiVZlM4t+vugA3njnP93x2HTuFrzzyTxgm7Rv3mMVz0jQiIBwCaBp4AkCkQuIkpy+dAe7HRxxkQK4GOpEkc2ebhpElBEanibaubhw/3QRy0A4SJIBOCAbVVKG2yhMIhg6pQ1VFGaorK6BBs0oW228C0Sz3QjEFgby7DmTNtUT84X1aa86zFpetHtXnihmFzo2E9x+C+MdcnH/TigWQTf8mB/XL5fwzKed/zpQJuJMz/e9uSeEX/3gRGw4e8u4h02p6uVStkwUOy1zJodwhrxXwrMB/gvdftBSfvvYi3xNJmSb++6/PYd2+w/7x8BUDScA2oKwoKGw774u7j2V3jzlUPSwvS8QCQEEXbeL4+xmoacI0TRBiBwUSzxJAM13o7A+ZOAIGIaAEFuogsYSDxpY2nG5th4NzqGmwr01QW1WF8jJLGBhUXYmK8nIMratFZUUFqirKpHdFC1zcLBcDUwoOWpoUx5JJORwgJZDzMlclKBD1CeFAmlMmFmDxp/3ZgYDgrAHMtgAYiiBAPuffSQd0yv2aXCCgaVp07rzpWowfaSHcGZRhxbY9ePj1FVKaGMIt1mEMKt2xmdAivHDAcqPF9V+9cBa+eOMV7u69Bw9j4tjRAIA/vbEejyxf579Gvu5RFiQsjS58HQqjlclz4vZVlCUwRBQATscCQF5XKOuNobaPTjMMlyFqus6tC17+q5bJgiIxL0oINGchIdZfRwCwsCQsC8Gpllb3RfCwCLxfbXUVKsrKUV1ZgbqaKpQlkqirrUYikcDg2mov9oA577ImDIVolkACiK6GMIEgbnEbeE2d9sccxD8p0I838xu2QmEYJgf84+X9pwxTKvlr/WZNHo/xNrxtt8mw6UQ7vv3Ik2hqbQMSCbWUVSqBe3kKop87diTuvvkqjBoyCACw79ARl/kfbWrFNx99Fs2dXb17j+j9ua0qK8OQmqpYAMgn33d0c8JL95TCNEwYxEoH1DTNthrZzDed3hJVi7bhir2PhRNZmSdBa2kEl8bmNgBtrsBAQDgBwdoeVF0NTdNQP6gWuq5h8KBaJDUddTVVSCYSqK2tgk40MI341jxXCIoAhNSraIUCEEnpa78lhccft2gsX077s2xodtyfv9SvgPhna/c9hoGUaaLHNJEyrep/KdNEyjBgmiZ6elJob29HT8pAd1cXUqkUuru7sXj2NHyUM/2f7jbxy6dfxdr9+y3mL5itSzEIADnTqqkowz3vvQ4LJloMv62jExPGjLKfDcO3//a8BfiT1bVyuEfCAyDxXzRFoYIAqsrKUF8tCACNA1gAIBnuTycEeGYryihAAdPUoFPd9cU5jI8pka2Qlhnxj5YErDZhFrEANANojmZCLAsCg21JsO+H2C4GjQCNzS22UCACFREQJBM6au0XbFBVFTSNoKK8DDVV1r6hdTUgmoaqygqUJ5JKeSdUOAjp48E8ojBCJa0Sr2ZYspkEmXDAXpyTXK6caWnvoOM9HB7q+vx5ps/78w2DImUYSBkGmlrb0JVKob2jE62tHfa+FqQMA50dXejp6YFhGujo6LTAfwT/v1X85wt33I2JYy1m10MZVu05iodefgPMNIFEkpsgJtWPL1Chn6xoadx7lCEtAvzH9ZfiivkzPI7X1Iwau/TxU+u34TcvrUojAGVwj0wuFMRthxUKYlGLGVGEByKEz31NRRnqa2IBoOALolNamBDLbOfgenvmvwwX0QxEE5LGgkBCCPNYA8y2HhBYAgEIYDqpvRQghPlu3zANdPVY9SVOnG4SGK2K4SY0zcI8IMCg6hokdA1lyaQrROiahjo7bzWh6xhcWyOW3OYXWhIdZpkQIizY/dFNMRDqN2Q7B0GWE5mJRxUCnOMo8/v6U4aBlrY2UMpgGAaa2zvAGENPKoWm1nYYBkVHVxc6OjthmBQtrW2eK8Ct+GfAMEx3H2NeP6UU1DTd9EEnuHDZgrmYNG4MAKDLZNh8sgMP/ONFHDtxEqgo878VhJsZplIZVNv5cpBH6CchNm7feK316gMXn4WPX3W+e/RXv/9zfOnjHwIAHGpsxrceex4nHPdoPu6RZHmP/HksnW0v+7kfXV+HyrIk39EZCwD5XnAcnzwYKLWid6np+eQKwmwyCbwLStvlO/j3kTDle8VY0KrKwmlzLQUTXT0pEAKcam71WRX4c113BABd110pPqHrGFRTBQKChK5hcE2Ne251VQXKuRe+urIS5WVJK1ZCEtgysRjEUQ19o/HPVX7CFCx0zXRObW5rg2ma7mHNrW0w7cI6JjXR1NZuAYEZJlo62t3yva3tHe4YKFfalzf7+xg5n9ZnUnf9MAwryM9dR5jn5+cL/MDFIwG+/uk73XsxKPDMmi14fPkKoDwprhlB2PQqFFQZv5/ksRZAvmjZf8+bOQmfu+ES1FRYSH+btu/Cf370g+6tPPjCm3hpy+78XjdsPkuA1oRhQzzIec+kEAsAuWpSRGFvd8GBmFeUg9q5/iQoTS3s4wtl+nnW94IEUALRiiH7F3jEQpUQoVylif2eMvsnghcxLsrCIUOZgdOc5H6yqVkYNiHBbJq3SFRXViCZ8EBQaqqqUMb9e1BNNXQXJIXZJZ5tq4T0/KoqylFRVpaRAJS73EeyepwokNk8Lb0MXV5hjWfgza3tNugWJ1waKbS2d3KaudXf3tGF7p6Ue1xHVze6UylXWGjv6kIqZYjCQ6B5n0WyAlBmrbOOid4JFOZBf5yofSuDyNb8qa31M9NyGTj/2XgjoB7Dhy1gzJg8EXd/+g5MsXP+u0yG1/edxB9eeA0pSi3TPy/UR7J681X2JIuBpugvlJcAQV4CzrZJCIYNqsbX3nk1powYBgA4frIRCV13md9r2/biVy+tgElp7p6OsHFlQ4u37GuSJ4RxGRKuizZo7rkIQDtIfOaY4dC1AV8NkCBb9HWSoWbtVPRyrQCaCWiaVRAoyihKxTRNQiwGJEsrQ6DMw8RYCd5kL8lFDj3vOO+D0UgwE3K6WtraBUba2NyalsFmGqPgWCeCHueg6mok9PBckIqyMtfiwbJ5bwPGPGRQje9h9XT3oL27Oz1jp9HHYTJqRZ2nOb+jqwfdqR6XWcrMtieVQmd3T2Stn98XhYkH7WMRruem8smCis38mSuEMH+uPmfCZoxaMTi2fsb4Yj7MKkzHqJdHADDOSsdw96fvxNJ5s9zrt/cY+OsrK7F2+06gvExiFPK29NHI/UxiMFpQP/NLgYHXBVcqN+RYQVAIplVVnsTXb74aF86e7J72he/ch/v/+0sAgKb2Ttz31CvYefSkeF0490Ps/TSP42L5oQVYY2REEh7S0QIADVNGDONjpV4jl32Qsmfujy0ABTRC2pK9AcOwU+cSCRcXAISAMFaiuczRmXg2DD9snzJoUhIOHGYomvLDlcug+IHAcFBVESgSbFlQMZOmlrbAOAhCgOa29lAXRNSYhjRcMWOrQVRmGcQgo7hV0h3DWGaMOhshgGV6r8qUbZb2mkLuP0R3AGOORYC6ZnwHRtyDCoYQSwTum3C0f2hEZP4Gw5ObDuCXL7wCVpZQvOmlUZgnX7QI0fCvF56JW89b7L7nK9Zvwjc/+1H3mEdXbMCjKzb22XvM9rpDa6swbJAAA/zxYrCVPiEARC4YFGaht00zbkCgZlgFgDQNzELpsU3cyHOkNJEEQBY+xlIQk1iwICAzrCDhQGZw/H17lgK10BEUEKgKcQi8XgiTde7DP3aEjkumq2lEzYAyYPCqOc2F+fOKBlMKTOJzDqOT7t4yZfpBc0MzpqFm+lHcAoQQW+OnEkIfc1OGKbefuWZ9MarfKutLhJoBTFIeZEfgumPtePjZl9He1m4V++E1UcKZjvltt1yuqh9czXqE9HMWAYRci3jm6UjjYuG0Lpw5GZ9864VuxbuN23chmUhgWL1V9GfH0ZP4wZMvo7MnFX4tQjwLB7NT83IYl88KkC9aCJl758W1942sG4Qh1cXFAAAi4t70mUbgD613HoQN02tJ8yZMwwS1MwLAGH9IgYcY/F+vzQ33C7IAqPerTfBR96vuM+xaSrpBXg7V9ULGlk6Dj/JjEeAjlOPlUZ/S/XJ53GkNEbm7LzJ5/kH7rVgO4ns9nf1R3k/5O3Ku41r3IMabEA562x8MyMR/UyrWCHBS+wQhAhx6oEXvxisvccfX3G1izY49eOz1FYAbCNvL6X0EVsngfNBK42wfWz8IX3rH5ZjUUA8AOHriFL703Z9g4WwrBbDHMPHA829gzb4jXtwCiTJGZvUTImZKFCwIIANa7vjT0xo9ZFDRUQD7nwCQhvc5i56F423AsDG9aYC/sLhj7iXBAMECQDo8gFwYv0q7VuEZhBl8wo4Pcw0Ueq6AvlE1Odu5yHS+I78nATQcQUBTuGyiWNL4azE3x5wJbgHeGsJXAWR8ER+qYvpMmaV30zWX45uf+Yj77xUHm/Cjx54CKiq8t5lBwqNXbKfrLyYtLtCP7y/TdfzH9Zfi4tlT3fv//Ld+iG9+1puPl7bsxv3PveFfoTO9B/k8kgOtDO4x/bhcKVY51gkNQ4qeAjhgBAD+/RJgPu3UHk/C99eLKJz/opQYgczICCJWaep1g07Q+HNzeWRmBi+6NIboE5Lu9CAhqj+VZRCfL/PHpshmfJ75O2sD5QUB+Xh44QG2UPD1T92JZNLysB7rMPCP5auxZf8hQOfM7I5ZnsBDKFJtR+nPhJbzdWlS3YE8jeu9FyzFv150pjvHX/ruT9CdSmHG5IkAgKaOTtzzxItobG2Pfo/I43yxQtBiGdGaM24kypOCB767GN9GycQAkLwfGLYiQPDludJ9dskIvWINiNKXXfhi9jed7zo+pMCPPRtNOEu+Gzr+vFRYLPA8yKjMrB9IBIzxQoDotxeCEpl3DK80MBtvgIETAsBcAcKRBBbMmu4y/xNdJl7Yfhj3P/eSZfp3UshogJU4CE1W1R9myU53bFRaGvFS2HyZB9L5AOaOH4mv3fQWV7vdsHUHVqzbhJ994z/d5/D7V9fgH+u2cNaGHO+RH6OTnufMcdjc5mu+ojwnvpohgIUTxvgyAAa0ANCrC4ErtDEXuct0CuxwwQCEZblYl0y2IMl5wHxaYCY8QHAf5EtACIFj6EtFBXvl9RDMuqw35Ic+pf0HBUA6wD6MtwBQJpT0EDMGnDJCXt/l5y1z6Z3sNPHLJ59Ba0cH59tGQJAGU1gtg0THbNHomPpavo88XS0AP60h1VW4+6a3YOTgWgBWhb/Pfes+fOOzH8X4MSMBAIdPt+B/Hns+h3vI4B5J0MKR43zleGx1eRnG1NfxD/6OYn0fGgZo48sEG4YBwy7k4UaG20EpMcpcrymgcYtbr2n/njDgIQBSLthPDv6jcoCgY3HjcQHAcNsNV+Mj773Jve7qbXvw7ObtEBxaDrwsg3+f0J/JsWn6UVhauq7hM9ddjGuXzHHv/fPfug/JRAKL5liBfynTxDcffRb7TpzutXH1Gq0Mjp07diRqK8v51/N4sb6L0rQAqAJScybCaULcqkDtKl+aYViBRppmA1m5qPtKqgMHz50ID0IUAniTcbiWGaS9ZyZUEPda6UAZ+0BhwYzfYpYzlRwoBDyoUnYNpNP+BR8+pOA/ylcFpFzUPw3U/udOm4K7P+Upc5tOtOOnTz6HVCoFaDnqWk4QWaHnm5Cs3pm3Lp6Df7v4TNesvWrDFryyYg2e+s2P3WOe3bgDf3htbQloMEVcHAjB3PGjUFNRxu9tG9ACQHoEvvxdiRAL18uxkLoCgKZB03ToOo92l6fLh1VBySNqcDp7Re72jChe+vCFQ8wsyO05pju/rwgBvVcoKP8Fi8PiJ7ISDgrw0IK0fx70h9f++Qp+IhYAly3AIJmUGe7+tMf8j3SYeOTVdVi+a59fIpVw8gFYAoLbr3EwzdKxhOvnmZmKftB2tv3KMWoYWVeLu296CxoGWXU/du0/iM9/+z5cdPZSzJo6CQDQ0tmFe598CSfb2uHly+dpXNkcqynmMJf5cl60tGMkmD6qARVJIQOgK7YAFEMQdEqAMrg5wybVoTP0rzDouMVtgLWo2r8DcezVAWBunRAv358L/nOQ/uBV+mMMWDxnJhbMmg4AoAzYc6IJf3z5dRhGD6AlOCbACWORUtE4wU15LItOC+loIWNaZbqO/37X1ZgzdoQ721/49n0AgG9wiH/3P/cGXt66N/txkTzeo48WywOtaHOb1HRMH9XAw40vJ5d90IgFgF63N3iof5R5FQJdv19+LagFsGb09WeQqxYazXwSFhyYbYBjsWYm//p7qQjkEmxzyEMLQqLMVvsXUv1khu9L+YMPM8DV/jnT/8kuE79+Zjm27D8AJJMFRpblcehZr6Pjvvf8Jbhh6Vz3uaxcvxmvrVqPv/z8HowdORwAcOBUE3710ioL8S9P183nPUCuo8LPY9j5vFUm4rUaBlVj0vAh/Ct6RzG/vUTxP/5cmCLJ+Egm/cvx43n+Pjv4R3PAa/gcjmD2UxALbZS+/mSoCLt/ltkTDnrX0sUoAAVCgmaFm65SfQVIL0SNqqCfVdo/j/3PQvP+xfLA7jafOmgn/TvCwLwZU11Td4/JsHbfMfx91RrLzEw4LT0wZwwh/cjg2LD+TK+bntbCCaPxmWsvQl2VBW60dddefP7b92Hx3FlYMteqgWBSiu89+TI2Hzrq3YtbNY8WZFw50yIIPpYhp+e0aNIYjB4iZAAcGtACQPE1LC4P2EkJNE0LHMUO3HHBcbLOC+zlGywJzkBK9omr1QCmFAb8tQCylFqyUO1JrnccoYp1yQkLPutb2gcQSft3fmFCgKj9Uw7217MEgKsdAACL5kzH3Z/0lLhTnT144OnXcODYCaCiXOIPxL+t2if0c3OQ7lho4j6XaWVBK01/XVUF/vNtl2H6qAbrvk834fPfuQ9bd+3FP359nzsfr2zbi9+9uhomZX5azngZ9w3mOC6XFkGBaLGQe0hHC1g8aSyG1gpFgE4V87sbmGmAqgWXywgwDEsIYJRKmiMpzXspDeC+PiAM9O9XmsQzLRR4cr7ZTLR/x//vQ/tzlASHB9gywN2fvAOzp1mlbk0GvLbjMP6+ai2Q0O0Hwxfh4bbBFEV6FNvp+otE630XLMU1i7xKh5//9o+wct1mXHz2GZg91ZqP1s5u3P/cGzja3Jp+XI5lQOOEgWzugXDlGnOdjzzTSuo6po4cVhIAQCVoAYiqIrGsKCgrbzLP9+O4AayMAAOaXSlQBx89z9xTfPUz+ijf7T3/dxSzRE4+AIVWn6/3L1ghLYg5JsNTsoVKLlXLQDYRIrK7gUo+el77V71bYh0AqiwMBN4FAIb5s6a5zD9FGTYc78D9T72MttZWW/vnivAI2qTzUFiAtikfm64/gJam2NaIf5+Aepd+XOfNnIDPXnsRKmy0w/Vbd+DJF1/FzCkT8Y3P3uXO6uNrNuPRFRsi3iOR5ov4x0VYlrRUx7Lsx+XOHRMtw/zcukKAR2t0fR2mjRzGv3ifLva3ppXuEhBY9y2SrhNFMRYLBRILEMSkrgXArfftHsgtT7FSmyepJKLuSvL9XpHSeL2LhX8Mf9XDUl8J0o0wyPfvWAH448SofzXuP1OV+mWeBYAP/KMMeHXLXjy9chVQXsaZDVkaxSYKwlyU/hxoCQshCaXVUFeN/7juUoyx/dgHjhzD57/9I4ABX//MRzBmhBX4t//Uadz/3Bto707lPq68zxcrAK00xxKCGaOHY/KIofyBu4v9fQ3INED+fSKM0+8pg8lMAIChEWi6Dl3TrDrioR9b3OIWt1Jpsu9frvKn9PuH/MAXDLL/mzllIuZOn2KtFZRhxaEW/O3VN0CdIjtpU9Ug1poPOlaIIysuLUI0vPuchXjLghnuoV/49n1Yv3U75s6cijPmz3bn+c9vbsRLW3cjNMVOSKHL4z2moyXk9+eLljS3lInHagSzx47AcBsrwW7Hi/2t9AEBgGR3aIYWY8aVBwUl0J1qgQl7EZBfxl6Ebyn0/DoofmHm4+KnypEiXiuaS4CxAryc/LNhEacjz8/Jl6ZXkkw/s8h/X9Q/pfa2uBaotH9I2n+KMizfsgvPrNsAlJeLLwfPCBxzcFSGHCW3vKD58eL2RbMn4/9ddwl0Ozh69cateOGNVQCDUPp4w4Gj+NE/X4NpsvyUINY00cROFEy66KWRw2kRQjB//Cje0vYqufmTRf+oSkAAIDkfTdIdGPUSDrQno15AkL0waJqXspIv/V9G5mNFEyTk+umsJN4EH2hihJz+9Iy4cO+oyoqudueT7L4BnwyRXyGU9INiD5lo/370P9EywM+7CwQEBk0jWDx3pnuV5Qea8dvnXwHTdbhBdJBQ4iDXICbiS8O48oCMA/dxgX6Yv184Nk1/psc6Er+9r6GuGp9+60UYNXgQAGDfoSP4/LfvAxiwZN4sFwSpO2XgwRffxM6jJ/I/rqB+1Tz25nz5EAU59489rskNQzB77Ej+Vf2UW465iG3AFgNS838vv9fJCDDtIkHUpMJzzj0CoQ/aCkh25el7Y1x9wY6V3dsQdGY/DULJ+WGK2r+v9G+AICDGAfgtB7z2z1f7a09RvLx+K9bu2w846G68758gZDtdPysuLUfq1gg+dOlZoun/Oz/C5l17AELwDUH7P4KfPbs883FFOraUaYXP7Zyxo+QAwB1eRPmAtgAUf2kmsvbNnBoBBgzDxgNIJKA7AVMgdpot6/8Lco4Wm75xpX76iPJoCeGtA6XmDvC0fL/2r3IBUJrO9+/1QfGZ3/2pO91/rjjYgu8+8Q+72I8cPR6yDUgmZKeePfHqDMjm6qi0wo7NgtaZk8fiP6692Cv0s3ELXl6xFmDAWYvmCXj///3X59HZY8Dnbkg7LsBncs/6HrmPgCC3+Ug3roi05k8YhfqaKue12Uxu+XRjKXw7idJZsaKl9+UvGlwtCjDigYabJgUhBoimW8WCGLO1XyIBlpBI10t/FFFu975rIKx6UbiyplTgenn4fa0aYAYeqiyeWSHmN88FgKJaBdLSjq79+33/Idq/h/yPd1x1KYbaEfCNXSZeWLMRzW3tgKbD5RhKjVu1zcV4yP08zC+judGStzOgNbiqEl95x5WoqbBiGzbv2I0vfOdH7pr0jU97aX9PrtuGx9dula5RmHFlTMtx6bj9mkhL7s94XMHPfHBVJRZNHMO/qF8slcUptgBIzJ8wS8tnYGDUhGEwEE2HrmvQdB2M6b2umpZOrEB+1/NcmHQUN0SpCgEkL2dmgqfA+uYLothPJGGD19IJt/jylfuCtH91DIBf++eA/4Tgv5UHTuP+Z1+0K+NJ805IeH45b1sO7YdEn2VHS7ZMRBzXhy5dhivmT3eH8oV7fowtO/cCDDhnyQJMnTgOAHCqrQM/fOoVdKdS/vmIgmUQeT5IdrRYOlqaZC3I5jmp53byiKE4Y8o4/k1eUSrmzTgGQGa0hFtcqAUMZLkCTFAbG4C6YCCxqTpucSuVxmvvUbR//0+t/TsWgFveegXK7DKuR9pTeHrFOhw53SQuAsRJCWPq4jLuNvM00KBj80mLZU7rzCljcdcV5wqm/zWbtrrSEK/9/+qlFXhj1wF4wY8Zjgvp+lHatELmdvaYERg3dLAzVfvIuz51oFTCw2ILQIi2beX/EwsYhJowKYVOqQeeAuYKDZHLBGSCCZ+FApd/10EYsl42N5MvhTfzaoB9/92M9loUsxZAb7oHRB+9h/wnXyZM+xfN/2rt36H3NU7733KkGQ8tX2lplpriwUSpSBelPx0tIvm6+X5NQqLMYFyJhIbPXXcpxtuM6/CxE/jCd37szsfbr7oUk8dbZu3jLW34+bNvwDBp5veoEQlbP4f5IiHLkAzkpiq4EZVWBs+pIpnA0smC9n8vSOlY5BKlurjlm5dkRYTDCKCUWYWCDMOCrNY0EI2o03wysdRmNSyS5QwUMq4gWFAIY8KZQ+um6wsXREgWTDF6PZreNb1Hj/UrjbqBUQMJIws6hK/qSVwtnq/yKV+H1/4p9Wv/vOWAD/1/zw1Xu/nvRzpM/OGF5dh/4oQV+e/mpkvwsu4+xTZgH8tCjlXRIiIsLjhaGgOo4nzC7Y84rtsvPQtX8VH/9/wYW3buAcAwa+okQfv/wVOvYPvRk542LN+jphg3ke6dwX++cj5Y+nvIlZbmjJv4YYgR9TlZ2yMG1+DyedP5V/CVUjIZxxaAiJoGpaaVEWA7nxMACNH7jIZJYkdFZCbPYpDHkhEGolsTJMx/qM3+vEWATwMUGb+o/c+ZPgVf+cSH3SvtOHoaT67b4L0ogvmXZ0TME/JV26rzhe0saGkSOE3QsSG0Fk4YhdsvPRvlHNb/86+vcMl949N3odIOCly99xD++Po6N4U683vktmmafmRAixWIFg2gFfCcJjcMxawxw/kXdTW69VgAKGk7K/O7AqhJYcAuE0w0aE6hIKceOQJ8AIXGcw/R6gWmX1T04nQQPxEsJyTTa5HIDN9f6ZH1uVc2yr0y1seDAwMEAR/qX0gKoPJ4RdwAL1B87ROe6f9ASwq/f/FNHDx5ytb+5TKxLKC8rbQtF6RJd2yutBCNVmWyDHdcdjbmjB0BAGhubcN/fufHLijRgpnTsGSeVQWQMoafPbscO4+e8hcRyuc98r72fMwXIwWg5X/mSV3DxXOmiuh/b/9MSX10iVJZwBjJh+We5Ef/VfjTKGOAacIkBJpuIkF1ybhKuP/n2ega5ipg2d1lcS0CJM3EF9dwToh6289QI1yrhFIRSjYrIo35RX5iabX/NIA/XvQ/VQQMin7/BbOmYcGsaQAAkzHsOHYKT6xaZw9MU+Sc2+llRFE2lEiLisM8VP1EUWSG5IEWHzMA//bbl83Fe89f6pL9z3t+jPXbdrgKztc/w6X9rd2Gv63ekp9xOWNTjct5GPmaL94FkCkt1RjlZ24vYyPqanH5fMH8/0WU0ZL69mILQNjazXgrAIXJAJgEumkFBDJKwTTNlX751N1eMgAUPA6v940v/EdYyJvJ/Sn5LQcRJIpokkNBhYCgYZTQMCOJh7wg4DJuXvvnAv2oBPzj4P774wBEYeKrnPZ/rN3AH19ZiwMnTwEJHekj16JEtpE89edOa+Lwetx5+Tlumd8NW3fi8WdfduWrMxfMwfyZljDUlTLwm1dW48jpFu7FKeQ9spKbr/BjGSaPqMccEf53JczS+qZiASAD5soYAyWmCxFs6DqIprkaTGSGELcslvsSHWUcO9CrTdb+BbCeMMhfqq7+J5/HP8dFc2YIFf+2Hj2Nv69Y6Wl7LIuXpURfkqSu48MXL8PZUydY1g5K8YV7fuwCIAGi9v/46s14euP2+IUMetSahvNmTkZtpVscah254ZOtpTbOouMAEKV5Oww5PRqqeigaf45Q/Y4Z0TQsYYDZQURWZT0UL/esH8gepZEem59aDoT4KZHAAwN+Rf42SzXINUj7d7RVVaS/9d0GlQL2a/9f+8Tt7jVaeyj++NIqHDx8BEgkFSY31TbjnqX0UvjvyL8tpTeGXwsR+oNpXTBzEj586Vnu3i/e8xOs37rD9W2fd8ZCTJ9kCQen2zvx4Esr0djWUfBxBdIS1lnm30/Qy+MSj60tL8M1i2bxF/kcEgS+X2wBKAGOR6Id4/jNGbMAggxiWKmAiQR0NyOAFD/eLko8BVNrsaWl/5MSfM+ixQ5ENhuUiPUik+MKqsRmoCXLqXtwGL27bVvtlOZ/Jvj6xXsjWDRnuotx32MyrD5wCv9Yux6oqPAOJByTdoN/WHg/pIh3RtT9wnbU/uxo1VQk8fnrL8aQ6koAwI49+/H7vz3FySAMX5cgf5/btLPg4xK3uXRCoR8eloBMiyL4uoTlaVzqZz5n3EjMtgMp7fY6yvSSMxXGLoDILMCrE8AohWk6wiZx/2pa/6r+F7e4laLW72n/nrYuBwAKBX9oGPqfaP532tc+6fn+uwyKP722DvsPHwYqKxSlmHNB+gnpJ3mkFXCsRghuPWcxLpk91d37n9/9iStQAVb1w4ljRwMAjja14kdPv4qunhTyh96T6bFRabE80srs2KsXzsTgqkrnnxvJuz/bVIrfVAkIAFEK6bDQM3sL5kS0AFAbEMiArmteyVASffylMO2ljGOQLr6xOPA2pFeps6Agg95VyyPPcqFjIty0W5be/y8zfRX2vyhAWL/Z0yZj1pSJrvb/+r5TeHTlatv0ny+rY5iZOkJ/ntrMUQ349DUXuv/+6g/ux5vrNrlXnDVlIr7Olft9ct02vL7zgFX9kMZBL6qmacDbzpjL7/qobY4oyorVRywAJMu+iEeRPAzPdc1Z0jE1AapTa2GhFAwMxP5/bzCLgj2JqFX+FP2kQPCz/cm2QrJ9NfPOXUne3o9Cv4DMLY/r1/7Dcv6p/fMggIPrALjaP+f7T1GGZ9dsxZHjx4BkkjMf2/Pn21blwSuOlXPIibQt55s7/ZSlp5Xuuva+hKbj4285D1NHDAUAnGg8jV/+6XF3fQOAb3zmIxgxrB4AsPt4I3763HIr5skNcMn/uMLnNgNaGtRz6yIj5nNc3jNfNnU8powYxr++ywORYmMBoK+t3MTzNWoUpkntgkEmNNP28RBNCTtdujfF+v5j6QtTXch7GyDpCP5cfQXzF8z/1HIBBFoLRO1/xuQJXN4/8Nr+03jguec97d/xRwtwvtK2gMQXcGwJ0Lp+yWy848x57tx+8bs/dS2ZDIBOCBbPnWnNBaV4+I31WLHroFj1Ll/jSkeL5ZsWy/O44M7LjWfMR1lCQPvrASvNuntxNcAsdVAn35hSSwAwDBOGYcA0rQXHOsNxGpA+cG9ZWjFJ/yq4E7dMvgUS+f3I5R2JBPsLObofAWmA0bX/LoPizS270Xi62Qo0i1JNj68dnHNlPvhpOROpcSBTWdCqKk/i09dcgPqaKgDAzr0H8NTLr3tooozhsvOXuXOx89gp/OLFFRzaKIs+H1HG1ddp2fMyrLYaF86a7FZQBPAaueUzFCK4pPeLLQD51ILyoQoGExGFPpu920KAYVgZAQ5UMIjG+SvVEL2h0L0lJxCQiOf4zR4h5d0zU1aD/AvcBQhjoVXy+qu1IPy+8lBmEtlAdbJIRgoi421EEAT8sL9MEA3cst0Rgv6cf2ucxssAvLKvCQ+//DpQXuaZ5YkGMLuyDuFNxE4/Z1FT9SuPJSHbCKeladHGJdH6yBXnYPHEsZz2/xMhhXLmlIn4xqc93/+DL620C/7wtJh4L67rAtJ+eGNRjhHR5iPyfEWkxY+L73fHmOm4gDOnjMOM0Q38a3tHKa8bib680EU+kOR6Nb/X1vUG2IsNYICkCDSiQdN06EzzfFBZMPnCVu7LlxWARLJI9+4LQkAYK5Jjo7BY+xm7A1ipfa25D0jM1ycOAADAiJDu5xysSgOUiwI57S0XnYPOrm5UVpSDAFi7Yw/WHTwA6Anxfojmv0fG0FcQABeMH4nbLz3LNVOv27IDb6zbKDyfr3/6LgyrHwwA2HH0JH767PLo1yJRFYkizhfJ/7gIAd6xbD5qK8p5whtKqfyv3GIXQE5rm8VmXFAgw7DdAKYXGMh4lh7byuMWt8wYvir1jxcERC3eMfV7wX/wmf+948Vrfe0Tt7tV7g42d+GRV5YDmu7lfTPOdMGD9AjbjDNjhBwbiRbyTiup6fjIFediUoMV2Hfs5Cl88bs/8YZtZ0EsnT/bnad7n3wZze1dBR1X2n6UPq1Jw+qxdPJYsfjPLZ9lYBoCf7EFoFBqUOHICyA1nA/SKjZigpomTFMHIZovOp4nnA+BQKbB+oRhOw8PMcyxbPcRlatAchd4zzNYvs++KkHhigFFKgFRoIyMPBlqAu8myG4gVvCT/P7wGD/P8H3aP/+NEE84mDVlIupqawAAp7oofv/GVqw8cIjTFjlzr5ORAG6b8fshFrLh4U6j0JK3VbQEuhwtje+XzwPeumQm3rbUS1H74nd/io3bdworxzc+fafb//L2vXjojfUB98Oij4vfpxojsS0rzj04woNvniPMV7pxpaPFj9F1r6Qf11sWzsS0UZL530iozVhFNZOWnAAgLrNZmflzMk1mfpTgT2aeFkIphUlNaKYJTSPQ3FoBmn2XLGNemA8mTyQLBOu1qnvhM0miumpYIPcI5zIRuR/J+s0pfjGg6OWAe3VYOX+wjBPQvHeWCbC/Qal/TvS/HBvgRrm7aQQW9fPOWOhed09TN37/0muAk+7mvn9y9LtkLubfN18UOTy/M+PfTQUt4VoBtBBhXES87tDqatx+6VkYagf+7dp3EM+8+qaXUcEYqioqsGiOFQdhUIqfPrMcp1rbFZH/aeYjaj+/9Icd67hdnDmkLLfrpusPOpavCOiMgVnY/1fOn+4WUgKwktz82Q3QM1gXitCKXwugr6YiKoKgKWOgphUQaKRSXlYAvyjkRYCJW8aWgiBwgwgh6rlXBYhbLk2V+ifg/YcU+/GZ/93gQdeZgOqqCvy/D7/Pvd6uQ0ex6dBhruY7uIAwxT5+W7Pzz0FsLTLk2HS0CLj8deRGiwG3nD0fF86czGn/PwGEmQDe/45r3f7nNu7EM5t2cEyYp8ui3wPS3UMfpwVgycQxmD9+lKj9EwOhP6RiC4CmaTV9n8nA9QmZlAKGaenbdlaApml5Zf5xLEGBBIV+Xs6v1Mv9phEDQHzgP5Kpn/L4/5JFQGD+njTBGHDzNZe7V9ne2IU/vvgGelIpK8KeqT7afAXuMfRWEODccSNwx2VnozxhLfnrt+7EG+s2WbNqz8WCWdPw/273BKEfP/s6TrS0oz+UOi4ILc61c83i2Rg3dDD/sqwB0Uv+A0wUf1EiiUgBmXk0P0bmxVEA/VxwCie4yKoTAAJohp0RoDPbHWan/xGWuYU0ots8myyD4ktPUSaA9cbLqP4wQz7crEYcBtpTRECfqBbJ3hiWP/hPEQOQxvSvTAOEB3TDAMyZNgmfv/Nf3GtsOXQSL27fDi5QR9SAmWKf3M/zd42EHEs8Gyxl6elm2V9RlsBt5y7GnDFWcZrm1jZ86d6fCnj/DBAK/jy+Zgte3b4PLqJe0BhzGFf4sdx1w/plCPaCj8u/Pby2BufPmAhdcw3qr5N3f9L0MxopIIzSoq++cRZAnhZOHqPcBQeyEQIpNUEZtbSUfDCygWiTJgP0xSrZ9733hseX+3UD/iALA+Ci/6lg+ofM/Dl/wlc/6QH/7GrqwaOvr0Vja7vnc2ZB1j6FlKeqBRJWiVYQGJyAP8L527OkJfUvmTQGt1/igfr8170/w4ZtO4XDzpg/B/NmWAWBOntS+PUrq3CytV2kJY8xx3Hl5R7dsSheyHTPKU+VjM+fOQlLJ4/jj74jreSsKkU5EAUARmlX/+BOXKgShxBoGgaMlAHTMNxiJLblIzblxxJA3EK0f36V9TR3qeofU/n+/VYCMPgAgxbNnoEFMz3Y370nm/Dc5s0eEEw6hkECGH8mloIC0xpcXYE7LjkLdVVWGeNtu/fh8edfkeYF+DoX+f/4mi14ZuPO3LXoKPdYDFrIH62q8iSuXDDdnV8AG8i7P7sOTAeYDsvIbv+YDlANMAlgAEjFLgCYjLVrQE1+1vf0KH4ZnhZ1yRKJuJZkSwhIGYZbNljXdTczoFdS9iIW8SlFFl+0z4OQ8PlL1+90MXU5COF1k1MT5Tno1WqAmTs0wt6fXIfkMnNHCCCSRh8J5tcTCLzUdIvGVz7xYfdaxztN/OnVtdh/9DiQ0EX3X5j2qNoOyiPNhJaTckYgZha4KXPw56UraF0xbzpuWDrHvaRn+vcGsXTeLMyYPAEA0NTRid+/vg6nO7rS3wPhxkJZ9vOFCPNFos49n27JcqMVYVwzRzfg0jnTRO1f09QfCbOLJlHqbQ90AaBw63yWgQQkt2t675/1AVtBgZYAoBELKRB6MBxwHmWefqf/97lbjSAnZOTJKZFqgL0rsHr5+zxULVMJATTEGgAmVLmrrqoUSv7uO9WG5dt3iXj7vCQHL87H2yZiv+/YdP0RaWlQq6GEj1b30xpeV42PXnEOqsvLAACbd+zBqo1bRbAiSfv/54Yd+OcGO/JfU8xB0D3yY0wzrqzmK+O5LTwtQjScP2MyJg+vd2bpMLntP14NfKEZLOuSaXq/WADoj8yK2BgRDMw0wRgDIVZ1LU3ToOkaiEb6CGhP3OLWi9qAIvjPcfiHBf9RRSYAz/glnuf6uwHgVJeJv63cgk0HDtjaP19kB/5qfDzgj2qbIbw/r7RYAC3gPectxnnTJ7r3+UVb++etKmctno+ZtiDU3NGF3766Bu09PdHGhbB7YJndI6IeWzq0Rg2uxbWLZ/Gv78d9qgmj3i5bGYRpAkYsAPjaqOENSCZ0HDh63Ko53Vd1VdtU5yw8hNplg3UTJjWhm7oHF0kKYA0gmZ7ESnUmc56CWMTKl8ko8/PCMiujGDMsRu58R4SrARAsEAQVAAL3F4zhq5z5v6u7B69t3oqe7i6grMzTsh0tVgb3kc3y8rbPXBx0bB5o8cdoXvDgqCE1+PgV57r3+KV7f4Z1W7YL2v+MyRMF1L9/rN+GZzfvlKrchYwLIfcgCFA50vLNR0Ra3HxAI5KbIvd7XDxxNM6aNoF/ZZ8EM8WX3/mZFKA246em/W+KYofhJUpiPSLAnKlTMX2ihaM8beJ4rN64FadbWjNiCyTf3CRr9uQvb8YYtaCCbUGAmB5OQKlxqyDMnFJjYwMhLDByHT/VA2K9PSr/AEgGcMSMMd+3IwT/udH/zBMGhJgA+Jg+JM2fAVg6bzYmjR0NAGjrMfHCtkN4dfsOoCzJldt15k/jmJpiXlXbUaLL80WL93nb+zSN4KNXnOvmpR86dgK/e+wfPu3/7k/ficnjxwAATrS044EXVqK9KwUBhTDXccnlHYs5X6rYHaKQQiPQqixP4trFs133CoA15NZPtyulW8fcbxgW06dMLBtdxFYSaYCzpkzGdK40ZV1NNS4+awnOW7oAQ+vq+uSiLetLjPIogQYMU8wK6POMKqT2e77qwsetv4gv4bILj/wHDuef4/d2DJWs6VPJ9A/R96/Q/ttTFE+s2IBUV6dV+AdEwuDnP2oixQgEcaDiSgpLJo3Bv1yw1P33f33vZxyTY65pe+m8We58P71xB57fsjP/4yL8AoACS0O9R2v6yGG4dvFs/obucFd+Xto0qfUzTMCwtymT4IUHsAVgcG1t+awpE+ySumIbXj8Ew88cgs7ObuzYfxD7jx5FT4/RBxdCa1EyqQmYnoTgoAVar0Ke3AB5WahZVgt3qbOg/uQOKJmMiRwtS6HfDMTgP6oI/KMC0h9zvzUh7Y9TQhfPmYlpE62c7S6T4aXdx/HUmlVAMslp0nwhHubH7nfcAoSH+g3ye8v9KloIoUUyoqVBw12Xno2RdbUAgH2HjuLFN1b7tP9zlyx0Z/p0eyfue/o1GJQrsxw6LmQ8Lq+fZkfLnY88jEtFy93WPL99AK2ETnDVwpkYNXiQM4W7yHv+4w23aJAroVJPAKBe2WrvA44FAEydOK4q3fJWWVmO+TOmYP6MKTjR2ISdBw7ixMnTVoR90DTmBU0w2KMcFJVOpPOFYyiDCQsmWNd0UJ1Ch+4GDZbOSk4i7stusecBsbI2gASZEzIgGJTp1X917WLcpy3gEpZGNLPcBYwyz3WsMOmLKX9qMCDZBcAj//Opf10pilc37kBbWxtQVeWNJRDBLeAF59O+CFdBDhCDx6LQ8pmpWUi/n9a1i2bimoUz3H9/6Xs/A4P4ojMAd3O+/yfXb8PyXfszGBfxz1PUe5S/W8JVDYRiYVCa7XMcVzpa7hjVKJ311dX41wvP4Hs+LhxHme3nd3z+VEz5KyHFqegCQMPgukQmy1tD/RA01A8BpSb2HjqKfYePoqWtvZeCBjOLP7DQPolo2jQtIcAwDWimBp3qoBp10wYdkYGgL2QJ9LJ+nY3JQSr/S7K4k76obfddEYW3VHuV/1zfP6Lk/MMH/WsFvY3HTDvfvdtkeH73Kby4YRNQVo7gCFoiQvf6GBzXDy5qn4X1S7RYfmglEjruuPQsDKutBgDsPnAIr61aL6ZBAjhzwRxMHGsVrjna3Ir7n1/hYR8VYFzZ0eJM6RldN8K4cqR10ezJmDZymPOCHCPv/swT7ovL+/udbcZCFo4BHgTY3tllDqqp1jM9T9N0TBk/FlPGjwVjDAeOHsOh4ydwsrEJRsooyWWPRyLTDA2mZsLQDbdgECHEyw6IOU3cBmhjPuS/oIh/EfKXcsGBrs7PBRB+5d8/LEgZ2w4cxtrduwEvkMsv6RF+IwjxJxdou3zRIrjtnEU4a+p4T/u/92eCAOS4Re7+lKf9P7V+O17ZvrcP3GPm85F3WgQYVFWJ952/lH9Lvi4A+1BTTPVzFNMSMfmXnACwfc/+zlENQ8tyYa6EEEwYNRLjR420hIqODhw6fhKHj51AS0c7TJNGpBTOdfOZZUAphWEaIIbF9BOJBHRNd2MCVMPoj9DBJAg1rVAXK1axnWIEIyjcSkUutxSg8VuLrKPBg7MAEPfftnZPA0CAgiwCNgPUQLDYrnPPGHCsvQdPrVwDJLRgxkVkDZaIUe7O4WEabOCxEWgRhSYa0D+irhofuGCpC0m7fc9+vLF2k0/7XzBrGqZPsoSE0+2d+Mkzy2Ey5lU+1CT6TgGgLMeV0z2qrAd5ma8saNnr8plTxuECrqQygF+5LxWjHsofnHO0cAGgyFAARRcAjp1q7Dp49ETd6OHDsuOkivWupqoKMyaNxwz7RW9t68DRU404eboJp5tb0NXTkz9OnuEA3WA/ZmcFpAxX89dsvyGxXzomxBxkXuWvd10IYRn4YUZ0SQIguWIhEIVkkT2vzjkagvTuK5bZKy1FrPCV94o6QH/hHv6vF/gX5v/3mDGDF0BofWvAP7Ycxms7dwFaQvQ3Cz57GXqZib5h1TZ/rso/LW97uXtiv2OTF+IAgq9705nzccYUL5PK8v2Ha/9/WrER6w4eDbgHHn443f3m0B96bMDcszxcN+q4hGsRvPuchaipcPXVteSWT7a4Of4ml9/vSLIknYhdXKWuJKCAV2zYhDPmz8HohmEFuUBdbTXqaqsxw47+7e7pwdGTp3Hi9Gk0NjWjraOrV9LxCIfjzRiDaZqWlmMzf03ToFHN5xaKiwbFrb82+bvjI/+ZkAKo0vBpgP8fAgQwwHDZuWe47rUDrSm8un4Tenp6AD0h5oKrAtAEQB4mIgVCtS1bBBTHMul6OdCaOmIY/vXCpShPWMv5hm07sWrjVp/2v3juTKHi30+fewNdKcM/LkjzEHYP6e4x0nxFoCXMRy/S4qoMzh07ApfNmcq/rndYiH6GgvkjIohHLACAMYY3123C9EkTMGfqpIJfr7ysDBNGj8CE0VZ9bKIRnGpqwanTzWhqbUNzays6OruRMoyC3jNjVoETYhJopgbNsIUA+z8hO6DPhar3hRzBfKQjxC1/3wNn7ucgfC0NHkrcfxXyH29BcH5L5s50r7XuSAv++OZKC/aXZ/yQmR/zGIBKOHD2BcHKqvqj0pL3B9IC3nnmfCwcbwEbdXR24b++93MBBMkRpr7Oaf9/WbkJGw4eTT8uStPfQ7b3mCkt/rvtTVp2+9cLz8CYegGX5k1Qw9L+KbWtNlQs2lTiLVEyzIIxbN+9F8dOnsKSubNQV1PtW6cLyXOGDh6EoV5epyUld3bjVHMLTje34nRrC1rbOtDV3ZP+WhHh2ywfJ3FBgkzNhGZoQAIuSqDKHRDVOlA8d0AfFByCXjKS22hV+A6+Z1YqOXwh8RGkV4ZkM30uXS006p/6g/8EHAD7v9EjGvBvN13vXmXznn3o7ukGiG4t2kTStiFr3lC7loJSyML6+W1NS/8cgpiW3eaMacCt5yx0//1f3/85NmzfZT8+L/1x2cK5mGUrV61d3bj/xRXoMcz09+BLcUwz1lzmI2o/H8sjz40z3qD+TMbF0RpeW423LpoFzet/jbztTurm+jPKPS/+g1GlE8YCQGBrbmnF88tXYtSIYVgwYyoqysqLNpbKynKMrWzA+FHDhf3HG0+jpa0Dre2daOtoR0tbB7q6u9O7ERSucGcxM01TgAUmCQsroH9i3sYujbxPISvOE8plGHLhH8b9j8ft9+f+R0gD5CwAS+d52v+aI2348+sr/cxXlQXI+7+j16PlZiLn2rbcOLh+e46Suo5bz12MOWOs9amlrR1/feYlz13iUNEIvvGZu9zbevjNDXhz136ER+tHqZPLHUuIcozRaJEc5ivdPeRyj/Y2Zbj17AWYMGwI/8bcAYNKOf7cYu0z85emAlaS1QAZpTh85DiOHDuJkcOHYu7UKaitriyZ8Q2vH4Lh9UM4oZG45reWtg6cbmlDc1sb2js60dndhc7unlB6DgqioyUSeNq/zvS4wk3c+n1jjGf+8JfyDSv0A9Hv79bfgFX17/1vf6snAOw9inWHDrlWR+8v/FXfIPvASR793hFo8Rqs0G+ZmRdOGIXbzl3k3tvX7vsFamqqoWsJJJIJJMrKUV5ehlmTJ2DKeCtA8FRbBx56Yz06elI5jItIlpOwfuTJH096L07AyYSw3R/Daqpw4xlzUJZws9XfJNd+cL3ll6KSwJiprUwv6ndXEgIAjxnBzxWjFEeOncSR4ydRU1WFCaNHYcq4UUgkEr04suitqrICVZUVGNlQ71mR7MWksakVnT3daGnvQFt7B7p7etDc2obuHgMmNa26AE5AoKZB13VL89EsNwGC0uXCosyZaIoudZcAyaCf9ZVBc/OfTZ+whBAWPAH5npwwvxtjBXhGfLEfgIHYQX6EKwTEwEC9LYXv3wO7tba/8u8fxNzpUyxBmzG8vHEzunpSop9X00L814qUNshlehVm5KD+TGixAFqahsqyJG47dzHG2T7pE41N2HHoOEaPGQvTpKCMglIGShn+/T1vd4f22OrNeGX7vuDrRh0XnzYY1g+W3T0Gza1MC/IYEFJCOR0t4tFyXmZK8dYFM7DALprkav+UZRg3VJqg5CVpAVDlYbV1dGDTzl3Ysms3GuqHYMr4MRhVoKyBQrT6wbUAauG8RkQyQZ5sbEJXTw86u3vQ2dUDRpglHDAGw6C5W85ltzOLzfB9rUUW4PqApSjI/M84IcOr/AcF7K8i8I+zGoABQwbVuszfoAzP7DqJF7btEAUZOQDUxzBgpaYSjUtRtTHtXRM982+r9vn6kcGx4r7Zo4bj3zg42p8+/DcxFsKer/nTJ2PKOCtAsLWrG79fvhbtbhxT/sfl6+dxnXOhlfHcclUd3Q+CBoxRg/jA7X6TYnB5GW48Yy5qK11X9DpyzYdWgxFJa83ke4sFgKwbZQzHTjXi2KlGJJMJjBw6FKMahmHsyAYRRa+PLOnOCzF0iCXJ65qGhK4jkUggkdCR0HVomobO7h5096TQ3tWF7u4U2jo70Z0y0N7ZCdOkaOvs6jeVBeM2sBoP/SsW8Qny8Qfk/nOLKwOwZO4s9xq7W0w8t24bDjQ2+z8/EqZ88IVjOObAOGap2o7SnyWtiqSOf7toKarKrAJGuw8ewaqN210BgLeM/Pt7bnRv56+rN+PNXYc4E2t+xxVICzR3WiCZXTeUVsCxFACxlS2TAdTARbNm4OzpE0Xt3zRzFLb5g2MXQNYtlTJw4OgxHDx6DCs3EtTV1GDU8GEYN3IEakooZiBMnxPLC1n/otQKCuTfr+qKCtRWVaGB1LkBPp7F0Vu1Gptb7L+tAICmtnZQytDd042uHgOMMbR2dA5QDbr/VAcMqxVRcFdPRDTF6AGCzMf8g5m+bPL3hsFbCwgYPnfH+9x+wzTw7LqNMHu6rNx/lRVA9ruHSgYsneQQoT+TY719y6aOwy1nLfC0/4f+JjB9x5Iyd9okN9W5sb0Tf3h9PZo7uhTwm/kZV8bH8m6WAs6XwKVJSFYDo0IVv8oEwduXLcCwQTXOEVvJWz7weuDL3gcXlEQJrGSKycs8BpkxoKm1DU2tbdiyay/KypIYMaweI4bWY9SwoSi3peVoS1Uu2nzwYhwmBxIugISBeZUOCQEhGpjOIg2zvm6Q8FcLQYFrbe+EYRroSRlo67SEgqaWNlDG0NXTg66eHhAQtHZ0pFvri87M+6AVPE8iZJHjOTKIFfD4q13xz2f+9/7txQKwYLAfyC4A7+yGofUYN8pifq09FGv3HsXeUyct37RPs+dWcFcjlIIB3fKEDvPi/jLqlQHmHdH8Pt+26rqKY6X+ZELDHZechcE25O/+I8exfe+BtNr/0xt34NlNO/M7LhKRFoekJ95XJrQizm0YLUFuY1zpX4cmtTR/ZuH5nz97Bq5cOEvU/kPLnEZU+ksoCyrRXxfHnp4UDhw+hgOHjwGEoDyZxOC6GgwfMgQjhtVjcG1NiemmnGbHmUAtlEACXdesgEJOgs1V6OQzK0ZgSLDAYF/TpCZa2ixhoCeVQntnl71toL2jyw3iam5rd4WX1vaOGGOnRC0FvS4cqF4EhfkfgeZ/URCAhPynJ3QQkgRjFGfMn+Ne4nBbCk+u2oTTbe32oh+wMEvovL6sAIeRyKA/miZuO+A5gBogKIxWEJiQve/CmZNx5bzp7pB//sjjoNSv/c+ZOhGTxli1UZo6uvC719ehyzC8sQaOMYNxId2x+aTFggGXsqXlVpBlXtU+agCGgTJNw/VnzkNDncsntpGrP/wCiJ5nG2JxF8fEQFkIu1MpHDt5GsdOnsaGHbuR1HXU1lShvq4OI4YNwfD6eiQSehEXanmtZKAATEqhmSYMw0IG1DS4eObO8t5bTdd0DBlU6/5b00Ii2xWSMmMMzS1tnlmWUrS2t3NmWormtg5XszVMwxUyHE231RZA4tb3m57QUVNWbmP7W1Hr1eUVMCm1YbKB8vIkUoYJwzBhUopEIokew0AqZYAxCj1RBsM0YZgmUqZpRb4zhi997APuddo6u7Bi5y4w0wSSSSntD8Gp+7IQE6kePSKC32RH69NXnSdo/5t27vNVQ2SM4d9v87T/13fuxz837ijouLKmFQJylBNYkGpbhVBIOfhep3wvpVgyZTxuPGexqP33w9ZHBIDcPbey2zJlmmhsbkVjcyt2HzgIAChLlqG2ugpD6moxZFAt6gcPQk1VVTQ9i2R+RyyK5YgxVwgghEAHoOsaCDQ7e4YUcK7zK6ESQlzXhNOGDxkcOglaBIS+7u4edHT3QJNG29Ta7lM6DWqitb0j9BodXd3oTqWEKSBEvDBjDM2c8JJ2Olkhvw4SuV9P6Kgurwh91Iwx1FZXQtf1wMMIIRhcUy0wUMYYKisqUFlRBkapZG2qtgVGz6dP7XfbNBlMasIwqcXIbYbf3ZNCj2G5qNyfYUBPGUjoBlKmdRxlVrqbM/6z5s3EENvCd6rLxAtb9mHnieOAril8/VDgAMhWC0mjlPfJ/YTTfikNPzYdLXjBdFfOm4bzZ0zitP8nLMFJ0v5nTZ6ASWNHAQCaO7vw+9fXoqvHkEzjnAtDHmO6cUEy76e7hyi0KMsfLdW4fPcLD7+fUWG7Qtdx4zmLMHKIu1btJFd9+Pm88aUSsoiWkADQC3i/AZZJ122Q6sGpph6camryFkxdR3VlBepqa1FXW4OGIYMxbMggYVHNNvmApGGWxM5TtUoHm+5JGiGAzuAPJByYrby8DOVSTXeNaD5hI8w6EbWf5CHvP9PxBAmGURuNeGwYzXTXS9dvcgIB43P1PYe+YM93q/5R7mf/m3HblAcDsrEB7rr5Wk8I7DLwysZtMHu6gWSZhFAnq/2quvBIX9FRKSFJmmfYCxSBVrmu445LlwmR/5t27rVdIaL2/3FO+1+55yD+smpTeNyiDK2bblyqRSeTEprKeEqirs2RDS2k6XfeM1vbdzV/e/+kMSPw/svPEbX/tIJ831yJB4wLINtmmiZa2jvQ0t6BA0ePufsry8tQWVGB6spKDK6tweBBNairqUG1bZ7LV2NgNtiUJaUTzYTmlA/WcpRA4ha3IjUqwNV6zMvxZ1Mqlv61XATU3ZZjApzywKOGDkF9neWmOt1N8dKOo3hz7z4R7IdHjOOhbOV+Z2GXa8jL+8JqzIcey9LTsv9eu3gWLuTq0P/84Se4uYGr/U8ZNxpT7cJAbV09+OXLq9HWnZIAdxDtuqHHqkCD8kgLeR4XA6ftc39N0y7lawUBJnUd7zx3sRj5f/WHn+mv32EsAGTZOrtT6OpO4XRzKw4dPe7JgRpBZXkFBtVWobaqGoNqqjCophrDhtRBS1cEhnnaI+MwtT0oVApqEpiEghATILptKUDaokGlZMOJWxEfDOv9CzM3qpyCz97jwX0o9zOp/a47TJ9a8QHWd0Dd42ShAYAggJuUYfPegzh85BBQVQkxglwRmS7sk3HtFQYDILwcABAOpQ8Cz2/FAmlVlSVxy1nzBd//tr0H3Ps3DAOdXZ3o6uzCnZ/6kEt9zb7DeHL9tvQKK8niHgtNi3AVoeS5DZ17rn4CD80MpjT3w6TgESSnjxmBd110Jj+ij0FjEb+fiB9X7ALIxFSaHVshJGcSUOeUiu+X79lSho6uLnR0deEoGoU+XdNQUV6GmupKlJeXY0htDaoqKlBdWYFh9YMlqyPxWQLA+U2JaVsBiAaikwJaoUjgM4oZfiwMZGoClc3/QXn+jtlfEA54VwCzQIEpd03L/H+d++/m9k6s27PPrvoHUfJQToIqDSDCYdn2C9tEvCTzhI+3LpyJizjt/+4fPYg9u3cjlUqh2y5CxhjD9EkTsGDmVFv4oXjw5ZU41dbpH0/YWIj0gqjS10hAf67z4dtHAsz9AdfltX8mmJtEU7/D/CnnfoLl7n3buYswc+xI58yT5K23P23DCWb4/bBo3yBobAEYMGZPStHR2YUOO7L9gCRFlCUSKE+WYVBtNcrLrIDE2qoqlJclMbi2BhXlZW7hIOdFSugWrC+J3QBx6yvfQQTzv6P1U8EaoMD/ZzY9uzre9AkW2LZBGXaebMHL27cDZYkIqWMITzMrUqssS+DWcxZhaI0VjLxr/yG89MZKq3YIlw4JBtz9KS9QffvRU/jj8vX5ldRLfYmRhSdnm9pM3zSsv9T0YgEAF2lw8sgGfOCK83iKd+RB5i3pFgsAJdR6DCvKua2z03MDOGZ9YgW2VVWUI5lIYHDdIFRUVGDE0CEoTybRUD8YGiEYzKXpxS1uvbuA+Ql6azHL0Pxv/TWZJAhwlgHX92/TnjJ+lHvdUx09+MvKbehqbQb4TB5eS4ySOlbMasAArpk/A+dNn+AO6Ss/uF+qo2CjbxCCpfNmuft/9vwb6Ogxcqy6G2CGz4oW8lcN2ClCFFYZmNfwqQkYvNmfcYBH3jnvvfQsjB9ez7++f87+A+kbkkGiL69EhORLMM3CxF2ApAXZ1E5AwAgTCve0d3WBgKCtswvJZBJHTpxCWbIMiWTCtQIQQlBbVQlCCOpszaG6sgIVySSSiYQLADR4UK0/l5/kdg+998aQjPtZXEfZb8EMim4ugKvAKXbN7JXaYuJEbf6XMgDUgYEifDAf/Z8yDCzfvh1IJhQofgHof3I/kYSATBg70jC9dLQ0gkEV5XjX2QtRb3+vu/YfxJvrNrlWE/7ZXHn+MpfshoPH8MiKjeHLa9RxuWmNqvM4hD3KMr/HTMYll/AFguMFHDhfG9IX1I72d6Il+TRN+5yR9bX418vP5VOCXyNX306zeMEL9wHFFoCBuGATMeCAARQUoIBmajBNE6ZmgmhWGWFif5QtNnxvU1tbKFPUCEFFWRLlZUlomobaaktgqK2qRFnSej3qB9VCs9EAh9TVFmsiBrZyXcwxZnQz4Q9KYNpB5n/B3y+a/6nK/M+s6PfJdu57t0Hx2p4TWLd3L6An/YxIZkpOIJ4GyyXriyxn0QrnQDo2XX8YLQJcPHsyrpg7zZ27L3//fn/NBNv6cfen7nSP+9XLq3DodEthxlUsWmHHumyaAiYsKF83wt8ADKdABHeeZm/bf//tivMwemidQ2g3gDtgZrjoZPXBx0iAccvkdXE+ertgkJEyXCFBtysHakQTYgLSwcF29aSsGukATre0qVOVFTsH2dYFQgiG1HjQyvWckODVJCBIJhOorayMH+LAe2tF878EBuQz/9uR/475n3FIgXwKoEkZOjs7wSjFnTdd42n/lOHxlVsBwwBcfAjeXKjaVuyDlCoIvmgQ8fe71gIW3B+RVl1FJW46cx5qKqzxb921FyvWbxYrH9p/Lj/vTLea6PajJ/H42q2i5CZfN4dxBdJieaQVNrcqWsyWAHhUP8Pwovyp6X+mHK3xDfW49eJl/At7J7n69vVWob58APyE0ChuDGDfEAAiFh/L1PiZuXKZBy0010pthDNJMmYJAYQQwfxPYP3bKrpCbKsmyQicJkprbfeqCjo1Aggh2H/sRCRzfXkygcqKMnfs5ckkKsrL3aOrKstRUV7uxuCWlSVRXVHuC8yqq66GntBK39xeJGNGpKJJBRgU/612dHWhu7sHlDEYpqXVm5TiVFMLjJQJk1oIgKdbWtHdnYJhWEh/rW1tSBkGDNOEaVC0d7QLqYHUZEgmEpgxcRwAwKDAGwdb8OSa1Zz5HxJqHCAU8pEQ99xjNT6PPGqOfwb58SG0zpwyBjcsnu1p/z+4X3yRuL9f+tgH3ePuf3Eldp1oQiDOQI7jCqZF/IKV40KhLHfsAXDXcPs5AATTFIv5OP5+JtEHfM/pA1eei+ljRvCv7tMgQV8Py4bFZHtgLACECQMla08uAFocT5tn8CY1AcPeTyw3AGOsT8Sg9BgGetqMUCtD2LSGHZ9I6Kip8lsbqssrUFYmvvY8FHAioWNQdVXaa1RXVqAskUz7QmpaZu8BIUBdTQ1ShulWaEzLXcPM7YrW1tGJlGGEkjBNE02tbaG02zu7kDJM4VqMUUEwhAKnnjIL+pXamP+UUhiUwjStf5uUwjQsfH/T/VlM3wEP5HPnp0wYzY2LYv2BYzjZeArgrU0kANmPEP7DUi8yjNnCABOZj8NEmKT9k5B+X/lh/7GDqirwrrMWuKh/m3fuwdrN28WUSXsKzlu6EGNHDgcAHGxsxpPrtsF0NOLA62Y3ruxpIQ+04EbrC/t4HH9qetsMns9fk5+NZ6WZOW4kbjx7kej7f+vtNL8sonT9l7ELoK8JQNxC5bgCmP2hOZYAohHo0D2rAAgGGmawaVI0t/qx+lsUxYT8TJ5J/CGsP/NgxLDrR7UKRYECTg/fi6z7PTM0E/cFzAfPtNyqfxBL/0KKCwj6AXxaP8OXP+5pwN0mw+rtuyztH5I5njeLC9shofvZlKLP5FjFvjMnj8XblnjVDL/yg//l5pzxk4ivcal/f3xzA3adOFWwcZUELeeNcXL7HRQ/agsAzn4ByoEvFyxe6wOXn4s5XPYI+mnRnwEuAPTTHHmulCo1KUxiwiAGiC3xarrmBQaqKp3FreTelzCBIdsshlzdTjm9oox5M8qYgFbJ5LK/TmyAL99fEiK4wjeapmPhrOmuFeKpHSfx4rZtgK5H5CyatF8K4xdwASAWmfH1RyxZK9Pi+qsrynHb2Qtd1L8dew9g/dYdfu2fAWctmosJdsnfI02t+PPKjehKmZxglr9xBWMnRKFFM6PFl1cmXPliwPbn232G6UX8O1j+LrIfRGAjxXXnThiF65bN5wXwV8m1t6+PBYBiLHykEGsxyc8pJD/XzTtbIeLizrsDACBBEq4AwFD6boEwb5uMvMhKaqTFFw7yISjk98NV93vYFpZbnXGCAF8ICKp9rhDB3Hs0TRONzS2orxsEjRDsP34KB44fBzQ9l4Ah7y1Lx9w1hSlbKTxEExQWjh+JaxfN8rT/Hz7AWT6YAG3La/9PrN2GtfuPqK/l1EHIYVy+bWQgKPAMXWDuGdDSNIvJWw/dNvkzO9+fCoh+IJq1X5PrPnhChUYIbrvoLEwZ1SBq/5QFL0KRNLLou2MBIG45MwRHenXcAa6Vyy0YpLkpfD5FJ+Ia3p/0+r6RnVvYd6YYeAiMEM9yTZjry/cA2fxpfq7Wy7sFIMK7v+WCs91Mk+PtKby6eavk1w/J8xf64S8pC/jxAHhrmmpbI15kd7pjpX0aCD5wwVIh73/Vxi0uEBizh8oosGj2DEwZPxYAcLKtHX9eswkd3Ub4tVSBeRHGpdxG1GMj0hLWJdlXDzuoz9b6KZfm50qTsJ6b8+w1zamfprzu4mnj8c5zl0D3gnReJ5d9aENuCwPLfHEpcuxyLAD0l2abB02YAAFSRkrIDtCILQgQD2AodgfEraCvJBNN/a75nwVp/ZBcAuBcADbqHUeHgWHJ3Bnu9V7Y04jXduyyNEDBVC/ViPdtSxprELgMkVwETLXNVxEMOVZBa9qoobjpzHnu/Xz1hw8I88FFTOBrn/S0/+c378aLm/eIGr7qunxqXtCxke6RZ9KZ3WM4LW7eXT8+88z/Do4/5SwAKrqaQuvn+pOJBG696AxMHjXMmYXDAO5QckOWv/VZ2QZ8GiDxW86yh9mLlmxFSCEeci8WzAlDb3PyqymFYRjufl3XQXTiYQRQWxNLMz9hVlRVsHQhbjOdNs9yoKEwiAwIK4BjNep9KdUFr7UDtZntCiAew4eHdeEVDeLr43jjfu/brna3Dx4/gWMtrX6I0MDcf+7pq44FRFRAV5DgKwqCi3aXBAqN26dBFDgEWoCmafjABWeg2sYt2MLl/TuXcH4LZk/D7GmTAFglf/+6ejM6enqkEAam3nbG6hyrkdBxhdICS98flRbhFhTKmXgM0xMCTOrl+oN5IEB8gJ+mGJezz2a2i6aMw03nLeFfzDvIdR9eh7IIK0o+0vv4rq7YAtBLLCP/p5Xa7RLmRS1TSmEww80QAABd033CQp9+1BwYWH95pPlk8PkUn3N5VYRIf0DQ9D3mFmL6hz8LAAxYOtfzle9rMfD02o1g1PACxwRIW1EJ9vVDdazmvxEV1K2qP0xIV2DfTx85DO86e7572N33/UIMeuS1/0942v+rO/bhifXb1JDF8naUyn18iWKeiQbRijof6cbluk84k77J/Hn9lLew2O4aEn1cVRVluPWiMzC6frDTs5tc++HHctbk82ENiAWAuOVN16KWO4Ax5roCdKK7JYQdLcqLgI39AXErwHvImO/f7n+KFD9VtT+fZckWDs5aNNfdtfVEK5bv2u358/0mgJDtkNrhBHkSJhTb1DvuPecsxFgbze/QsRNYs3mb6AKx6c6bMRVzp08BAHT0pPDo6s1o6uhOf62o96BJ+2gOtKL0A148gskU2r4hMX/uRBcJEBLeQPC1ls2YiFsvElD/7iiuuhADAfVRlZsVcRTEt83AOHenJ7VTSmFSE5qhWSmChIDpzHIFaE6MgFWURXVPcsG0bMz8QUGGftdP6diOWMTjglLs3GC7KMV2+jvj5/D/PY0fSu3fTW0NwgCw3+9h9YPxkfe8073E3iMn0NHd7QVVEXjAMYSJ5iIeRx4cZr18rPDcmAd3y4i0j4j9gcdq0nkUYARTRwzF9Rzq31d/+L/ifIDD/Od8/xsPHsVfVm3icAHkcQVty/tC7lFwidAItDLtt7cpxDx+p3iPC+8rLT4k8+vWlJfjXy49B0Nrqx0qW8i1d/wzFgBKcgnO72pJSO+NtyBghemyrTiGI0d6U0phmIZbKCiBBKDDBguCy/z5sujZzCMhBc4oyCRVNN2xLNqlSE7D9eCXg+Itev2TYrl/gdncia+ErRTcxiRhAFyuP/9uOsLt4jkzXdrrTnTiuY1b0WMa6kA/IddcsR2Ylx5UDAghBWtgMfooBW1sPvW+8xZhxkg3IA2vrd4gxEM4Ez5zygTMmzEVANCVMvDIik041twm5d1nUXTHEZaccedCC2nmi9j7qVTMhxq2yZ9aJn+nlK/juNfg5Y0STpjyXVfj+sUCQBfOn4a3nbNQ0v7Tvc0sTx8CK0nhP7YA9Cv7hLoEruMO4OsBENiuAOJp/mrmTTLjnP3BuNOPb7MY+o0cvMcD+zjpf6ExAI4WzOV6jxjq1W0/2dqJtXv2cml8Csx3eZ/cD8WxvEbpKz3LpQ4q0widv0HHWrSG1FTirQtnIqFbDG3d1h0wTFPMirBPvZvz/R863YLfvr5OEmJCxsUUKY8h41LTYtI2sqBFOQ2dY/6GbeY3DS66n/M/CPeopblH/7hqK8pxx9UXoqai3JnCteSGj7wIPYfQf5YPzT4VCwBxK+wKzMDATAaTeYWDHBeAlQZL8qTn5WiZiZEKe1fQYdmTiHKqD4qYieh/7jFyeVviZQqASGiA9n83X3OZS3b34WM40tLqx533uHxEZLuAFDaeccr75G3I2nGIpgyGW89agGkjhrr34gD/wLWUWMdpGrB4rmX1oIzhsTVbcLipOfq4SNi4It4jBcKxFRS0iK2+8+cz0y677AT4Mc8CQG2tn8q0SIb36FzXEjgumDsN1yydK2n/cUsUfz0iGaxYGTCT7EhEtieTfFhyQojkXLmP+C0BbjyAafv/NQJdIyB2aiAhQRFNmU4mydu4wzszdRsFmOFIGsMHy/1dDoXjjTpdLO8fX/RrSYJDaCYqYxymCxOEAbkeAJOZvyL9zzFROzVuzl2yAFMnWCA47SmKjQcOo7WrE24AANG4K/GlY+0LayF58ZCgbIWXICjKL6ymAAncrq+uxI1L5gipf1t27hG0fmcKeZfHgVPNePDlVX6sg9BxkcjjCqRFOAsLo+G0CPcc3DgCykX4G56Z3zS8wj4IEChk1MDI96ihYXA1Pvv2K/jX9HPkbXctz86oybL7fkrUvBhbAPqtokfUlgAqlhDWCIGuw6sZkC9GnhUXik0Ahdbe8zaOdIWEuMNkQCAWWvSHePEA4OMC3JcYX/7Yv7nXWX+0Da9s32sBw+g6xxRZ9BgALSAGQJhrIpaWDdxO1+9tXzl3GpZMHONe5qs//F94rg5PIAKYEPz39Kad2HjoeIbjinhsVFpOqqUSbEfx0joP1MHtNykX3S8V7+EZP3K/x7efsxjnzprCD+onYD1Zfkv5dg8UFwowFgAGUHOsACCwagZALIVrCQXxPMUtX++bwv8va/9OD5ODAGU+bB3XMHQwxo2yare39jDsOHYae04c8yJQff58+PfJ2zzzF2B8mV8RBqIXGAzpr60sx41L5mBQpeWT3r5nP9Y5RX/AlTxmwNAhdZgxeQIAoLmjC798dZWH75HncWVNSyNiP+VyFykH6kMdX7/pYfhTJrlJSN7GNWbYYNx19YUi5O8NH2oe2EghfVgAiIpSl5ntk+VwVPbKsqylFxqZzY1Ip1Y8AABodiqgUzcAIELqX++n6Q1stP7efieynvsQECb545ThfxlEjd4taS1BBovVAC0T8qSxo126J7pMPLdhO5qbW+zyv3waC+M0LCruc10EUJvRiew2SMOIWBpGpNg+f9oEXD5nqkv+K/f9r8D0vWgHhpuuvtw97tmtu7Bm7xH/GNKNi0UbV15pOYyfR/Bz0vv45+1o/ZqKFhERDNONSxP/fuSaCzFbLvfLSPjCno+A4D6ydCVKZdnLZsZkxM/8LHx55fEZESEFlEoJ4VLSuCAsw9DcGABN88oHR7MEkBz2Fes9I5l/9dnkx2XwnEk+qlaqrs1yehmzGgejMs48s4UE/37XEgAeBAhC0J93irXSDx1c5+7r7O7BvmPHQRnlgtHARePDKynLbK7g66dipLoGSSAg0eNFIDEoVT8ByhMJXL94Fuq4kr9rNm13xT1HQHJO++QHbnVPf+DFVehIpZR0Q58bST+u0PtK56nTFAIQY1Zuv2F6pn4Bv58TwHjwJuV2wFiCqjkzYNro4XjXBWfwVs7XyPW3r/NXQyuAkBwqRJSOkhO7AAaiadbJL6bg4gEsIUHXdQCOIBDPVdxyVH4C4H8ho/6BCe+mPyXQ+n354x90SZ9sacO2o0et0r+5lLcNrG0fwNCBYFS7MGuBvX3m5DG4esF09/Cv3veAH+rYHsp1l3nm69d37cerO/YFCxpAfpD5MqHlNOpZdNwyvXzhHpPCDQKUm0bUEMI5jItowMeuvQjjG4aI2j8lOb7Q+fgoSsdUEAsAA6ER9YLsZgaYhisAOEK5plkRtISwIqL1FVJSTqf+FMyQlCHJkOyBUjSyiPzeHbcq+p87wNP8oapSae2YOn4sBtVYKG5H2w08t+UATrS2ALoW/lhDtV5Z45TrZHOpbsigtDCYsj+habhy7jQX9vfwsRNYvWkr+JQ/Hvv/vz7mCTy/fnUNWjrt6jEk03FJkklYfzpa/NwI0f0c4wc4n79tAXAftqzZ8y6XdHMb7R4vnDMD1585nw9sfpVc+a/rQ7SiXLWqLE9MxgKAby0jhVjY8oDcR3I/jvTmSh0IwUu4v3zlQCcWgIAxHYRbDIsP20v6+fUyEwb8LJIFHpddHEGWOU5yxTlA9GkT3sxtZaVA4f+HhBcAxlBXW+Nepq07hU0HDsPo6gTKyj1mxLh0NSYxjrB+F0pbkwIbCCcocBKFxqR+blsAExL7p40chnecMTdQ++dkIlx27pkYPMi6582Hj+OfG3eCQUFXjlVwx6h4lgHj8tMK65eDhIhn4jdN2/RPvSC/wPlQLPok4LoO+I8Putl/bGV5Eh+88lyMa3DBovYBuMMTQgrAzBkLh0FlpRkUEFsABqg1gNgfjLXOUrdokGFYAoAVEKjb7zQpihAwsMMB8ycc9JrW76szDy+qndvNOJhfJiABQkD7YxLdz37oNpd8c3sHdh47Ymn/RMKIF7ZJmn7ZKlC4N03XNFw5Z5oL+3u6uQUvr1wr1EbwJgn46idud3f9bvl67D/VXBqmHQEIgnmMn8rR/Vxefy9+zTectdAH+kNuuGMDKiuzE2ojHcYynEO7ddKiPs5YABigzILHpncWXz4ewNnvBAYWSwiIW99qTCUQCNp8SC0AqQ+c/z+RSGC+jYNvUIbDzZ3YcugQp5EyCS6WKWByg7aR5lhJ2yUB/XwBGkX/sJpKvOus+ZL2r6iPAGDx3BkYMczSYHefaMTTm3bCoKZ0LdW4EDAu1T1GoKXZ/RQeAJAozVlAPqbN9B0BALD/2tYSFzsgytwjeG55qF/FsYNrqvDei5ehrspl9hvIDXc82TvqSt9bGEtGACB5D7FnRSMRZD4lhXrvIuzjC9P4NUbifs+WEMC9IImEHQ/g2XMLJQSEfUIq0MQowfmxrBJsHShMiiHh/P9M9P8DkqbP5ftzDB/gsuHs/8+aMtG9wtG2Hjy+djd6urqBhB6e5x8FB4AP/nP3aV4Gge+tIlBDRSp8l1yq0rIp43DmZAvBMGUY+Ocrb3DMX1x3vsZp/39dsxXr9h9F9mWNpW0imAJF2F4mldp1+7kHY1JbKGBcXr8N4cv447WQL5MEzF3AuIkCI0CK/iOE4L0XL8PF82YI2r+X3hl1bY8Ya5MPGrEAUEiJLMcZJ6X3wAojeHk3SCmDYZhu7rUTE6BpzIfGWQhBIE486GvfVpr9TLIAMHC6virf318vAIzhyx/10P9Mk2LbkcMW49ESvMlBhPz15QkH9AOK3H8m4QmEIemo0gbF8wdXVuID5y91L/fDXz/MBf2JVRDnz5yKmbbA09LZjcfXbkW3YSAagk/AuAikwD2pBLIQ5Kegz7gCPdT0tH3H1O/OPVX46lmASB4EKhB2jzy0sEhr2ujh+OAV56E86b4TK8j1H3pVyZSzXrfyTCNGAoxb6VhfrEXIND1N3xO8xZoBcYpg3NRrG1fIhrMxMM7qIFgHJGAgvmaAs1FZUY5ZUy2G2EMZtpxox+o9uy3t3zlIqGkPyUSs2if1I+h8ReS7oBErtvkod3t7wfiRuHjWJPcqf3rqeQjuDm6evvZJT/v/58YdWLX3UPC1MhoXpHE5/XbRHFfDtsv1uqV67aI9jvZPTcCwI/6ZndvPA/doUo6/UGY4aFwk/B6ZIhOA609oOm698EzMneACRTVZ2n82DLageX8FuNaAEgBKCRA9/YMkfWI+mU+JsgQBCkIMVwDQdR26rnMuAeJmCsRxAX3v8yEsf18QU70AdnQ9s98VJgH9WAYB4lkFeNhgbntQdbVLsjPF8Nquw2g7fRKorIKH/R6gYPL3TQL6mfJT8GuvcpVAt18TtwkV+jWi4bazF6LWLkW7bc9+NLW0KkodM8yeOglzp1u49Z09Kfxt3TY0d3YHaNKZjIvX7gPG7X7InK/fge21zIMcmI/Jwf2mGReT+uWiY3LsQsZABgzzJ43B7Vedzz+4O8h1d64KFQDyGdDne3dYRL5lDnABQGlKzkO+XT4smr1PJK+XIhnPI5OCAKlr5XNSB60UQQ2a5rcilKIQECVuoN+WIIpwYySPeomS9/Lmbc6n5oIDclkCjEhuAvuFGjOywaXbYxg4euo0GJ8uxjM2ufSuzPiU25I5XMWs3GA1+PfJ/S7ioEVqxsihuGqeB/zzNTf1TxZ8RO1/zf4jeGbzzuBrZTIuzhrhAztyiiE5gX4OWh+VCvY4DJ/xQYHc+fJ21P6gcYXdIzxa1WXl+NAV52F4Xa3Ts51cd+cfstclM4fE7ouqXx+1AMStkByDEObGBVhWABOUUlsAIK4rwAIJ4iyQ/VNJLoxwUErIyIWSfFQGAS/uj0sDhKdF+gIArfalj3zA3TYow7o9e2zs/0LPrwxTi2hoelJK301nzMfowS5zwrotO0RAJPu4RELHwlmWoJAyTfxjw3YcPt2iNEZkij4ozgnv+rALIPHmIAHFz7EAME8wAFMwaJbduKAaV2b3eNG8aXjvJWcJ2n+8lscCQNxy4k6euZYQf4qg5w7gUwSZWB00bv1CCMrUIiAjAPqoME6TFNwBXHigfWhtVRWmTxoPAOg0KP6+7Ri2Hj9iwf9GhbcNi0ELrYjnmMORdTGgqmQSt569wLWgrdm8HZQyoUSyk/q3bP4cd2i7jjfiT6s2+a+flwI+RIZqtKP4mVjAx+Sq9THZzy/TQmELCwXQGl5Xi8/eeAUqy1xEvVXkujufi7/gPiMAkAj9uXOTwlQRzMpolPmlQjNKClU9jghIgJY7QPRXeXDB/nktiCAQtY5P2KMKmFeS+6PI/jXvLcTjTPpZ5uTtGHBRm+PpcUWBGAu/DLM1Uo2D+TUpw4ETTWhpPA1UlCkGQcQI8ajZcSTNohFFaFAJEGB4+9I5GFfvFTD66g8fECCPieMOARPM/8t3HcDmwyf8WXM0YFlMNy73L5FoMc/E7wT0CUA+XLU+sBAfGp9WyLIYFzc2HmwoTRLGuy9YirNnThK1f5LFxxT4DWZZNCyuBlioFTIPVyLFu5OsCebd7x9VCPDuiFKTA3MhdsEgarsEiBINk6SR30g29va+lJ7ZV90j8nPMNvuJKwHstxCkFzocMBzA8v/vPnpMzF1nkrTpRu8zqYxsukwAnnExyacf8o4GFbEBUFmWxC3L5qPCdlds2rEbO/Ye4C7Bpf7NmIoJY6yytUdb2vDHNzf4TeAMYjAjyXBcjPuHC8FMPTO/i+PPa/2cBUI1H6prCaWVES1IM12/wr0ybugQfOqGy5DUnWwQvEGuv3NF/AH3SQEgbqXMCTx/pWkz7pRtAQAsyGCNExb6bVhd3LJoMsqtuFdK4ZMUyP/66Ae4cxnW79tnp/8RLsXPDt7jQWv47XT9PC3K9ctWp0z8/wQ4f9pEnDV5nDv+r933oIiAyN0nr/2/ufsAXty+x6/1qq5LEd3/76TrOWZ+IcjPFJm/MzgKXzKBaz3INmg/aJtGp6WB4P+9/XKMHTrYmba9iH3/A1sAyL+Zv8BMLCJEduHM/NnNo+MOsAoI2SKADtsi4AgM3mqY/wwB1epcHNGooK6fTIgW+rUlamuAeF2WdgB2QmDIy+VtaprmBsVRBuxr6sK2o0cAokcAvSMiepwKDS5DAD2lQBDQr4HgHUvnoL7GgqTdtf8QNu7YJaAjODEP0ydPEFL//rJqMzp7UhCL8ISMS5a5Ne4g17LBRM2eT+ljUoQ/spiPICtlurnP5Dlw+y5ZMB03n7eEv9Id5IY718QsPbYA+JhY9lacYFszQYFM/ZEOI706jx4qoLc4OBUE+fxvQlTwqIrnEbKvV/1oQcMNMa36qphyN0EUDC3dk0rrYczGR19oAwxJ38WUQ1DsCRnnlPFj3O0e08Sf1u5Dd3e35JuPyj20YM5NQmgxCdRGCE4jgf1zxo3ABTMmehr+j34haP7Moc2Ar33iw+5xW46cxGNrtkrWCaa+lnxdT3SCLx/f+RmGjeJHPR8/k839zA+THHhdIlb8Y9yJjHl1E4LOV9Hiz3f7qTu3g6or8cnrL8WwQW51yK3khjv/4V8/spSmM1qDIgQVlbAxNHYBxC2SEGB9myJkMGBKAoBoBYjRAgdGU1UBzEfj0//KdR0HTxwHY9TKAHBMEVGR44L6XSFAcaw/fy6CsGEx4+sXzsTU4V78wupN2zjmz1z8AxCCJXNnuvP4p1Wb0NjREWBqSKfVECHQ0tX83cA+0zP5mw6CnwoNikQwdbAI8xHVjMAymFuC9110Fi6eO13Q/tPGE2T9cpcIjVgAiFspCAJe6VJmF/2iLmKggxGg604FQTsugPWBmIC+JqzkDbwqP88lKKCPpZELfEKiAzUNDYtmT3dprDneiTd374YfgUpkvL5tImPIa/AAfsS8hUBamSS2M4KhNVW4bPYU6PZY123dAWpSN/ffC3tgWDhrmku5pasb//f6WnuMFOoIuhBLBpik8UME8WGmZ/JnVHowvGlDQwagAkifvE8zp+VaHsRjJw6vxwcuPwcVXtrfSnL9nS+U/LdaostfojTWsegzpDQlF2j1JPkgSTIhEVStr3AMJFMt3Qu49iMGWv0EjCWQSBBYwbkk+xgAksskZ3psHqp3kajjYEpdK5NLs7wtOlFzK6ObT726MkzpovZdgfDvvPo6m4+3YuehQx41xkeZMykTQAFFG9ivcSVwiVgBkNFgWs51NS6n3j720tmTsXDCKHfsX7vvF1y+PxMqIX6Vq/r393Xbsf9UszQGXubQxLE4+zXNYvKOv93J33dM/s451Ib3parSu9w1fIh8qvlA+rnV5PkMOjaAliY+J10juOvqCzFv4mhR+4/6qTOS1fsc/TMIoV+iLoHYAhC3rK0BXnogA2OmDRrkQQZb7gDRddA3VGrWp0ZbzBHLhWxEtR9cVT/Ggf1w2j6nAgTFvAFAU3MLDGpY1f+CmDxvpgLUvuWgfhWtUE1brdGWJxK4cu401FVWAAB27D2ArXv2ecF/nGVk+uQJmD3VymFv6+7B795YF3BdGRXHszaIOZWmXbyHSul9ctAlEwVWX3W9jGAFkUeIwtD+i+dNx60XngHNE7RfIzfcuTJejWMBIG5FbHxqE18xEAB0PQFNSBHsO0w2btGYP+OYi2zpyQTWIczqsfvwMU5bR/6YfzpaUfmZzZ+XTByNy2ZP8bT/H/uD/xwLAB/8t3b/EbyyY1+w3CHvcyvwUUsQoJzWb5oimA+Tggl7j2dn7QGQt4fVVuP2K8/HqCEuqNIuAHeAZVDtj+VBZGZ5OFDoGujFgLK1rGa0rJD86H5RDyyVaH7Su8/FWn8cxEDi7kvoCei6xmUJsD4MFUzyTCM/pvfcRSuS+7FcuhljzLK4+nIlpZQwwmugXjtnyXx3u9ug2HzkiPfSEfgrzfE+Y8F/nKY/lJY9Ltc0zo1VhtTVLGvGZbOnYPxQi0kdOXFKGfxn3YYY/Pfb19ehuaPHD0DkxCpocrQ9xJQ+J5WPcWl9lM8EgFich0EB5Us4Zu3kM/Jj0fwZECSEFg8g5NCisIMtFfcTQuttZy/AjWcv4F+RO8j1H12fn88ug28uK2ZRugpPbAHIdhmMI9wFQcCJCXDKCDNmuC+9Rjx3gH8SWR94C2JrhTwnsvbPW6I9izNzXQAegiTUOYJuTIrFHJwAQAB4Ykcjth45YvuEFYwbnA9fuZ2u3x6Ur9+5WcnsLlcctINcJwyrw9XzZ7in3f2jX3B1jphQAGkhd387jzfipe17wXhV2aGrMfH6jibPTA+/3zDsWEbKFfaRaKmqIrKQCopaSD+TXBJBtJTzxT17gRYCac0YMwIfvPxcToHAq+T6jz5d0tpRH+EdsQAQt7xaA6zF3gRj1GUSxFbzEolEnBrYjxpv+netOlwhIF50EioBBnB/Pgiwsrzc7W3t7MKR06f9QQZMuEKAwBa1P+jYNDIrt71k/BgsmzwWAGCYJl5auVYI/GNcPj6f4vjo6i3YdbwxGPqWcZo+uEA/B7nPDfqjflhjQtRgEiyNESof8L15oFWW0HH7lefhjGkTXIMQgDtAaAGF875Csx8JAIUu1pO7magPKWpFZrJOFUErRdCEQQx3QjXNqiCoaYRDDVRPNu8iYUV9GKSP08/382W+5+08I4/ZifgzIMyt9Kd80tx7SwAMGeSVzz10/BRMJwI9yFfvcw0gYhZAWFCgpKkSKLRea7umrBzXLZrpjvm7D/5eivr3SM6YPAHzZ061uJlh4C9rNqPboJaJXb4WBYTgPkfLd7ZNW/PnS/xy4/JSMiinjWvBmnvIPbqmex4zgSHkWAUtN/vAKiQmjstP65L50/GBy87mX5Y7yA13bShJ611cDCj/wkBR18a8FJ0hJbnMFzL+gHDVuGTEwETCQQzkMwQYBq5PheTY719xMj8je+3fEd4YF+LvugG4wEA5EJ0pigXzg28YOsTdtePIYS9vXfbr+/L9+feJ+M8J3IaCPvPPKFOY0kEwZ+xwXDXPy+l/fvkq/5zYE/BVLvjv+a17sO3oKYGWu01ha/WOlm9yvn8q+Vscs73G0bK33f3cPsU9pLtHcZubw2xpqTAHiPds66oq8J83XYVaO6PiwJFjrePv/MqD4YyWRXvLIzPrPKQHl7A1IHYBxK0A0pK38FNKbSwSETLY+TG+Qlnc+pz276b3MQiav4N0x6hkEeAFAsGkL5quhg72SujuOn7Si5UmfBChzKih2E7XH0LLYWDua00UpW8JdE3DZbMno6G2GgCw99ARHDxy3AX+YRzcrhz89/CKjTjd1ulpwA58rgkPxIdH7+PR/WTZhrmFCPzbcmCefF9p7tG/zQUM8qWCM6UljMuzSGga8N6LluHcmZPdufrWA7/dXJx1rf/GAMUCQNwKyS7czACAwTAIH8hjWwE0F2qYBJUbjVuJPVUIgX+efiv6uxljoIxJFfD4YjjMCyaUnnuZh/SGk+1tHmAfz8TkaHy+XxVdjoDtMFoRWsOgKty4eLb772/d/xsB+IcPdDtz4Rz3uK1HT+L1nQeE2AA3rsEt0kPFbaYqpNTPhGcCzBs/Gp9522Xurnt++Qe8unp9E1hlhgo1i/hC51ljZ3mmN7AEgKjYaFkmPJHeHnMBLxVqocq3D51kdc8ehDAVKggCCdsloNvwrwRMiU2e+dVJyX1qRfhmlCCELKs3lgUKeJ52TxlzNX5+WykQUIbAooBEdFAleP8+tIAMAHiR79mmASIgjZAokv65fedNm4AF40a6431t9QZZWnJlkq/+u2f+f2rjTuw4dhJuQR4HTtOp1AdYWj9f0U8YSvi4hG0njVDj6gXwCyFR1BcOosUXICIK0ACCzMfFnVORLMNn3nY5xg2z3EBHTzbisedeznI9zAf6X74RBEsnWCBRCutW9uViSd9ZjIt8KQLSi1UEiRBn5TQLMZCCsZQNGuRo/poHLRyxJHLciqD5c9qnaNL3A91YzJ6CMQrKKChj9vN3NGPehe1/6LsOHMLYkcMBAJfOnYMth4/CBAvW2Im0rXE571TRH6b9EwQDBUnCVHkigXctm8fh/u+002BF4QgAZk6e4FY4PNnWgWc374Jh2n59B7yHcpq+g+UvByo6IEAkeFzK7XT9Lmwvi0ZLNUdp5iuUlo1bcMv5S3DDMi/n/zu/+B13nJ6r7SrH5TrfDJsW9ZvW4mUtbr3EPixmQE0rM8AwkEpZP8MwYJqmFS8AVhKZDHFLt/x59eMdU75s7mcO06cMjFrCAKOiZQBccSk+vmD77v3u9tkzp2NobQ1XbldmgOBK2iq2o/QHHUukSGAm7hs7tA5XzfWC/+7+8S+8bAjAjimw7u2rn/iQe9yqvYewfMc+i+mZpleel3KV+qgd8c+4CHtXa9IgfCjSuAK3o/QXjRYwbFAtPnndJaiuKLPeg70HsHzdRolb96dfcVsfEABIiY0l/YPLy+ONSIRI//XmfQaeTdJrkpRSmKYjBKQsIcAuVuLeSywElKwUwFt5iZTsL7gB7L/U1oapwiXgR4ZkWLNlm/uvm+aOwLWLl/hRBHlzMs+sCTwG6bgPNNsaQBTHhtFSweM7w9AI3r54NirteIXNO/di2+59XPS/V/9AA7B4jhX8RxnD85t34mRzK5AybO3f9IL8hDx+5/pMHAsUlgx5rPI2v+qHHevuI+G0olw36riYVUr8P95+OWaN9dwp33nwdwF8gEX7Ee6HUvwVt5VADIDvSyyIEJB/v38BKgqm48eRDiUFuk8S7SkSxf4AHxqlFmKgV0fAChLUCviUSIbPKJOs4j6BH5gt4IZd2c+N7ncj/UXN33qmto/fFgQcWFpqg0NR7jivSJBYP3j52k3CxJ4xYxp++cILMH25+1BX+AMkHICAinShlQXDJYCh1ZW4cYkX/PfT3//FZv7escTW/udzyH87jp7E0+u22Qh+Tg4/4VIdIbom5AwFwfTOf580DaeVUhzdawTdowyMFMLhSdh1WaRxXbZwJm69cCkSuvWsNu3cg80794pflm5k/3XlvRZAoesJDAALgE5IZaxS9e/m+fo9aYa3AhhGynIFpFIwHXcAhyQYt5JR/AXti+ePounf9vtT+8fHAFDqcxN4rgAWGKw6d9QQnD9rtqUpy0JxEG5IJv2BxxIvXY2vdcwIzpg4FnPHDHcPf3P9JluYoaC2wOMIR3zhn9d37MWmfUcAw9b6Da5UL+O0b34MUI1FPa7AbSC8P1NayB+tuqoq/PtbL8bIwYMAAAePncB3HvidyKwIKYtdAP3MAkAIqYiX1gHKUNxUMgsxMGUQl73ouu6iBRJCRMYQywVFfGZ8Lr86yt/JABDM/ZSCUSpo/1TKEgCAi89aggUzp4EAWLtlOxbOmg4C4Nyx1Thnzhy8tGWj5TbgI9GFSncB28I+GtAPCW1QEflu59UTQnDzsnmoLrd81Vt370NHZ5d1LyYX88AYZk6agFlTJgKwYI2fWrsN3d09lsYu4GBwEfNOXjykojtQbTNOoY5ybBRafG5/hrSEcacfVyKh466rz8dlC7w6Ct954HfYse+AYLFKJBLDYeTANH2R+PlO7+t7FoASyAJwwjpZHkhFtM3m2fyd9SUiCoGkRKBoleb9nJ4RASFOHrhdRZDzJ5NEAtAdi6UizSgMRDDKu8Byn6l07gNVNkTpmGaiC2rCTXCqP4NCEKCcEOBaAThBgGP+zv7zlszHf3z4vRjOIQDyzWQMV88Zj0deHYPthw4C0KXStiHbvn2at+0C5KmC1iCh2Hn7pwyvxzlTxrn//vqPf+nPfjCtv1/75O3ucVsOHcez63d4D8CB5hVSDyG92CG1dF0kRNguBMeoS6PTIgpaCELsy3Bcwvn2uOzvdvLIoTh/9lScOW083nnOYiR1ixVs3rkHKzdtEcEaAWiaVpHTh+w7JZ80WN6/u4EhADBmeEJA3AZSI9wiYSEFWpkAzsdECAHRCDQb3pSU+Mc0QGwAcPPaA3L8Ke8GsJm9JQh4AgIvLDDGQpk/AOiEYMmoGlw4cza279sDJPX0GP88Q4pSD0C2ChCpmh1ncbh+4UxMGDrYHd/mnXttywbH/KkJTdOwaI6l2Romxavb9uBESwtHS7OgelWwunw1PV8/kWB5bVphx2ZES4Hv79sfgZaLCGidP3boEFw0dyoumDMViyePw6yxI1FlW1EAYP+RY1zgnyQEUtqeV+GX5YNIXgkOPAGAMtahE1IeL6wD3bTMXLhgAiFoALqug2gaNCIjCQ48uJ9isn1P44cvRkxk6AHMnjm+cVFgGNUwzGX+p7oofrd8C0xG8cHz5qA66YUppSjDhNFjUF9Xh8b2Dn/Oes4VAQNC3JnGQfVa79x1C2egLGHpLRu370J3TzcYtaxY1KSgzARjDNMnj3cpNnV04k+vr+UsKBrH5OHfVhXWUW5zDCj02Cxo+QQRuRBQGlqMoKqiDBfOmYq3Lp2DJZPHYebYEair8od+Ocx/+94DyncwlUodAymLP8b+JAAwxrqzNSHnz6wazRSUF/ymokXzZzfHYfsKJxTa7gBbMEgyZsUE6LpdL15+9llK3yTi6XkI7w97bwvzTufZFkmYECzOCLOVYgcHAHbam4gBQN2AwABYYMYwbeJY9zKnO3rw6Npt2HboIIYPG4kbZg5FlS0EVCd1vH3eaDy9eipeXL9GtAI4wQmq7XT9PBqZnGHgy3dnWDphNKYOr3fH/NUf/gLUMGFSk7MCWPf29U/f5R636+hJK/ff0dZduqrnoSlezjTRjESBue/uCPM3hkROynOQ1t/muVKmjhqOd5y9AJctmIn5E0ajYVCN8urb9x7Adx78Pbbs2uOufQHBoFT9PWa5MpMcaeRrHANZAMgHoyJFWBT7D1YNKZlnyWv3lIsWdxZkTSMg0GKrf9FMAJJGyLwUPsa7BSg4XzgTrAGUSxd0BLzP3f5eTgDowo4jR3DoyEE8v2k7rpp2FqrssgAaAUbVlmHxlKl4cfWbQCKZB8WfiAt3Ogx3SnHFnCkYVlPt7t22ew9Marg+f+vdBfSEjkWzLfN/yjTx15UbYFKWpyqjpfldV1WU4epFs/HOcxbhgjlTUF9T7VpK+Lb7wGF858HfY8feA+jq6Ul7K65BMP74+7EAUNIRU3HrRauQkBrmvBvEXgE0ezUgJF4NeuNZiNyRZ/r856rIBFCAAvFYAWDAjEkTMGzIYADAsfYUHlqzB4dOHQfKkvjL8tdxxtSJ+JfFo5HUPK45ccRQjBg1GsdOnQJ0LoY4JCYts34ubsCFxrewDKrKEjh/2gSXqW3YthPd3T0cwiF1AZGmT5zoztzBU014YtWWYAWahVib0qUxIkI/yQOtABCfsqSO2eNG4sqFs3DzuYsxY/Rwwa/vtP1HjuGeB3+P7XsPoK2jM+27p2uahfsQt/4vACSTCZy9cC4SCR0rN2xDS1tb/HQGRFPb3x3GQ22/qodzyKBrljvAlRkZwHJVDXoRxacvyy1CAUAwzuzP5/F7xX7CKgMyBnzuDk/7N0yKHYePgnZ3AmUVOHW6Ea9u3o7rZw3HiGpL268r1/DWWSPx6NiJOHb8OKDp4dp/OkuAyg3kYPDz4DxWbWssGDMas0Y3uGS+/P2fc9YNT7ABgG98xjP/r959EBv3H1FwdlUBIrkfyFjKIdlIQRkcSwiG11Vj/oQxeMfZC3HV4tkYP0wdxLll117c80uL8Uf5rohGMHH0KMybOglb9x7Ajv0H42WyPwsAZWVJXHzGIlRWVIAQgsvOWYoDR45j447d6Orpzteym1/DWR6AC4ta4IaUEjMiCibplWVllMGAV0WQJawKcbquwY18ZvJyqVJ5svAPptWMSERC0a4dNVbALzD1AtN3eD4HAiSgAIPwRYGF//hywc7xuqZh3vQpAKw0v31NnVi+c7tl2tcIkEzgzyvexNxJE/CZ8ye7QxhUpuOcGVPx/Pq1UoU7ZAZHa+f0ixkDnrYPUMC0x05NgBFcOGMixtbXuWPZunOvJQAQZvuuLf+1rutYZEP/GibFw8vX2fgFIUyWqAQBftCqVLwQhk1UJgRATMvLgPkTS/ge3zAE586YhPddfCYumz9D+c5s37sf3/3lH7Bz30H08BVAQz5HAoKGoYMxf9oU1FRVghCCuVMnobqyAhu274q2fBQrHiBfNAaaAKARQhzmz7dxo4Zj3KjhOHT0BLbv3Y+m2CIwAGwBUvliYu2jjAImhPxzQgg0TYOugQtazq5cca+bAPqoI5OlmyGhuA9EywDzYgSoIvivucvEn9btx7HGE7AeqsUQ29pb8ezatbhp/hhMqLOShYZVJXDDvHH4xXPDcOTEMRvjP6R0bVA5WtfUT7kbMr1UB9O0BQEGmBSDKitwxqSxbuW/tZu3W9X8fHyWYMbkie697Tp2Eq9s3SUyByK9ByxgG0TaRySjQC60wKXzhdNK6BoWTxqLKxfOwk3nLMLc8aN878exU42491d/xOpN29Dd3R1Zu9B1HSOGDsGcKRNRY2cH8K6nSWNGobsnhVWbtsSLZH8TACaOHV1dXVXppoDJbczIBowZ2YDOzi7sOHAIB44cQ08qFT+5ASAMuNqjrXValQQ9VZgQgOkJSxiwYwL6ZjZuX5QAPPO/uNerfsc4M4FQNtg+5vN3vN9jAgTYduQQkDKBsqTHmDQNL23bgl++ORv/etZUjKu1lqyyZBIzxozFkaOHgURCxLN3U9Qc5i9Vv2FcOpuDxseYLQgQS9t3oHnd0rwU88YNx5lTJ7hj/vL3f84JOowz/zO89ZLz3eOeXr8Nx5pauTmU8uh5NEDVdrpjc6YVPK6qiiTOmzkZ1y+di6uWzMGk4UN9r8Uv/vQ4XlixGnsOHnHjcqLYxepqqzFp7GhMGDUibTzPnKkTsXnXnkp0x59hvxIAxo5sKE9rcgVQWVmB+dOnYP70KTjReBq7DhzG8VONVgW5tJpV+up9kczAWXEWUhp6X19QOiWrmev15xZ0xhiHGEiQSDAkEgkQXROAzILjSaPCBubbhEei3zjfE9WdRCKo7DnYOJiQ861Q/JnjFiBgzINwYxzz549P6AnMnW6Z9Q3K8ObhNry+eSOQTHAM2/rb2dmJh19/FYsmjsK4Wsv8PmFwJa6cOx0vb1wPkxlWnXjCmcfdbc+aIOYxMk/bd8rugnJYx9y2TXPZ9IkYO9S6/qFjJ7B1197AehXvvv4t7vZDr62DwdfpgaTNk5BtRmxrPb9PU1j2I9IiaY61/zGosgJXL56N68+Yh4vmTnUx+p3W1tGBn/z+L3jy5eXoMYzISYZlyTKMGzUcU8ePQWV5eeR6HxohGDty+AjsO5XRGpI72l+WlsHQy5bOYlx0AaCqvDzjgkQN9UPQUD/E/RCPnDiJY42nkeoxYibaR/T7TA4h9sLlpnCbVl15z8cJECRsLUILYZx96wEWOj4j704PxqDIGeC6PavA5Amj3f0pk+GlXUfQeOIEUFXlLbwuP9Kw6eB+vLlzH6YNnYFZ9eWoK9dxxoQGjKgfhsPHj1grGVPkwfPbjNP+qR3hz6i17f5lnJDjgeHUVJRj2TRP+7/nf//PV8fAueezF83H4EG1AIDNB49h/b7D6kBE1cSHBSd6k5oZLQQoMor4wvrqarzjnPm4duk8XDh7KmorRYy2E42n8e3/z957x8mR3mXiz/tWdZ6cRzmvpF2tNnuT12HXOWOMMdjmfLYP7DvswwfcwQ84MndwGLABG8yds2GdsLExBtZhvdmbJK3yKMxocp7p6Z5OVe/7+6PSW9XVPd2jGWlm9H30aXVNVfVb1dVV7/f55v/7RTz63DEwxu3UPEv8M8ag6zpSiRiaG1I4tG83CqUSzg8OgzOOrT2daGlsXPbtFYtG9RWfZ65x7euqE4DRqZlSU0NKW94EybClpwtbeqyOXNnFHC6NjmNsahrzmUVIn3WAsJ75AlO0SuFoZoZ/EpMAOHfaCnNibCuFMC1N1kEYQnoI/MYH3uMjOqcvXbJN/4GWt45mapr48mNP4M7dW3GgzRJK7U2N2N7ejpEJpzeAU+NfqYMvTGssU4kSFarmLzx/v7ODUALyYDUOOrStB3fs9qr6HTvVFyA2Hrn5nx/+T+62rz15FNlisULb4npKFOPy962yvbO5Ae+673a87e6bcMO2XjTE/YJ/aGwC//tTn8czx0+BMw5wBq5xxCJRbO7uwC+/5x1uQGcYJmdm8b0nnsHo5PSyb8Oxyak5iDr0RXk5Nq/VHIMIgIuzFy9l9m3fuiIdAVPJBA7s3oEDu3dASomRiSmMTU1jdn4BGbtTF2HtaLaM1RG9znyKii1LrLgAw/AmYU3T/J0EwzSfdWUpuXonXf68rMy5aFzDoevs6H8h8Y3TU3jmwgUrp181RTPluJzh3MQo/unZE9jedhsOdcQRjUSwa1Mvnuo7ZVnwVSHrmvEBSNMW8g5zkZ7W71YFhKf9M1mmgt+2exu2K2luw+OTZdo/ILF/1w7stzv/zS/m8W/HzsAQDrngFqEIlvuFUnM/uFxpndOrwOU6yxkL2N3TgZ940Y34Dy+7Azu72pGIRvzzc/8l/K+/+RxO9F2ApnG0NDaiq6MVv/Led+KGvbvqstref9dt+OK3/nVZGSuTs3OYmp2fBhrW2ONTg4thDQcmXXUCkCsWjMePHMNdNx1aYSHDsLm7E5u7O60AMQATs3MYm5rB9Nw80pksSoa5Staaq5zet+ZS+9iSZKD2Uf2lU4WUkIbpizIHYGcISEiHBPgamqgT5lr7PZd7TnJFjywrqDE+Zb7mm9F/L6gBXxLA+ck5DIyNhrTzlUr3PglpGPju0aN44637cUN7HNe1RvCaQ3vxz889g7mFecXnqwh2N0pfAKbwltWYBuGwUVGeisckGhNx3LFnm3vez504EyL8Lfz+L3/QXX7mwiBOj4x735/bfQVcE0qg+U/o8lLbneEYwERNY+k6R3dzA957/114652HsX9zd1m1vjMXBvCHn/wMRien0dnWgk/9wa/jxuv2LEkYS6ZAejGPqYUMHjt1AYlYFG+8/QY0xGPobGtFRNdRLNXnqs0s5vD4kRNASLJvfTf1Spf7XVmecE0SAACYmJ7F48+/gBfdeBC6vnqn1NXagi676hgALCzmMDkzh8m5OczNZ7CYy1WqQU1YY5qxq9QLCYnwssGQdhMhzkLKrZN7YLnWS1ljv4xKENJfreHU4JCd9snLzdWqVs81DI6P4DM/eg57O16G69oi2N6Wwu6Objybnrc1YiWX31TN+/BM/g4BEXYNAZVoSPs8FKvRzs523HfA03Z/xy7+4wg9x/zPGMNthw6667/17AlMLyz6zVYSS9cnCDTaq3nfatsB6DrH1rY2/MyLb8H77r8LO5R+Bg5OnruI3//rT+NX3/9OfPaP/2fV39EUAvmSgVyxhDMj4zhycRjPXxjCM+cGcezSMLqaGvCpD77DdSdMzsyiZNQn/OczGTz23HGUnN+QyRWSoPIKPS1rG2umEuDE9Az+/fFncO8tN6KxIXlFjtmYTKAxmcCubV5A0nw6g5n5BcykF5BeWMDCYs7L9SWsTSElAQkBJuD+VowxCM1yCUjJrdxtxtyAalWbXetkp7YJZmVVjFrdZdX2Y1A6Oyp4yyvu8577bBHPnDvvme19vnKpFOrxTN+PnjmN0+OHsbO5C/dua8GLdm/BsxfPAoZdLEIqAX6qBcDxE0jFDC+FpZVzxRKgdrRjDIe3b8JWpfVvX/8lOKmO6jXv7vBS5EZm03iqr982SihmewSWw9aVLVfZrroTmO1iCOzLOceBzV148x034n0P3IUdneWC/4Uz59CYSuLgnp340kd/tyJxm80sYnQ2jf7JGZwaGsOPz13Cj/sGMDY3j6JiUdWYhv94/514w203uOu+/+Qzdd2DFwZHcOzcBUgprbgD351FitoGIQCery1fKOB7Tz2D7Zt6cGjvrrqtActLAvRvb2lqREtTI1TvVskwMDkzi7l0BnOZDOYXMigUSj5N5qrJhDUjnPzr1Dl/tXueOG4Bq1qrgGF3enO0M13TLAWSca+HgIS/w906sXzURQZYBbZUz5GkksoX1HZkeDg6Y74fR1m2fqQPvfun3H2/cGQYw7NTSgAf/BYAJyPQ0cqZjvHpCfztw8/h+p6XY09rDFtaWxBhOkrGYqA0ofQ0f8dnLu3UQJdoKK1+uWIVsLenYjHcc91On/nfam5Ufs3uvu2wu/zYmYs4MzzpfXfXoqF0IHS+KxT3g88FwkIC+ALLZSmO3Bc8eXBzD95w2/V43wN3Yk9PZ5nl1WnDfCjEvC+lxEQ6g7HZNC6MT+Pk0Bie6uvHsf4RjM9nkC+VAsGE3o9/38Fd+IVX3etdj+eOuQGAvmqXKC99OZ/J4JnjZ5HOZnw1P3xWlMsN7FmJSn1ydUn4NWUBgGLS7R8axdDYBHZu2YT9O7etqlugFsQiOrZ0d2JLt/8ByubySGeymF9YxFxmAdlcHrl8HvnVTkckKI8c87mZpZAwYdrzpPQ1E3IsA4zM/zVp9cG6P24ZYFkbp2CsPALgjhsPosnupDecMdA3PIxMLq/oAQHN2BUqQuneJ/H4yeN4ZuAQ9rRuwa5Nm9AUjWI6m7YFoJJ072QEOOuYoj2ykLK33G8/b29I4jU373fP/3f+4m+BsoLHFn7pPT/j7vfvx85idjHnCWM1qyHYerja9qCQX2os+3vt6+nAT9x5GO+87zZcv7Un9PdxhL+KqYUs+iemMTA1i6P9wzjWP4KTQ+PoG53wfmw3tTL8vLpbG/E/fuIVbm+Ahewinn7h5JL3XWZxEcfOnsfEzFxly5JkAfm6TGvAWvUiXOsEwIFhmOjrH8SFwWFs6enCvh3b3DKRawWpRBypRBybujrKH6S5NBayi1jILiKzmEM6k0GxVEKpRO6EFScBaqEzuyENMwNaIAApNWsfzWs9zJhf1pDwV4S/T8OXvovkFfgJnwuDld2c63zzwX3uuidHF/H9F07AVb+l+oMGUwedY1vm+7mpCfzND59Bb1srbtnSgkPbtuKH01P+5j2quslYYPzgsRSq4mYRSOzr7XIF2ejEFM5eHFBS/uDud2DvTmzp7QZgdf577uKQYs2ocFwh/Tdv2L6+mgZVxrJ33tXdjp+88zB+8q7DuF1JW6yEhVwBZ0bGcXxwFKeHJ3Di0hhODI3i4sSM8hsEiQgCRYS8c2Gc4wOvuhevPOyRpqVM/yPjkzg/OIKp+fkarFSyxnVXW5KTBWBFYAqBgZFxDIyMozGVwPZNvdi1pRe6pl3GqJdTM762MTtamtHR0gweMvRcJotcvoC0TRBKJQNz6QWUTBMFpzf2apxiUHOu63tVZ9rsSjQXqnBNwuqdOBkBphC2b9gTbhqs+uPMKR/MmO0RuAZCQFmNZkpV0AeEfaj5v+KkzXy/m6Y8t4uLWQzPTnvn5Gjfwh7XKfYk1eA+4a5//oXn8M/XHcAfvmofbtm5HT86egxClAAR4kOXCLEqBJbhX6drGl552CMsX//X75cLfxt/8N+86P8fnjiPvrFJ//gysAxmNzGyrQ4Cfk1ehmj3VcZqS6Xwjntvxrvuux237d7q9isIm09PDI7hhYERPHtxCKeGxnF+bBJDM/PIFYoVagfYywLKcUXoNbx73y784mte4h7vR08fwcWhkbLzSGcW0XdpCCMTU242llozNexJtDiHLJ8L5DIFL6tkwlqNviBrc2bR18GM5bHVbA7H+y7g1Pl+dLQ1Y+emXmwOmOXXA1oaUmhtasSmkG2cMcykF5AvljCfziCXzyNXLCKXz6NYNJArFOy84qv7W6xd+eaEnjHruRbCSv82pBKzYXkerZbCzv6U/+GbqtRa/pC2DPVbASBtD26gEl74LcPQ2daK973tDe6mU4MjKAk1aE2Rw84tLpSOfC4RsM5hfnYGR06dRP7+Pdi/bSt0XUexYMBl3W6gn0JCwpalQlSU7b0tTXjZDZ5v/NFnjrrfUjVRaxr3df575MwFLOQCzXCWWubMX72wGrNWlpPxGN5+9034Dy+5Ay/aux2xiF5m0bk0NYvnLw7jyb4BHB8cwcXxGYzMzmMum6tMDpc4btj2npZm/M5PvxZtdhD3zFwaz508436hYrGIi8NjuDQ2joXgsa/qVLaxUvs2GAEIZ7HjU7MYn5qFrmlobkxhS3cXNnV3IBmLrfsJuM0uI7qpo62iSXU+k0XJMDA7vwAhJOYWFiCkxPxCFlJKpBez157kKuugKi1l0U4HE9LfwMbRRZ2OghLXdnxxWOEf6WvkA393PyVA0HO3lMcIONamw/v3uuseH87isbMXYKppYcGGPA4BcBvySC+gTwhA1/HI0afx2WduQlNTC1pTSYwX8opmXGNv+9CcOmBXTxtuVDKETpw976v451yDG/d7VoJzY1N48my/X4uutCxDOhPWsi8kIpqGV990AB941T148f5dvsp9RcPEmZEJ/PuxM3j2/CBODI1hcGoGMwu5yhUJq51XDfsyMPzia+7D/Ye83/h7Tz6D2fk0BscnMTE9i4XFRfKzEQFYWRimiZm5NGbm0jh25hxSyQQ621qwubsT3W2tG/aHa7YDqTpamgPkwE8UZubnIaXEYi6PXKEIISXmFqzWypnFHAzTgGGYyOU3RpstFqLOSiYtuSEFTDAwZtqyxSYDuq5UDmQ+4Xcta/9S0XbVLn9Qhb/a6tcewLEKMKX3DGMM22wfOQAMzWVxZnjYFvQcvsY8DLbW73TkU5adOAAwgHHks2l8+6nn8ZMvewn2bd+O8dlZv0BXA9bKEusrJ9FzxvGyg3vcAjnH+86DaxwNjY1w+k1EYhEIU+CPf/2X3O/1VN8ATg6Noa7APWed4/Jg3J8VoIzFOcd9B/bgg6++G68+fACNCauIajqXx1N9A/i3o2fwyOnzuDA2jXQuj0LJ9Mz49QYUVtwOuMGW9rrX3HIQ773/Tvc6fPYb/4LPf/O7MExjZWV+WCGetWChJwvA5U7bcgVmeyCbyyE7nMPA8Cg0XUNzqgEdrS3oam9Bd1vbSouXyzMhlduvl3kerOJuHa3NFQ4V/pmZ+bRNDvLI2/EIs/MLVh93IZDOZsEYQ6lkIl8srJm7p9IWf8qRhJQCpunPELCuhQZNc6rUVRb+10z+AJN+az+8uHfh0YGyf85aK/Dec8cwAHMLC+7wLYkYdnR2YnxqAq5zWSimfqWVsK9Bj1oemAHgOh4/fhR3Hz6Mnt4d4MeOQbgR/4HZWf1RAzn8XvU/C6lYFK+88Tr372/+4Ens2XcdTFPAME2YQkAIiVgsgj3bNgOwAuoePnUOhqkG9KmBKuXpcmXr7IQHh2Q4+0Q0DTdu78VHXv9SvPqm/WhKxDE2l8b3XujDd54/hR+e6MP4XAbZYhGmGfj+TM3FCDsvVD8vBEz/SpMmSKCtIYXf+enXoLvFslwOjU/i01//dv0PrPTItxqjJOuZAJab3ldz9z65nIloZdIOyQJQH0zDxMz8PGbSaZwduATGGBoSCbS1NKGjtQU97a2IR2MgeOhoafa9W898eEARt32t+WIJmeyidc2FcC0MADCXzkAI4RIOVQiYQiK7uLh6pIAFNVu7Cp0QELZLQEqpZAQwqyDMOmb0y1ZgAu16pUeZLIHumL7tjX43gLQqMjr58ao5QBnjiNJA55W7mvH8Hbfi2TOnYRhFT9D70vYCpnq35j33gsE0HemFNJ49cwabNm9DPBbDYj7vr4/Pgp9nIdvhCwY8sKUbO7u8wj6XRicsEqwEikpIbOvxrBqXpmbx6JmLSmGesJRDhBT5CWznXnAf48Cenk6872V34h0vvhkxXcep4XF8+9kT+KenT+Dc2CSKpuFXosKOpQY7Lve8Qs5R4xy/+uaX4/COze51+Ohn/mF5QnJDmR7JArAmJ7mFxUUsLC5iYGTMMuNFdLQ1NaG9uRmtzQ3obG256nUH1hvi0QjiUY8wdLe3VrQw8EpWDsZgmqZLHjhjKJQMpLOL7meElJi1LRTqWIWSgcVceVBRrlCw0y4VPdZRNJliASgZXtEgXbPbnDIvRRAIL7O6MR8S71K5Crktwm0BKKTikpf+TIFYLAIJ67cUwtKWhWEi1tiI2YVF/ONDP8JbHrAqAd65dysObNmGF86d8Y4vhN+Hz3lImlzATM05fvD0E/hPu/eisanZuhdYMKijUspdYCx73V17t6OzKeWe1nwm4xJGr+w08OGffYu7z9H+EfSNTsFXoc8XYBhYXmL79q5WvOGW6/GBV92DlmQC/37sDD7/yDP44fE+K7uljrHcvgMrcF5eZgXD6247iPfefxcidnbHqfP9duDfaml1S0haqhJ87RIAtow9SyUTE9OzmJiedddFIxE0pBJobWpEa1Mj2lub0ZRMXoYJyS/ofO81fxu2whdhbZmkGABd03yWBwDYrGhhodexApzSoeWZPhKzaStgEoxBt3sFcMbtToIcQkos5gvgnIPbKYJhke6z8wue5QDlQXSMMbCwPNDgfpwvLZCraOyVIET5PtGI7tbTkGrao73stFpuTCYhpLQEuBAwTctqYgoThinAmQaucRimab0M4S2bAoZhwjRNlOx1RcOAaQo8/PwJlwC8ZGsKr73zTpzoPw9hGLZyz/xNcirV0VfJGAPSi1mMTExiZ+9mjI+N+gUWV8zeTrW/avF/EnjtzQfcVLq+gSHLrC79tf8t878VJJgtFPHQ8bP+c4YiOMOWK2zvam7AG269Hj99181oaUjga08exRcffQ5nhieUfXmgC+ASx+I2CeABge4bK/BEVvsOkmFndxt+822vQodNlC6NjuOjn/2H5c80oTtaGTqexKpjrlpuep+s9SMrVUGQCMCaMrUUSyXMzJUwM5d2hY3GGVKJOJobG9HS2ID2lkY0NzQgGolsAHPQxvdse7VKGNpU94YiwDnn0DSOiK5D0zg4597048YLqOykp+JzzesoiMCWUTxBClnzT1itZLVKjEwh3cBIUwjbzy1gmtIV7qYQKBmm+7ewPyPc/SWEKSCkgGnHjQghIO33qZl5fPMHT+BNL7sLAPD6Q9vw3Sd342jfKbscsGOmVjT/sAh+Kcsq+b1w9jSu37MbTz7/NGrPACgfq6Uhjlt2bnGv0d99/Tue+d8NkJTY1tPl7nN+fBoPn7oQ6DjpdOiD36zuc0t4xXbiUQ1vuv0G3LF7Bzoak/inZ0/gm0+/gEtTc/bHZMhYKB+r0rJPiFfaF1WO5S3HIhH8ypvux212saFiqYSPfuZB9A0MLznTyFqnJBlClqLiMgTtCrS3JgJwbcIUEulsDulsDoNjE+5tqXGOWCyC1qZGpBIJNKWSaGpIob1C8B1hDdGcQAtht5UwMwPCmW14mqQWTVRN3MI1+9txE6ZwLQKGKVyNv2RaGr9p2uTBFDANhSBIr2vjP//oKZcA3LutGS+6/kYcO3vS7pSr+pyDQk5ZDubMM4ZLowN4+Y37kIpFkXVazjLUPdYrb7zOl1Y3NDblCX97BpdS4sM/+xPuPkcHRtA/ORNSq54toU4ycM5w445e3LV3B1pTCfz43AC+e+Q05nM569yClQr9tq0QcoMq+7LywL4K51V5LIm33X0YP3vfre7aj372QRw53XcFbtSrLGg3WE2gdUcA1lospSkEFnMFfxqdrdHFoxEkYjE0JJNoaW5EIhZFKh5HZ1sLSeO1JgAdbVkImIK54Wuc2e2E3WY0bAkz43r+9giUTvai8IOWAUfAG6aJkmG60fGGaW8TwiYNaqtmBk3TkM3lFesE8N579uM7T27D0Nig5fN3NVEeyOdXhBMrt91nFhcxOzWCvZu6cWRgpHYrQGCslx7cg5juVSwsmSXlelgWgJ2be7B3uxX4liuW8O/HzkC4TYcUq4JQAuik0snPXt3VnML1W3vRGI/h+OAYnj43gLxhBtohw5+lEKj776vOF7o9sMzDzis4VuXPX7+1F7/2llegyU5BPD84jO8+8lQd1Fsuf9JfURa+DGlSlnGwvoODrjoBYJfxg7Oqu6z8XROc+5caNV8sIV8sYXYhg8HxCd/+mqYhEYuiMZVEPBpDY0MSjckEErEYOlpb6rtorO4rvJK/FtbiPcTq/EGZUgNfCOEKP6lZgohzGW6q93Viu4JXaIUP5KXwqbn9dtqffT2EkDCltLV8yx1gGIbrFjBtF4FDEBzz/6auDrzz9S/H3m2by47LGXDTpkbcd9Mt+NK3LgDRWCB3H4HGMyG57PY6IRlODAyhq7nB+5yr4Yd9nvly2cGA5mQcd+zZ6v7WZ/oHIUy/7x+Q+NDPeMF/g9Nz+OGJ8xUq5fHQ+03XOboaG5BKxHBubAqz2RwyIUqEe5FUAR3cXmvVPnWZV5gffWPJss+3NqTw6z/xChzcYrm/0tlF/NlnH6ySilf51q0pvS8YM1HQsDqm95UYkwgAoVbLgWkis5hDJhdeEjOq64hFomhuagBjDG3NTWCMoaO5CYyzpUkCYVnszhJ0cFsFa75GuBxOvB7zVXBby/SoytwV0tXPLerjmP+FlfdvCXVLyBumYZn9Fc3fdGIE3GBBhwBIvOv197vBcqHPggT2bt2CZFMTFvM5u1uT08oXip88uOxfJ4XEpek0OpsavfWSVfl8+Vi37tyKHZ1evZC/+9p3fPX/nWoH1+/Z4d4vj525iKGZ+dqKDCo3ytxiDpPpLEqmWa0gYc2BkB65qXLcpc6rLAvAKwbBOcNP33Mzfurum93r82effRDHz11cNoetW2SKy3jKrt2eP0QA1htKhomS4RGEofEJ5cGxg9YYRyoZh65raEwmEY1E0JhKIhbRLctCLIbGVJIuZp1SUbqp08IiA/aDLu1e8m7dgDCz0Bp0CSw1ZfryG6Qa0Cdcoe6a+A0RIANeLIAj/A1F+G/f1OUKf4sYSHBm+b2d84rrHD936xb861M34MnnnwAiajAgqiyjbF2mUMDcYs5WllmgAt7SY730+j1oUbqODo5NWFYQxQKgaZ5WXzIFvnv0DKRrSVhCiNvLhilhGKXygoSoIvydfUWV7ahjrDqPdde+HfiVN70cuv39T57vxw9+/NxlSPZrufA2EYAQM49fwF1xOygqZJexq3FZlj6okAIZu6nG3Hym6vk2pVJgjCGZiCEWiUDXNLQ0NbjbIrqORCKGhkQcq96KcAXGXrUzYv4KZMIuQyulhKZoQpxzuwZ6HSbNNWTpCNxIrvYvbEFtVUy0hL2X3mdr+YaXEWARBdMN9DPtiH9pxwy86/UPuIf5+rNn8fvfehxvecl9+PA9O9AS09zfsjWu4e7rD+DJ488D0oTrK3cFEnPP1VdlL7A9XzRwemQSjYkY0osFv18bCFnm7ljJeAQ379jsS/9LL2RgmgL5XA6FUgnCNLFDyf6YW8zhX4+e9shfmEwLE7ZlJEFWFswIrGNLaO/quSw1VvAcWYhclkBXSyN+462vdIsjTc3O4aOffXDpB1RWf3rrShFkAetEvU/dSlT7q/qx9dcdiCwA1wjSi1kwMKSz/iZBYelqjAGNKSu3Nx6LIhm3gn1isahNEIB4NIqGZAKMMUSjETRtIEsD85EAS2tlriCxK9GBue4AhwisFwuHT+GH0uzHqfvvpPNJAWF62r7j1zeECVNYcQCWtcCKDRBKoSAhJXZu6sZOW1gWTYHRjIGjx5/F9t5NmLxpC5qimuuKbonreN9de/CVH2zG4MhFQOf1lu+3A9wl0ot56FpIYZslxtrb3Yk9PR3u5fnVP/oLnD93wb0e0iY5f/u7v+Lu870XzmJ+MR9uXWCKlA1dVprr+IRxyL51jeXco3KFxmL40Gvvwytv2u+e4kc/+yDOXRq68vevppSJvhxBS/EARAAIlbFgEwXnnYUShfJ1EV1HwiEM0QhS9jJnDE2NKbdiGAC0NDdBU4rltDc3g60lSeq0wLUbCrltat3geO41EXJIQLCW+hqYCGSF7+UEtJlC2I32pCXopW3CN6UXByAsU79p1wUwTdPaLrxgP6cOgGkHDb77ja9wDzkwm8cXnjgOgOGJo0/jb7dtxx+86jpENe8Hj+kaDu7Zh6GhC9Uz1ZbIsBOQKBqyXFteYqzbdm/B1vYW75yHR5RUUeua6bqGmw5aPQJKpol/OXLaX0dABrIAgmV4fVH2io+d2fZ2374s0J0vZCxUGkuGf67e8wLDSw7sxodfe5+rLJw4dxGPHzlOk+QGwBogAKyGLOsN0Hi5yjdXtc0VGPSqyh7DNBXyAEyhsjuDBQr2q9YIxoCmhgZvG2dobmzwfZgzhmQ8hoTSAtoZo6WpwV12Ku1FdL2ipaKqN5J5v4+QwmtMx6VNAuzgQMbgpLJ7Vt0r4edkVb6L9JMZePUOrPgGW7uVwk31cxo/SVjWAOt7AwzS10PBFALzmYzrKjBNE0JKFPIFcAZs32TVyc8bEiemFjEyMQxoOianJvDjE8dw/OYtuKmnwbUCtCajuP+G3Xj0+RZkMwsA18J/nFqD7ZbaHjCb37VnB1KxKADg1LmLWMznlSJQ1od6lBbdwzPzePxs/xI19FmgN4C6HNbjwPpNyj9XoZ9BsCASr3CBahkrZPu29hb88bvf6NZFOHdpyIr6r3oHBmr4yBW+w2t5WOuVFxtTxGxEC8AV8vuvAUKwBi/VFTsRKa366yrm0pklLRBLbatoyWAWQUjZLo7gRMCUGgCtTQ3QNauFsKZp0DUNumZVD9Q0btUMcFro1nBzNaWSiFTsP2GdRDZXQKFUUq5PlewDe4JUBbqEFSVvCXWr1PFiIe8W6pG2319IAdPwggDn0gteXr+b52+1kFa1f6FW/ZMSvZ1eCed0UeBfTgxhYnwE0DQAGh47+hz+357r8JdvOezu1xrX8IbrN+PTvdtw6swRe9+g8Kyg4ZYJ14BAW2J7UyKO/Zu8yn5/8Ff/z9eE0MGL77jFXX7q3CUMTM0q2rpaVCiYgWAvq9H6YdsBQHK7giAL1PAP2RdLbJdO4yS59FiB7Rrn+JU3vRx37LGq/RmGiT//7JdxYXCkvie6Rt87U5hZZWUo4DKRbBWmpGsnHoBcAASCjZJh+DoZlpFDO1Budj7tFgfSdc0iAboOXbfIAFfcHLWQuuqlgGVFghTcLgM+SBHWsQ+ewHcEtmUNEG4fAGFbA0xTKI39vCp4wbNzt0vVguAvLpRZzKCYXwRiKYABplHC9595Aj+6dRfu29bo7ct1bO/djNOnj9gkh4UU0ZEVitUstW/l7bft2oLtXa2edj8+4ZE4wM0A+M/vepu7zz8/dxKGaQZU0mqmBtS5b60mjHqOW/tYP/eS2/EfXnqHeyZ/9tkHcfJ8P00UGwicLgGBUK+y4HTGU9LhDAOlkoGSYcAwDK+YkC2flm9lYhVenlByBK6Qji/eSd0zbV+9o6U7GrrzUjrbKZYFxxpQTjpkWclgSLVVMNy2gL1dXjBdrljA8MQkoCn6Buc4de4MvvK0v3Pc1qYo3nrHQcSb2wAnP97VdIO/CLuspjuq4Lt151b0tnhEZGJ6poxt9Xa1Y7Nd/39weg7PXRhWNFLmkQoWWBe27O5Xw75Lbl/5sW7euQX//c0PKKb/YfzLI0/WbdVjV/7hXIMHWLshwnw9Tr8rOo+yK/1tvH/r/busxEmVzYVX8rvUcSw3sNsO+FOFsLD934ZRQqlUsqrjmSaklEqcA6ubBKjXhrnH9mv+YcI/GLnvEAKHlEjptz54QYz+ZU/4ybKYAinVqoFwMwgcQ+5v/pf3up8wBNA3dMny6fvLYeK7Tz2Bfzw56a5KRRiu727G9k3b/ZpwWOAeVy6OWtmujoBBMCCi6Ti0rddN/zty8ixMU/oKIwHAS17k1b5/7MxFDM7MBZsolJtogtvVZeazoQS2KzdoLWOFrpP+FEModQqqjNWaTOLX3/IK7OvtBADMpRfw5597MOR5qfwAVX2sKk4T/k+FzpJhn+PKq2y7+gChtlfZeKs4BhEAAmH9WAKCgtgpHWzaNfFLJcsS4JAAnx++TlegomB7wihE43ffzWDanmnn6Jdr/H5ZFTA519o0TUrfZxwS0JRKYs92q5veQtHE558bxuzctF3n3z/YueFBfPMZf0T5LZsa8dbbrwf0iP8YZSckK5xkffvu7m7Hjdt63TW/8xefcssgO99TSuDdP/E6d59/ef4U0k5Pg7BiULWU5a1l+0qN5csAqL7vB155N958+yH37z/73JfLTf/sMh6iGhWlDaN/ruEcYYoBIBCWCzuNTu0oGBRYDFbRIJ+mzaoPGvTl+1P3bT+9CAr0QMCfIujZkg03av6y3jkEtkiFOGhKIx3DlLgwMYPcwhwQiSrDOKV+Bb779NP4vwf34edu2QSdM8R0jn29HWhsaMHCvEMcqrER6fs9/OvZkuTg+i09rrYLABeHh/2aMoDGVBIH9uy0SE2ugOf6h/0CNRiXEBTelfattr0SEVjOWLK2sd542yH80hte6qv298izR9fOM2fKWm/TejfW+LGNVSNgjVgArqyZf/UtzeEnsWxWu2bM/NVOrI5Pscv1i6/8KS7LgcHClGI7Z94wUSrZLgHTtNIH4VgPgoSAlSnVToyBk4PvavVOFT67Ep8ahe+aq9UMARZ2witx4aVf5ioyuFPpU1EyTUzOzdom+oB/3DaHTsxM4vM/fBI/GvT6YnS2tKKrtc1r1hP8nPrlLmM74xyHtvYgEY0AAE70XUA+X3TrJFhfjeHOm29wz+1Hpy9gbG7BqiKoBhUGtW2fGyW4XIUoIEx427bkWsYKOy7sLoBOumHIvrt7OvGR170EHY1WEbBLo+OW6X8Fn636d2RXfb4Kd1OwK3Loa4QAEAhXmAywlRmuzFFvC2/TtNwBxVIJRqkE0zADWnuIMHX87Y65Xnh1+dX6+67wN82Kwp9V/MIrbLstcxdI/NYvvlf5lET/yJAtLIMau/29TRPPnj6OM6OTyBRNAEBvUwKH9+z23AAy4CsPG8vXrlmGHKt8ubMhiZt3el0K//oLX1WsGV475I+8753uPj88eR6zbvU/WBYKhhDSgSrLrHxfBjuuYQXGClt23t1iFdxdn4rH8CtvfBlecsMe93v++ee+jPOXhmt8XGqM+VnG7ebduQwrdBpXWRKvHTZABIBAWGFO4Q8MtEiA9SqiWCq6gYKGYfra5kpX4/fa7Xq19oVf43dy78PM/yGWlmoWF+YrR8sCQXKsQq+O8hK2EgDnHIcP7ANgle0/PZ3HwNgIwHWUmSXcE+PIZObxyX97BM+MLgIAbupO4BU37EYilgy3AlQaq04rwOb2Fty6c4s73Im+C74KkADQkEpi/+4dAIB0Lo+nzw/CFKbf/OEjDPCvq7S81Has5FjV9gXedd/t+I8vf5F7HT72ha/g6Om+tf/ArffXVYa+LmfcStrHRpAmG/W7raG54/IvsSf8wnL4XcOsUzHPzggwTROapoFzDo07FQStF5T9HaGOgE8fqpYv5er6UJg/R5xV0JyCZxC3K+kBQN4Q+OJzl1Ao5m1TtlA+FfBNS6Cv/yyevjiKG7uTaItr6GltRWNDA3KL8wA0T3D5fO3BscKWK2/f0dmKzW3NAIChsQmMT077hL8EcOg6Tyt+5sIgTg9PKIVemNJbgCkNgQLbw5YrbWchy874wtf4YOmxguOGnPdNO3rxa295uVum+9SFAXzze49i5br1LbM6X9jntTo+K5c6jUq1F2odczX6EJAFYFVMuitPulaZ1q34cOH/Vut7hmmfq+b3X+ZPscwIBl+jOlWLDntJCZimQKlUQqFQRD6fRyFfQKFoWQJKRknJGFCsAYppH8Gqf/aFXM7XruV3CHUaqNkPSlqi+gEWoApSCuSyaYhiwZ5tuGV2dtL3VMHJNeQyafzdQ4/h/IwVC6BHY9jc1Q3G9YCQhZKzjvKxJKxjcO6dbNnnAV3XcMsOz/z/j//6g0DCo6Ul/+Yvvs9d9+jpi5hYyCgpfPAvuxUKK2wP7ltpOwss+7bD+161jOXKOFk2fldLI3737a/FNrvE8cT0LP78c1+p/3mp6CevM0Ww4o7LcGGxWk96ufPy+o8HoCwAAqFe+h6WKSdDIuPdGvum2yCHMwbONatqoK7bpYR1cI3X3MJhteYNr0qt19WOKQyAwf/uMApV8G/u8aLpY7qGkZlZq6ytKoBkQGtn9jLnOH/xFL5xpB87Wg/glq4YXnroBhw9ewrSKCnldAOaNgsZy+3cWOFYEmhPpXDHnu3u+R47c07RDK0fuSHpN/8/3z8CaVdPDK1GyLnfQlNWrRBLVDMMbAdbmbHC9mUM//U19+ENt3oBjn/++a9csS5/NevdjGYdIgAEwqpPR/5FNaZMKv95pW8Bxryuemr6naUICtsC4AXrWTVrOAxDg64bXhlhmwRwzsGVzAB5ta+JmrpovzP13REsNmG45QavZey3+uYxNjVuFQCSAU1dhpi7uQazkMNXHn0K77htJ27oSmFndycaGxoxPzcTMI1XMZery6i8fXtnKw5u6XbP91z/oL8mD4C9O7a5208MjeNI/3BtwlY1uVTaXjMJWKGxAuf1M/fejF945d3uqv/7tW/jqWMnr7Bkr/MON1aQDciVHINhPfpt+Rqadi/bZLIuzPyr7jlYjql/HZj5L/OeWErIwVeoq9yUz938fWbXy7dLAbtFgAw37a9YLKJQLKJQtJZLhuGl7hleYGChUHRfxVIRpmFa2qWdnsac+gHBC75Sl7AsFdG+VxThznz3VflV9SoIWvvs3uaZ1C/M5HBpdBBgWvmcHyyF60ymehQXBs7gEz86hfFsCe+6uRf7t2yB36ddYc6VS0zuanQkGPZt6sSm1iZ388TUjJKhYVkBfkOpaPjcxWFcmppVrA8yfBnwKhNW2tf56kuNFTq+baHgyx/r4OZu/PbbXo3WVAIA0D8yhi9956GVm1VrKgW4jBRBp0HSSrzUo0uuvJYxxrLP4RonAFdCPrCrfOw1mP55Lev35VJBwh/ADSUAz1eFz8nNV8rt2gLdKNkEoGi9isWiJfxLfh+/KQQMJTvAIgp2TIBh1wwQQjFDy/LzXyWG5bn0ma+UKmOqJaC8fgFTAtXUoEghTKQzC+U/AAsREm4aHIdZKuBfn3kOM9kiWuI6DmzbGki1q3Es1YzDmVI6GIhFddy0fZPbMvr5k2dgukGKljVH0zTcfP11luJpCjzfPwShutxV8xBjfkJZabtqvQBbgbFsgeXm9i993KZEAr/9tldhr+2umU0v4M8//+V1OruvpQlm/c325AIgbEghzypu9auNqranpoo7QsAxxPvL8Frld63ueghJ4xM+LTuUdtiC3SEGjtvA7dSn6252AFeC/jwLulrs5fKsAFbPAusdnjXf1vqlonxVIAHMswAk4l475fTi4vImQy2C8wNn8EcPHcOfvvl27N68DRHOUTLFit0rzYk4Xrx/l/v3//7k59xuj84l3aeY/8+MTODp84OKST0gzCu6JZba9wqOBUDjGn75jS/Fm5RSv3/++a/ghbMXaAK5BkEE4Mqqm4RVv9z+4DRVvWWuwGOuUPcJd3gtc522uHCXpa/lrVC66AVL8dYLKQRMw0QJJbeufyRiukGCTNMsF4RKY6RcFY+jLxDQCZhjDIwz+08WaE7kXVcwIGF3jwOAuUwGZVXt3L70CK9a5xxTSDxx5Bn83bZt6GltQG9HFy6NjSim7ApjhS37WgBb67Z3tmBvj9ex8OLQsJIBYP3mv/ffPuBuPz40hvNjU/CVF1aLDvkKEFVITVT3DUtjXGqssO2clRdGCq3xLwAwvPVFN+LnH7gbUbtc8+mLl/DYc8e8ANSqruxlJNEu6RqvbUx3L77UrstMOVzReIAVunbXFAFgta1nqy5va2xzydaGnL/8phlL+/l988iaJlZKfn61q2SnpEufYIfSLteuwudroCP8bXB9Qi2sF0B9EEJ4sQKGCdOMIBoViEQifk1bJTRSWpYAuTITihMHwCEhmGn79qUSD8Aqpjs61oGEUgdgIbsYPh+zMNOpX1OFpuFcfx/Oj47i1952G774/a24NDaMspgBVrMJSDkMww1betCc9KwVC5msL7tD4wy3XG8FNJpC4MjAMLLFkhLwWEEgB7czWGZ6i+n516POsSotu1YC6R0rZN89PR341Te9HF3NDQCAofFJ/EXA9O8rFSCrzzuyHhKAWsb0lpYc28dYVnhukcsU1hXHIAsAgbDqkEr1FlGhYIdj6naEutqtTzXtC/tvtYteZaF5+YqDtNIFLIFj9w6QASsDY15jIagWgBUkAf48cwkmralezQZgYcu2UIhGPQKwWMgr6RMs0OpWLWYTUthGSkCL4OFnf4wn79yLPVu24IdPS//2JcdSj+uti+g6btu51ef/F1K6ef8SwN5dXnrg6NwCHj55wU/6lpOSh2WmAtaa3ofK25viUfz+21+LW3dZVQ8LxRL+4vNfRt/A0Dp7yNnKa+5X3BpABIBAWNqiwcqFbbD4jueyl0oJVwnpaBGKed+TB1LR8j3/f5AQSCEgr8KTLKWEYZhgKLktdk3ThMY1aLpmuQUAXyCeP3yhvnNW4wA8oWFreUwR/pxZhIBVfkUj3pRSLJbKi7n4zNUVJk53u4bzAxfw14+ewc6ebkuDdksK1zBWBUR0Dfcd8Pz/v/OxT3mBoPb7733EM//3jU7i2MCIF7inNuEJW15qu2tquDJjaYzhg6+6B2990Y3ud/rY57+CI6f6liaDcsUf8JrGrGhhEGz1hS0RgCts1g3cFKvfC7p2M38du18ZoXgljseuxk2gfE8W8t2VCHN3b4aylryuuR5OIR4vet/Vpm0/vxPUx1QtXCm3ezWfYSklDNOEhGWJ0A0rJiAirUdWU9IE1c+sjEWAgTMOyQW44AATkDW4ARgDDNuKAQCRiGafB6/qjy/z1yu+fSklnj99HPu3vhI9XT0Ym5oM0Y6rxQGUxwl0NKawf1OXe57n+oe8ZkqQZeb/Zy8OWeb/svljKf9DYF1wQvF166tzrLDlsvGtda84vB+/9Dqvxe+pC/34t8d/vOTsKIOHkpXnJbkcU7msvoGhxloYVS32y4xbqGRxWBG3x9pxD5AFgLAW7HrlE1fYxOLbTUJKT8sXjs9e9d0LJ1jPKbHrEADheyarPeJXK/ZBSul2+zMME6ZuwhSmR2J0HRoA2NYAKVeQrvjSAaUv0M9fG4FDONvtOIBcruAO05hIKgI5IKCYImFYQNpI9TMcZwcuYHxmFtft3IuxiTHLClDLWCwwlr3ujt1bXWF49FQfDNPwfnkJpBqS7ndI5wp47MxFtcGDv3VvcLlSIZ9K+1bbXs++Fbbv39yFP/jp1wT8/l9dSWWdsI5BBIBwxTT8pUiAhGLGd+djGT4hKeZ8uAF8ftO9RwCkl2q3NkwetdMi+/xLJaXCICyXgK7r0O10QdUXb8lQFrhYS1l9wt0AvrK9IdkAnDEIhRTMLWTcMXu7bLM9+PKUWju4rVgs4rnTp7Bn23Y8XNatsD4FmjHgnn073M3f+eFjZd3/tm3qcbfPZBbxg5Pn7bLCWLrGvy8av5Z96xm3vu3NyQR++ydfhVvsdseFYhF/8fmv4PylYZqS6pm6NjAL0tfOdWar8MutPZNLrddg1c3+qxLd7y+C4QtSBqtyPKmUX5dlJnq1IY6UKlGwBaSyr9pBDzLoGpArErR3tSwCpikAGJCQMDiHbpiIRAQiug5N16BrGhgvq13spj0u6260NXynFoFUKiPKkGqJmeyiO0J7UxNuP3QLnj7+nL8d8DKo0Mn+czi07zrEkg0oFHLLdnO0JBI4vH2T+/fpC/2++0kC+P2PfNDdfnxoFPO5giIJ1HdUWF5qO1Z9LM6Aj7zuJT6//198/quK37/O9LvgXsH4HLlMdwCWMsUF7l1d1mZMrNnqWPeDuHwD5xoURxu2EuCyRdiVLGe7wVHbsyIDVfYETGGXzTUNmIYBwzCsUrtGCUWl1K73XnLL8DqpdMK0GvB4RXbkBrieluZfKtqdBQt5FAoFq4ywadopjQhpE1vvM8B8pVfVaH/ulv4Nrw54ROkh/96bOnDvTTcjmWzwp2Wo1fQqLavrGLCYz2FyZhpdbe2AUmip3rF6WhpxYLPn/z8/MKSk/0nEIhEc2m+1/82XDDz0Qt/yzQ1LLTNmpe0xdvljBda99qYD+MjrX6L4/Qfw748/vTL8fqXmxhpLparlqKtWLXcKIjqvqvvWMFbFz7H6Ps+rnBcRAMIGEvmBvHmhtLg1ra54dk18w7AEvGEYMJxyunZJXXfZFvyGUYJRKqFkbyvZZXedErvOS22nKwLFeTaCFc9xZRimafccKFllhAtFr/SwQoDU2gW1zDqqdUSd73zFIBw3gBL4xxUC8IMnn8XFoREAQHNMw6/ctxe7d+wHhOFJ4Uotb4PmbOV0i6USzg0PYVt3t22OX95YBzZ3oU3x8c8tLLjpf5BAa3Oju21qIYsn+gb8bDbYgCe4rJLNWvattr3e49o4uKUbf/CO16LBLsp0fnAYf/H5r9D0RNhoBICq7S/7ktV0PYMaHlde/iYy3hwk3dx5IQRMu2a+YZiu4LY0dkdoldz3UrFk1cMvOUTAEe7C1ear+vKvMTgBgqVSCflCAfl8AYVCAaVSCabpBQxa9QOsF2P1WAa8Rr9qcyBnCB6SBcAZwx998nPuCMmohlffehP0SCxYnAG1d+8BhGlgZGIUsXjC3464zrHu278LOvemPdMQPouB6v+/MDGNk8Pj9Sv/yzEUcHZ5RgX7vS2VxP96x+tw4zbLzbGYy+Njn//qEn7/lW1yxsBWeK5ifsKz3BcCL7nSL3X4Ws/p6kJfCxJp5eIs2LJ2Y1f8215BYV/TuQTq5rHwmYb5nkM1f9ProGb1sZH2stoaV7UMyLIiN1BGU1PwgoVwSPgHxJoQMAzD6kxoVxCMRHRE9Ah0xqBp0iVy8F3T8KdODQZkzImlUCoC2sWIuJCQHJY5nsFHLJ4/eQYXBoexa+tmNMc0fOjeXfjmkwdw9vRzAIuWZwWULYesA8NCJovp6WkkU43IOn0GfHXwZdWxIhrHjds2udfiuRNn7HLP3pX4tQ++x70WT5wdQK5Y8o7jay+8CvfhZfZ3YAz4jbc+gNfcdMBd97EvfBWnLgysSCXaeobwUvjkyk5mplgxaVFPkGz1z9e9kSwAhDUgPMqcpmptfM+MX27O98z6loYvfOZ9z7SvmPLdVrney2md6/Pfq61zFbP+cuvsb3grgF0voFgsoVAo2C+rvbDlJlGvY/3X0PMAhLkBEF4PAAx/9MnPKoNw7Nm+C1xtu+hqc2HLIesA5EsFDE+NI5VIBCoB1jbWzq52bGrz2v/+7sc/5TudaCSCG/fvBQAUSga+d6KvwhWp1oO4HsvEcvsZh4/1U3cexn986Yt8fv/vP/Xc1bEyruXxrvwB1iwoDXA9oKa+92zJ+7mscIeSZudp2s6EL33KiF85kUr6sVTWKdH4FSwAqgmfAi1XngyUDMP3t2ma0DTNTRfk3O+2UX/7apOjawGQUnUQlaUBOq6Avv5Bd4SWuI4337wHTz6/GTNT44DGQy1M1SdmyzKRzS1a1QY5qyJMw8e6rrcD3XY+PACMTEz5BOqWHi84sH9qFqeGx+GvTeAUFQo0InK3I7wGAcKW1bEC28G97yJrGQu4c882/NE7Xuf2N7g4NIqPVcr3v4KpbXX1DCAQAVgxtsYq3/DsKp0vW+bXq+Y2YEpedFglvVCznJS+yd8vwD3VSd3mKlbS66LnXFi1SY5qpndT78Auq1seoQ6rjltBEDCFCUPToGu63WEwAkCDpllEQNrth4OuFV9NAHhuAASK/jjlgbnkkFKCcwEhrPXZxTzODQxiz/ataIhw3Le9Fb2b92BmcixQFKgSEQjfXrTjG0K3q8QmpMrezTu2oCHmdStczOVViuNG/wPA8xeHMbWwGDiEInjVbmBqSeKag/ZZ9e0yYIIJO5a9fUtbM/7wHa/Dzq52AMDU7Dw+9oWv4vzgcOjwsq4J6DL9BSvpAWCwyKNcyYHDzrOODoI1f8+1Oe9dOy6AdRwrKJV/Fe8tGWhLG/jnjqPWwfeZ8k07Gr/chF8qGW6wnt+U70/Bc0z9zufIhH9VGIAdHGhYaZKFopUqaP92ppIdIOupahoI7nKbAaFyWeA//ITnBtjSFMV77z0EROOANBUhLf3LEoHIdv+yKQSKpZIyp1be12fCkhJ37tnmqwBoKmWLAeDOmw+5yz88dR55tfzvlc4CCOYiVyjznIxF8N/f9HK89OBud93HvvhVnDh/ccnf84rMh849Yv+7/PE4wDnANPvFr96Lr8AYZAHYgNaHWrR+VsEcJ8uFv7pN/VtCgtscbikzm4TV2c01/QfT5HwaenmQXpgGH1ZUh5Fd/yqTRXjFkKQEYxbBc8ifQ8h0XVcEOVvyfras0NJfcVDtBOjWB4BrITh2+hzOXryEfTu3IRXhuHVrB3p7tmJ04CzANaWELfzLEn5hxyotM08LC24Xfk05FY9iZ1eb+/fvfPxTZYT0dS+71122qv8FghR95YoRHsQYVvo4bLmWsdR9Q7ZrjOPn778L73/5ne5veOLcRTx59AQ9CAQiAPWL7grV6ipMkKzSX4wtaQV0NSpmTaxe9dvyZVVo+4hBwIfvrlPHk9JPAAJCXTUdB83/6ueDy4T1YhCwKggyZgDSam5jCoGIaYJzDk2zugtyOzXO7S7oVh5UZJC0uwMqwh8KgQimAwoG/MmnvoBP/eGv29pqDNt7NmN06BwAp0SwUsGOKWWHg+vKllHbvvb7DVt60JSIu9dlZm7ed51uun4fkvb2IwMjGJ1NBx5cGX78smU1aKbKvjWNVWlf66Rec/MB/Nqb70fM7sB4tv8SPvaFr9Y9H1ar8LfSluvlxgSwqlvWwLy0TksGrwMCwJa1qf5HoFqp2ho0fVbfVwiW/XWN9TJQB196wt1fBtcf6aya/n2CX9UGwcoEelg3OSe4j7BxYJoCUpS8DAs9YnUXjMhATQe/JccXH2DLN19NAIaQioAcjEnwQGXAW3pS+Nk7r8ePjz0LUcxYJlTVpx3U6t11YcsBrT+43b2RrRW37NziBsgBwELW79///z74XvfPh144i4LjZvA544Ppkw7JALzAPa64IEL2XWqssu3h+x7Y1IWPvvuN6Gyym/yMTeBjX/gqLg6P1iDl65lHVz5/cOkUwcrSVH75oxtLMX3g/UQAro6pVAbuT3/Uex0G1/LPBdmACLcAqPe66p93HhJ3nahCACTKBL2ErEgAym7AUDM+atqPsH6sAFJK6zY0veJKEaVYkJASnHG7YBAvI4BOtQ7JAs2BmGr2L08LFKbA0dN9OLx/LzgDtrU3o6OjExNDC4rpXhXYUJoQVdju23ep7dbp3rC1B8loxP0++ULRff40ruOmg/sAAIYp8OPzgyiJkA6VVczxvu317MvqcwPoGsf1m3vwe29/Ffb2dAAAZtML+NgXv4q+gaH1oc+RbkEWAFWwMMZRMUyfsSWJ5VKiSQZCNUMzbEOiQGXFrCJZPRJVmYjURiMcAc3dHjvol/eZygIWgKB2r2r1lawABIKPj9pBgk7BJSEFdMOEplV2CTjtlxmkEgDopQP6awJ4zwFjwOe+/h386a9/GACQSqXQ2dKOyZGLXqv1lSuBH7ocj+jY19PpfpfnT5zxZay0tfjL/x4fGvO5w3zWBo+xK+mAKDfTSxm+vZ6xpDdWLBrBdb0deNOtN+Dtd9+E67d4FQs//oWv4ujpcxvsLiWmcA0RgCql+ZapeYb1yfLLbRkgCKrQD5ji3aAnv7YOKcMtBkxJj1OEMpN+rSxoifAJ7OC+lczyIWOCTPiEGqwCVrqghBAmDM2ApmmI6BFEItKuG6C5ZYRNIcEgAMEBZtrxK97LifFmaglp+1kYm5p2j7sppePOA/tw5sJJGPmcFQwI+PvaA1V73Pv2rbbdfj62d7Zia0eLew6/+/G/880/N+z1Iuif6x/G6Ey6fJx6GAdjHhFQU3Ml6h6LMYZbd27FT955CD9zzy3Y2t7i+x0//Y/fwePPH7+sfPuqRn7fxhVwBwQm5/DMAOebkNVxwxMAr+JchXurDt962O0pfccJ0cAB8EAvel/+exgBUCrlhT0H0p6cyiLnQzT4Sg8tq/Dlwk2zBMJynjvp9hOwtH9dSdkEdB3QNK2cyCrxMpXjADwScPrCAPKFIuKxKA60RXH3ni34SqIJ6XwuEMUfIPxlUf5QSxNW36640K/f0oOuJq8AkENImL3fL/7c291tj56+gIVC0R+H4ATV+gr9KNo6C9PiUWG7qHmsm3Zswk/deRN+9t5bsK3DL/gzizl8/AtfxcNPH1nHOv6aD+0jArDaMEolQGiVNVbGqv1ZhSMwH5ss0+yDe4YE3XnFuPy3qtqjPvS8lUhqvw8+RIiT/CZcRRLgvAshIEzhknEhrSZOmq6D2y46xrhXlI4xMHClOJDHCMpKBIPhD/760/i9X/p5AMC921pw464dePTZCTtqnq2iBUBiX2+nLwAwu7jomv/jsShu2GdZAPIlAyeGxq36AG4AoYSvuJDPfI/yZbcnQYXtstJYXv2AXd0deOeLb8FP3XnYZ+oHgInpWXz8i1/F08dPr38JSVKeCECxWITUaicAqJkAqNYAj5mHRQEolW/dPGqfoA5hHdV6zMsKkyyBsJYhpIRpmABKlluAm4hETHCugWsaNA6rnDCDFcEvBGAHDC4VB/DtHzyKX/1P70JjKol9bXHcsnMLHj96BEIY3lMYDOqDmhEQWA5aACrsq+sadnW2gdsndOTUWbcpIWPM1/3v/Pg0zk9MhxwrGPW/RPR+te1MKfEbSPFrSsTxnpfejrffdRh37d3hF/wzs/j4F7+Gp184VVWjlhVnohWQyapxRq5Qid8qXgWnQiOVEt7ABKBULwFA/QQgOIYMIwDVnpkwAhDw6VfanwQ/YR2ZBCwXQKkE02BgzIBhRqDrVmwAi+iBxkBw/f9V4wDsLQ/+80N430+9EQCwubMb0Vgc+dxC4JmRgRx+VFgO5NtX2LctlfSZzz/5pa/5vsP+3Z6gPTowjMHpeX9aYahAXaqBT40NfhSS8bKDe/Dh17wYrzp8HeIRb1rOLObw8S9eWVN/TdVtmUUCKs2pK3s+tYZ7E9YdATBN0w50vXIEYKU/TyBsCPkfsGxJaVqFg0zdSkWVEpom7D4CTp8AK++tvDNgwBrAgIySe9/S2Ij21nYM5zIh+f0or7MeGtW79L7bO1qxs9OrADg8Pgm1tfW73vJad9uT5wawkCsEpVx55D6rLXJ/ySwAxrCppQm//pb78ZMvuhHdzV42ghACH//S1/DdR54iJYKwcQkAgUBYuxCmCRMMRZscaJrmCnYrVdAyO3PGITUJISWYlOCSQwjhVQsEw5FTZ91xf+7GDnzzqV0YHh2EGxjnkO2a8vvDSuuWL+/qavNFzo9NzrhZR9FIxPX/F0oGTg1PBoKE1bQ++Ev4+oL8UD3PP2TfWDSCt91xIz7yuvtwePsm10UBAH0Dg/j4F7+OvoHBpbWVVeQGS7roK5jvg8F9ZMInAkAgENapVUAIAWlY7gHOGTjjYIxDj2h2TAAH4xxMqBUFvU4zTnzg0dN9ONF3Adfv3YWYxrF7U7cXS8CChueVcQHs7GxDwi4AdPLcRRRLJZcA7Nu51f2ex4fGMDA9588ykBWsDqhidajBKrGrux0fee2L8f6X34mornnWiYkp/OWXvoYjp/qqC/26RPjlMYXaiwmuRKOfagejfCciAAQC4cpbAaQADMBkVvc8p2KglBG3cBBTMmNgZ7z4SgzbVoBHnj6C6/fuAgDs7O5FTNdRKBqB6H8RnhGgLodlBAT21TSOPd3t7vf4yne+p5Q4Bvbt3O5uOzY4ipGZebgZCargZiiP2lfXVTL5B7YnYlH8xO2H8BtveQD7N3X6rvHJ8/34yy99zV/Kl0AgAkAgENaENUCpfyG4FZ2tmzoMzYTGNTd9VkglLoAzMMnBhYBggK55Gq+pRdDV1obB0ZH6y+Qu5RIA0NPchD12uVwAGBwbVzIUGN75ple7204MjiNbLAXGkhUsDcGGP9UsEdb2HV1t+C+vvAcfee19vsJnZ/oH8Vdf+hr6Lg3RDUYgAkAgENYuGKyOgFJKwDQhTAFmMHBNc1MBwZhbyY0zDsklBGPgjOHYGa9k7c1dCezbsRuDYyPKAdSueo4WrdjQWaDrnrqvuh3AlvZmXwbAxPQMOLe2NaaS2LPdcgHML+Zxcnii7PNWvmNIPn+ddYpfeWgffuUNL8UDN+x1t6YzWfzll76OR5875l5XH9mq1WS/ZBpd6KbVuDGqnMcKZAswUBIAEQACgXCVGYBbLMs0hFtVm3MDYBwaZ24JYf/nrBn8yEkvEPD+bSl8efNWPKzpMEyzTHAu3R0PVbdva2vxRdbPzKfd+IQdWzZ5WvjoJE4Pj4eMZX85r5wols4C8IZIxWP4uftuw2++5QH0KP0GTp7vx1996eurYu6vKCPV30OubjzAkgSylk9T5t+1QQAYEKGfgUBY+4JfLf7i+PuF7RawiucxCM6gaXajHaconpCQQkBCIrOYwzf+/WG8+RUvAQCkGhoRiydgZBdQVhGQKRXylvL5h1QB3NbR4nYAPH1hAIViyY1J+JX3vdP9amdHpzA4O1/2eZ8P3w1UXCIGwN6lt7UJv/XWB/Ce+25HTMnr/9uvfAvf/N4jdD+tML8hLA/8qv+inKfoZyAQ1tlMHGgCJCFhCqvVcKlUQqlUglG0XqZpWIGEdr6/agV4782b0NneEa6V+ppjBZaDFobA9oimYUdnq7vq2z941E1djEYibiBiyTRxfHAUhmGGjMVCxl763G7ZtQmf/cDb8Qv33+UK/5HJafx/f/Gp1RX+LPCqsGnV65qwpa0Ay4npj+h6Oz15G40AMEYWAAJhXalhLDDZM7ectmlarYZLpRJKxaJFBAwDwjTdgjbf+v6j7scPdiRw3bYdikavSiy7sQBnVrqgr/uQLN9XWW5vTOK63i73OIOj41bKIudobvQaA81kFvHC4GjZ533SninHd8+D+ZsS2ctvu/MwPveBd+AVh/Z5FoaBQfzvv/tieXpfDUJyNZLfmHrOq0UGavDZ1/vdNE1roadvZXH1YwCkFGBMo5+CQFg3DKC8Y6dkkBBuYyHH5G/JGqtgEGMcjDNEo1H3oyVToLejx/YV1DJf1HaK7akE9vR4CuPw+CQ452CMobtDqQw4M48XhsYDQX7q9wpxNUhZ5oqIaBref/+L8Idvf62v8dCnvvotfOP7j1DTmxWAkNKgq7DBCICUskBWAAJhHQr+wLayWjnCrgxoB80xxsA4QymgBXa1NKK1uRmz2SwguV/YV2z0U70R0KbWZmxqaXKHmpqbd/3/v/Sed3iWgalZDM2mvS8QHMuXYeC3ejjLrakk/scbX4b/+pr73MI+mcUc/urvv44fPXuU7pkVIj+mYYzTQ7iyuOouACFlln4GAmG9zOfB9tzM16zFtSo7rYHtIEEhTMs1UCwhl8vh2Ok+W3Nm+OW7tiHeYPvruW3yd7RuINz/72vhWe6P39Xd5vrfT53vh2kKcM6haRoO2eV/pZQ4PjwBKcwqY6lVAdVSwJaNu7e1BR//uTfjl1//Ulf494+M4Xc+8ely4V/FR7/UNV+WO6DKscpiAiq9VooEVDyPsO9W/gEGwBQiR0/gBiMAIOMYgbA+yYDiN3drAPhKAFtCRJpWcKBhlNzXb/3pXyuTkMSW7l7AsCsCCuGkDygCWZZX2/MJbK+JUTyi+RoAPfzj5+0AQIbmRi/meDabw5GBkapjeTNUoNOfBHZ2tuJPfua1+Nl7b3Fr+Z/tH8RHP/sgTp7vpxuEsOZBdQAIBMKyhL+vS50aF2grj263WLU9thCQErg4OOyui+gatnd24+l8HojbWjb3tOwluwIG1iXjMezfpAQAjo3bjYuAzjaPGIzMpXHs0hj8zX1ChL7P5G/3EejtxJ+96w147U373fFOXRjAX/3916mcL4EIwHLQ0d4GTeMYn5xedrEKAoFw1WiBXSRHMeG6tfeZXRvAqvUvpVA+xZCMNYIVFq3tXAd0br1rzA0yBIdlFRDwKgE6vQOcNrwMaIjFcEAhAJdGxl1rxUfe89Pu+oHJWVyanvHcCcGWvgirNwDs7GzH377vrXjJgV3uWF/91x/is9/8bn2V7q5oqb5lnsYKFBCq9eBMeuxL0zXs3rIJ/SNjKJRKIWdK2FAEYN/unbhh7y4wxjA1O4enj53A4iK5fAiEtSbjqwYCSn/nW6cpUFCoqL5HIQHTZOhqasb4fAaIRABEgQi3hD3nlkVAiPKDSAkwrkTsMzQmY9je4dUAmJiZBecWAbl+z077mBJnx6aQL5me6l+lsI/z/a7r6cRfvuctPuH/mX/8F3zt3x++Qpd/nbfaXSo1kDFs6enEjXt3IRLRsW/7Fjzy3DEskCxYFayFGABcZwt/1xLQ2oLXvOQe3HnLYTSmqE4QgbC25vClAwFd7TFQ0tXZbzFfcD+fjHL89K1b0NDUC+QWgWIRKBSs91LJejnxAaapdOsLrwrY29zkBgCeuTgAwxRgjCEZ99LzFgtF/Pj8oKf2ho3lVv2z3BLX9XThE+99q6+m/ycf/OYVE/4bWhAxhq09nXjVPbfj1oPXQbcDKnVdw4tvuRFNqSRdpI1oAWhuaozdsG83hBBl2zZ3d2JzdyemZudw5uIAJian7U5jBAJhTZABJRaA2dq5lF5Nfis4kLnvkkkwyWAYBo6cOIObrr8OEc5wx5YGtHb0AsefBnjE0vxNCWgaoHFA161ltTCQYlFwCAFnHPt6vQ6AZy5ecrX/TV3e+nSugOcvDnlR/Q4RQLDToPXH1vZW/PHPvg4vO7jbHePvvvpt/PPDT5Ah6DIQi0SwY1MP9m3fDE3TQ0mmrmu4+6br8fWHHuH0xG0wAnDdrh1LUruO1hZ0tLbAMAycuzSMwZFRLGSylD5AIKwR4Y+Q3j/+QEDlM3Zu/W/+n4/jW5/+S8CW9R3tXZY53yjZvn7TEvSaZpn/I7pFBByTf4h/OhrR/P7/0XE3/uBD736bu/7CxDRG5tLVTdL2mD2tTfjoO1+H1998wN30t1/5J3zrB48vaSFZVle/svOo3Roja/1gjachgz+qcm1Y/acLANC4hq72FuzY1IOuttYazkYilUigt6Otm566DUYAOltbaj4HXdexf9d27N+1HYu5PM4PDmNsYhKZ7KI/IplAIFwltVDx0TsrVQuAlK7QOnXuovvR7sYoPvTKQ/juP8WAUsES+IZh+/+5ZfoXUa9ioK5ZY3NFe2dAKhb1WQBGJqbcHgAHd3v+/1MjE1jIF7yAv7AMA8bQkojjd3/ylXjrHTe6sQynLwzg2z98/FpnfxWDAsOsA7qmoaO1GVu6OrG1xyNo9Vh021uaG+gh22AEYGY+bTakknWXAk4m4rjxuj248bo9MEwDQ2OTGJucwvjkNAyDKkYSCKsr6JeS/wxO81dWQbETUuLZF07i1kMHwRlDZ5KhtXMTZofPA+CWgDFMgAtPMEthkwPbNcC49c45IBlaUwlsbmtW5pcFcM4R0b0pxhTCqv8fTCUMdBSOR3T851fdg/e99A6f8P/rf/gG3QM1EISmZBKdbS3Y2t2B1qamyx5ygaLCNx4BuDA4nN+2qSd6WV9C07Fjcy92bO4FAKQzWVwcGsHE1DQWyDpAIKzC/O6vA+DnBAyMSdsF4DXwcUzxkNKWtQy/+X/+Et/5rFUUKBFPoqNrE2YHzwCa7i/QY5oeASiZQESzXANcs7IGNACco70x5SsBPDOfBucMEaUlb9Ew8fjZS4FywgrsssXvevGt+M033+8K/1MXBvCJf/gGBkbG6uBKy3AHVCBMLgla/Q/WbgWA9xvpmob2lib0dLRja08ndL5SLV4YiqUShsYmqRTwRiMA45NTuZGJyaaejpXr9NjUkMLh/XsBWNG6E9MzGJuawfTsHNILGRimSb88gbCSZMAVd9Ly+0v41GofQWBeC2GfWNIiiKSaPeuyapKX0ooJKJqW2d/QLJIQtYlCVAJMR3dzA1pTCQDAwMgYsrk8GONIJRLuYdK5PI5dClgA/KeLN9xyAL/3tle62QR9A0N1C/+NYuypRCES0Qg6W1vQ0dKMjtZmNCjXuFbTfq0U5ZmTZ1EyjBI9bRuMAACQTz7/Au6+9fASASHLR09HO1SCsZBdxPj0DCZnZjE1M4tCoUh3AoFwuZYA2wfAIG3Dv/QyAd26QH7Lwexc2l1uT0Vx3/W7cfpxHTKYm++UCGbMyhCAAeh2oGBMAhDgQmBvR4s73rMnTrvLjnUQAF4YHEPJNBXpI33d/nZ1teF/v+O16G5uBACMTE7hEw9ee8JfBeccTakk2pqb0NnWjK7WVmj8ygTlHzt7HqOTM/SwbVACACkEHnv6eRzavw97d2xd9eM1ppJoTCWxZ9sWAIBhmpiem8fU7Dxm5ueRXsggXyhChqQmEgiEJVQ6NX1ewgsCdKiBYjqenJnFpeFRbNvci57GCN58yzb8TbwFWJz30v6UoDxPa2dWfAAAFEqAEOBSYH+3FwB4aXQCUkpwzvDuN73GXf9Y30BgLLiFhdpTSXz0nW9wSwmnM1l88sFv4Pyl4VW4VCvgHqidqQUm3crH07mGxlQCjbbAb21qQEtjQ2DOlit3v1QwAZSMEp4+fgYTs3NWKWcqBLgxCYB1P0ocO3UGIxOTuOX6/Wi8goUfIhEdPZ3t6On0uyFm5tKYmU9jem4eC5ksFrJZGAa5DwiEpYQNk9INBPRq6rPyHgIAfuujf43P/OnvAbAq/7Z29GDm0iwsxz4CLXkddmGV5bWqAxYBoUGDxN4ejwAMjo5DSoloJII92zYDAHLFEo4PjdsCUaksCItUfOjV9/rS/T754Ddw7Mz5cMuH0hioXoG/bKFfNU+vfiTjMTQ1pNCcSqGtuRFtzY2IR6NXpd6K+tUGJ6Zw7Ox5FCmg+9ogAA6mpmfw0KNPYtuWTTi0bzeikchVO5e2lia0tTRhn2KVyBUKmJlLYy6dwdzCArKLOeTyeXIjEAgoTxBQ2wMzJ/gvoI2mFzLucmtzEzraOzAzIJTufyx8WUiA2b0BpInmVAI9SgDgxLSVEZSIeTHGs9kc+kYmbOIAqFGAb7vrRnzo1fe4pu0zFy/h8SPH1/1vwhmQiMXR1JBEMh5HYzKB1qYGtNoujpUkFJeLuYUFHD1zHjPphXDLBWFjEwAAEEKg/9KQaxo8uGcnErHYmji3RCzmVihUtQEAmJyZQzqTxUJ2EelMxnIlFIswTXIlEDaioq9UAXS1e0+oMibtv70gwDALQEkJyo1G40g0NAPCAPSYJ5UYCyzLMh/+ps42NCbjCrHIolgsIpXw1o3NpXFxbMoiAJzZRYUY9vd24ldf/xK0JK1Atkuj4/jEg99YV79HLBZBKhFHMh5HS1MDGpNJNKWSSCbC587Lyo5aqVKANqbn5nHy/ACm5tPUCO5aJwAuETBN9A8OY2BoBO2tLbhu13asZLbASqOzrQWdbS0B9s2QL5Ywv5DBbHoBhUIR85kMcvk8isUSsjlKbSVsNCuAvyQwswW0WwjIlz4GXzCZCYamxgZomg5TCktAS0Xw+5alIogkNrW3oCER91kWisWir/DMCxeHkMtkrfgCcIBLxGNRfOjV9+LWHVvc/T7x4DfQX2tb3xUwy9fiHtC4hkQsilQygVgkgpbGFBKxGFLxOFqbG8qOK5Y4KRa2hQUWpKztey/jOxvCxMXBUVwYHkFW6Q2x4uyCsD4JgMpUp+yI/Wgkgk09Xdi3YxuaGtZHo6B4NIJ4eyu6270sB6ZMeou5PBayi5iZT6NQKCKdzSK7mEOpVMJiLk93KWHdWAKCc7evHLC7Qvrm+tNKRcBD3TH8h5cexhPf/zZQWFSC/2T455V1W7vbfQQgk8lCMuDN99/nrvvxqXMQhaJVVth2L/7U7Yfw7ntu9uX7nzrff8WvI2ccqUQMqUQc0UgEzY0NiMciSMXjaGupXEjnagQrX46IHpmcQv/IGKZm52FUPHciAUQAQlAsldA/OIz+wWHEYzH0dHVgW283utrb1u2PkEzEkUzE0d3RBh7i8yoZBmbnF1A0DMwvZFAslrCwuOgShGKphGKRUmQJa8YEEMixZ25RIGb776XdKEhKCVMIPH/iNG6+fj80xtAQ0xBv6kJm4qJfyAeXA+v2bO4Bt0sDHz3dB1MK6FzDDft228+RidMXBiGLdqlhIXBg+yb811fdjZQdJ3BhaASf+Id/LCM4jiKyXDSmEmCMobnRUlramhrBGENLQwN0naOlqdGn8ITJPrFOBaIhTAyPT2FkcgpTs/MwTZNEOxGAy0e+ULBcBIPD0DQNLc1N2NLbja09XYhFoxvmR4roOro7LIKjmjODE9RCdhGL+Twy2UUUiiWkM1mU7CjaOTuoxjRNsioQroRZQMkEcIoBeUWC1JRAKSX+7h/+EX/1e78GAIjFk2hoakJmoj4xsXerl+v/2a9/GwDQ26mkBY5PYWxyFigZgJCIcIl333srbt65xZ5PivirL30NF4dGoWncq1yoatsKCWhusDKVIpEIUvEYpARSyThikQgak0lEIhqaGxqgaeX58huhOmlFDwADFjKL6B8dx+TMHBay2WV+XwoAJAJQI0zTxPTMLKZnZnH0xGmkUkl0treht7MdW7q7rokf06lv0K1YQxyNKIw0pBeyKBSt7IXJ2TkAQKFYwkJ2EQCsOIWSZVlYyGTpaSGE3kdeO+CQ4np2FoDXJ4DZLgEvhY4xhkGlyM6uzibs37kNY+ePKqZ/hFbsU9ft377JHaN/aAQMwJZer4Hc+eFxjM/MWt0GTQMvu2k//tOrX+xu/5sH/xEzc2ls7e5EJBJBW3MjOGeIRSJIxuOQUqK5MWXlpNcgzKul0i0ZNrAc/3r1Vn4VN1Y9VEjHxTDkikVMTM9idHoGk9NzKJlG+DiBMWr9mkQFiADUhWx2EdnsIvovDYExhlQyiZbmRnTZpCAZj1/zP35TYwqAZZLstOMTwlwQjHkTnmFa7gjH4uAQiOm5NKSUMEwTC1mLLBQKRZdAEK4lQgCUddhxGIDbHIi5M7uUEqfPX0R2MYdUMoFDvSm8+LrN+OEPooA0ffuWSQT7PR6NoKu12Sd8t23ejJuv3++uOz0wjEw2BwiJ5oYEPvjG+9Fmm+Rn5tOI6hHcdfgG6Lpm9RdiHJxzW3axq5Ibv1Yxl8liYnoO4zMzmMtkUSxRvj4RgDUKCSCzuIjM4iKGRq1+EpGIjubGBnS1t2NTV0fVIBuCcsNoOjrtks2OW6KSIAhiambO93ehWMTC4qKPaMwvZFAKTCaz6bRv3EKxiLwvapiwRqS/q+F58l5xATBpNQeSEolkAnBc3VJC0zV8/hvfwS/8zFsBAA3xCLRoHGbetjw5BYCkvez6Eqx127s7oSum9lfceyeKpRLuvvmQu+65M/0olkwAEq+/6xa89q6b3W3ff+IZGKYJKSWkFDAZA+dWG2HOObjd74BxbsclVtaoNxpPMEoGJmfnMDk7j+m5eaSzi1WC9whEANYBSiUDUzNzmJqZw6m+82CMIR6PoamxAW3NzWhvaUJnWyt0XaO7ZIXQ0dYSamGoRBiA6i4Mn0aSzvjaQJtCuJYKB4v5PBZDiIN6ToZpIh3i7mBLFCRhjGEhm4W5xhpNJROJsmJaS/ljrfK5vKz8qwpHG25tagRnHFJKCCHANY6mhhQMw4ApBExTIBqNQY9oMAwThmnCNAVMISCEgJDSLSvb2OgFwnV2dCIWT2Ixt2CnAipJa1Kx/dvWhp2bOn3phFIKMAC9XV4MwKlLw5BSoCmVwK++841ui+CxyWkMjU247gwhhN3NkEPjHJrGoWkaGGPQGHMzeJhSm0DKy4tar8l6X+EYoel8dR3R+2Q2l8f03AJm5tNIZ7OYW8iiFGLFW/a3rfIcMeW+lDVdJQIRgJWyEkiJXC6PXC6P8Ykpd30kEkFjQwqtzU1obWpEV3vrFS1TTKgNLU0NAaHOfQFg9QjzSqSjls+GkYqlYAqB2fRC1bHaW5rrEuJhwrqWZ6DiGCG13x3t3YrktzVnYQlQVdAbpomSYYAxBs4YBGN2bADzGgXZ18FBNNmESCxhRetr3Nb64VkDXA+DtXLXpm7omubTwpOJBFrt6PqJ2TSm59IAA976shfhxt3bAFhZRd974mlb87fGEoxZbYcZg8Y5dKlB2KTIuU6MczApAy6P9YWpuTnMzGcwt5DB/EIG2VwBhhR+Mwa5PYgAXMsolUqYmZvHzNy8b0KOx2NobEihMZVCYyqJlqZGdLW11CwgCAT3IdQ0dLa2rN8vwJyqf55eqBa2cZbdksDMWucFB8oyAhCLxtDc1Iz5URZI9wtXDLf3dPii7aWUvqJcR8/1Yz6TQ2dLEz70k15joB8+9RwmpmfLiJCVime9S0iLADAOIaSbIeC4BpzvxpRlgLktBmwbwVX5aYpOEbKFDNLZRWQWc8jmcsjbacMk3okAEOqEkBKLtrVgYnLaty0SiSARjyGVTKC9pQXNjSk0NaSqmlMJhPUs/FUtUS0k56bRqcIR3noGafX0sbep7pNoREd7eweGdM2zYISWA2bgHOhp97uXpJQ+q8nx80OYyy7i5990Pw7Z2j8AnFSKEFWyiljWDxMmLIsGNzk4Z9C4Bk2zSIATLOgpAHbtAzvQwUl7rPmyBi0tFRmQtLX5tC3g88jkcphLZ5ArFLxrtwqa/GUWAgy/l+zRmCRyQgRgnVoMSoaBdCaLUcWVAADJeByRiI6GVBINySQS8RjaW5rRkEwgZdcgJxDWNyEIW8V8gt+d66VtBbCF04XBEfczr9vfgn85sAfP//gRQBoB37E/BSAeiaKrpckde8R+7vbt3O5+om9oFC2pBH76gbvdWIHRyamaXClSSpim3chICNeVoWkCutSsOAE42TLMPtWVFV8z8wvIFwpYyOawsJhDoVhEOpNFvlhya32sikZfYxrgatxHTK7SdyIQAbgayOXzyOX93c/UCTMZjyMWiyKZSKC5oQHxWBRtzU2IRSNobaYsBcLak/USlazyrEyQMMX372QFAJ7WnFlcRP/wKHZs7oXGGTqbU1YmQG5BOaA/+h9MIhGLobfDK7P9g6eehaZp6LGzVIolAy+cH8Tr7r4VN+3d4e73/Sefqel7urEBqqWDWWmBUkoIzXINSMnBmVdASFa5Jmq4m5QSU3NpmKbAXMYqA14oFTGXzqBQKlVOsZNXz7VAWBnIhz5FBIBgwYpSz2N2Po0RTJTNtrqmIR6LIRaLIhG3un6lEtYrkYijuSGF+Brpmki4BgmBK5vtfH/m5e8HIwKYUxQI8IgAGJ47eQY7NlsV/Xo72xGLx7GYX1AEvj2g9AhBYyqOdqWUbr5QRFLtADgzh6l0Gr/+c292ewVMzsyWpaXWNXHb2QIGrO6lggsI4dQNYO57djFvZZYsLloCfiGLkmkgvWBVx0tnF/1CXJLK62OYTvloAhGAax2Gabr1DCpqWgAS8Rh03XI1RHQdnHO02RaEZCKGVMJyN7S3NFOaI2FFrQHlpID5DPZMiQ1gzPH1ei6CfMFLOWtubkEkErMj8nnFQkCbO9oQj3mpjqZp+mpUHL8wiFv27cShXVvr1v6DyC7m3FLa0/NpCCFhChML2ZzV+bNUhGkIlEwDEgy6rkPTNWhcK+uCKCDCLyRqJwF+q8JKxBgsxfBcBnT54xGIABBWHrlCASgU3Ip8ANA/NBxKFphd8KTBTm2Mx2KuFaGlsQGRiA6Nc3TYUerxWBSNqRRdZMJSiltl4aHuaZMAB7GoJ8hzQkcqmcC8KlWCfgcJbOlsQyziTWWmMHHHjQfdvy+MjOOVdxxGT3uLu25iagYT07OQUqJYKmHOdsstZLzqlrPptO3/F8gu5kKtAGVkxy4eFIlEEIlEIKRAREYgNSuLQA2IJPP9MogHgQgAYWUhhER6wSIL6YWs+7wNBia3IFLJBDRNs4vGNCoEIakQCGtCj0Z0X8czwkYV/v5od7aE+skU/wBjwMWhUXfbPdsbcHjfbowM9IVr//byps5WRBUCcLLvAj7wjre693Y8GsHhPdvdOgEvnDmHz9jNgsKCAJfbqEdKCWFaBY7cv4WAaZrQue5VFbRfwUyJsvGwhqPgwtoyL2ENIhABIGwgqF0F5+1CNmFEgVWo4JVIxBCNRHyfaW1q8v0di1p90VU0Nzb4JnzOGDqUnG/C2rEEAFaxnfn0glskqGSaVsfKQhESViVACYn0QgZHT5zGz7/9TWhMJbG/I4pdm3vBtAik01zGETxOwIFk2NTehqju3Q9nL3rUdXIujb1be7Gzt9Nd90ef/Myqfm/LamDaBESAGxwGN6BpmvvSdR1MY9CYFkoAJKQdIyFrlqgW+fKPUs/vFPpdlqOZS7nM6oTVj0WGACIAhA2EfL7gq+lvdSjMVJkDWNW/VTiBkiqaUilEIuW3vJM/zjkv6wnBaygBDFidGMNaUFerKggAGudlVf7CYJimr1pgLVqqU70vncmGNmVaaoyCXUQmdGz7s4u5PPJ2vrlTQCe9kIEwBaQUlhZsa8JSePtY2wCp1pS3hfq3v/cw3vFGq1hPJNkMPRKzusu5gYD2u2096GxtdH+Ho6f7XA0cADSNY9embjQkvXuhb2Bw1e9tKaVbmtpKG7TKCWu6hkgkAiklNKm5M7BbLwF2d0W5xi0Ay7QOEIgAEAirjmKxhGLRL/Tm0wvhFgp13UBtSk4tJKSW7bXuU6/wrmWfpbfX/lnH3F3rublqbaBhIMCQUfztTU2NiMdjKOWyvo85KmZE42hWSnN/4Rv/4razBoCWhiSakgk39//YmXM+grCaBMB3baTd+0AI91pppgbd1N0+A07mgOMWcd0jbDnqOYFABIBAIKwFpdD+T+UGrmU7IOCceBQAaG1sQCyWwIIqCJX9mxqSaGn0glKdhkwvnD2HQ/v2WH5/O9HlRN95/NEnPn3VroFKPKSQMLgBw7BcA8ytLKi5MQJO5oAaJ+FYBqSU9TnbgyRztTV0p+CT9Ic6MuIwawqcLgGBQLjK1MAnGp47ccpd/q8v3Ymu1mZ4vYPha1TTnEr6LACO9eCPPvkZvHD2nLv+RN8F/OEnP4Oz/Zeu6rd14gNKpRKKxSLy+TxyuRzy+TwKhQKKpSKMkmEFE0rhk5C+gMmaOuMxVDchXIER7DTQyzsLAlkACATC2oesvymtVMUZA46eOovzl4awe9sWe5VdB8DRGZU+AC0NSTSlvDLaTrre2YuX8J7//ruWRs0YSoax7Oj+lSYAznk4urFj/jc103ITaJarQBc6hCYADrfCYEX1mULvCUQACATCeiMBZcYA+H3oXI86vYcDWQBAZ0sTGpUAPzUzBbCKAplr/nJJXyMkYVqpg4Zp+OIDHFeBL17AbbLEIN2aCvKyfgYCEQACgUC4HLG2DLlfQY1lmufDVoMGJNDR2ugrHhSW7bBe4AZRCosQcMMuLcyZmzropBE6mQW+gEHAqsIgazAHLKPJz7Kr/dVdQZBVPTaBCACBQNgwFKCOkZidAmBbAdoaGxDfIATAsQSY0lS6JjKXAEQiEei6Dt1JZeVwLQJudUFS+wlEAAgEwlrF0kViWEDmK8FwgVoAnS3NviJAJcPcENfIjROQVqEkxzrgpBIKU0DjWlllQQmm9FpQrSVyFYgZgQgAgUAg1Cr81VTAEEt1aHS7mrcvFQsAgLamBl8RoI2qATuFhdTywpzZwl/jbvog4xo0jYPZFQad1suQNpkA3O56Uv1RAiRhVW8A/xcrI4aVSQo5AogAEAiEjWsWcGrfKBUUTWHAVzRIyQRoVxpTffmfH9qwl8cR/FJabZYNwwCDFxyo6Rp0TQfXBYCIRaXCMgeqCViq4EcEgEAgEC5LWC2TAbDK0i/QAMj7ozHppQAu5nIb+7oqKYRweZBFAnRTh6mZ0EzdSiHUdJiaBs0OInQFO1NTLhmRACIABAKBcJXUfiZDrQB+yRcWAwDEIhEkUzF3t7zdxveaIlu2ZcBxD5jO35oBbrsDONfAGcA4t0oicw5uuwekIvClS7aUpkJEBogAEAgEwjLEu1u2XwY3uBInXO9XmzAJYYYSg7amBjQkKtcAuJZIgFtLQAgI0wQYA2fMTRvknEPXNUDXoQGQmlNmGK7AZ1L6CMGVuUnCUwTJ208EgEAgrGPBv3ISzv5POqVwLVrR0phCMn5tWwA8kiS8S+XKVi9GQNc0CKHbFgMJTUhoGvcEMPXaJQJAIBAIV4Ya+GmCvxgQC8h/4Q8AtNGUjCMR81owFwpFusQBy4BpmnYqoXCFv66ZbuYA7IqCnDEw2zWg1u+H/bejoft+PXIPEAEgEAiE5dgBfHsoOevRSAQ7t2729tN0S/uHF8gGKdGUSm6YIkCrTgSECRiWpcCwBT1XOg9yTYOua5Bu4GDlDAKHCDDGVpYEMF/LQwIRAAKBsLFIgL8MEAvZcufNh9x1Pzw3g0zetPzDSmogGENDIo5YRFcIgEGXvAIBgAQMYXhCncFqN+y4CHQdUurQpQQ0q3+yag1wf7FAe18CEQACgUConwxUUDBvuWG/u/yD0+NYyC56EkiJLGxMJhBRqgAapkmXuRoJgN9sL0wBcAbN1KzqglLANIUdM8B9DYeYSgaULIGglYDcAkQACATCNS3rg+X+UCb8Qx0E9q75QsFdlYhysGBDefvDjck4IrrmEQCDCEDdxEBImLDcA1JKmJoJzjUY3Ok4yO1UQu7GCHA7ldAJMqwk+IkMEAEgEAjXrPAvF/AuHZBBGsCWUmHLxrcsABpZAC6bBcCrMmgyMGaAAf74AE0Dt1MKdR2+BkSOJcCpUrgigp8p9xOBCACBQFhvZCBU+Q81AbDKdgFPEARS1hoScei2v/qFs+etPHhC/fI/WGHQJlxqGqGpa9A03QoUlDq4EFaBIa1CsCBp/0QACATCNSz8FeXeLt0fIt7ZEn9XJhFqEaB/e+RJuuarQAxM04SEdFMIhTBhmiaY3YlQ07yMAc6sssPcSSO03QOOhcAZUx2fQASAQCBcwwaCanK/bLtiVUglvBoAatwAYYWJgB0nIKWEMBlMblUaZJxZLYntcsOaxqHpOiTn0BwSEHAVqMK/LncBY1QekAgAgUBYz8aAWpq+VpzpmXS3MQ4kYkoVQCoCtKqWACkk1ARApw4A1zg0rtkdCa00Qk3TIDmHblsBHAKgCnzS/okAEAgEwjKohKV5xpQiQCWDagCsLgtAGQFwGhEJLmAKAV0ISCHcLoSmpoFzuy0xZ35rgLIcbiGgS04EgEAgbGx5rv7JqqqhcIMJpERU1xGLqFUAiQBcLQgpYGUSSjuTwARnsIIEOQe3Uwq5pnklh7kGxj0LQbg7wO5MKGXY7UIgAkAgENaX9l4jGwhuc3zAdvpgPBbxlwEuUhngq2ogkBLCFBBCgNk/FGOO8LfjAzTdcxnoEhIaNABM08glQASAQCCsaxG/ZFCXRwKqlQuIKw1+8iVZbhpgQDwa8ZcBNogAXD3pDzdTQGEEAKy0TE/oC9c1oAkdmi5gcg7NFGCcKTRQrS+g/v5kA1hpcLoEBAJhtXT+cKJQ/XPPnzjtLv/8i3eivSnlChpn0Jge8ccAkAtgzUKYAqZpwjBKKJWsV7FYQCFfQCGfRz6fRyGfR7FQRLFUgmGUYJqGVZzIEVR21gGBLAAEAmEdkQBZcUX4hP7I089jaGwCW3q60NsUgw6zjDXE434XQIFcAGvbSGC7CCSzAgdh2kGBYHYaoZJK6MYOWKmCTGO+oEECEQACgbCB6YKhRPWXmZYZQyzidwGUqBXwmicAviJAyrZgyWFN0+z+AxokJLjUwGxLAoEIAIFA2CgWgUoCQ/2MEzDgaIBSIhrRqRPgBoEQVvAgt9MIhWnCtAmAKQS4xiFME8VCni4WEQACgbC+RD5qFPvwa/qKhuhzATCGiKZRI6ANaCUwhQkpBZjg4MyEYZrgnMHQdORzRACIABAIhPVJBZjaBdBPCqq6d33C33qL6JrfAkCtgNc/AYAEBGBKATDTSic0DTAwaJqBQp4IABEAAoGwwQjBUuCqlACYQwDIArDBGIBFAqRUlr0mQqUilXteaVAaIIFAWC0R772x+j6jBowxxm2hYEt/KRHRNOiaN31RK2ACgQgAgUDYaDSCl7sANM6ha5pCAChCnEAgAkAgENakESB0M/Nc/Oo+whcEqJWNYOWLKxYAQQSAQCACQCAQrrrMZ0tsqV7ThYErOwhwjynY6YDcrjPvQEoiAAQCEQACgbAurALVYCgmfd2N9vdnDTCoBIAuK4FABIBAIFx5mc5CevuycKnPQpmA//MFJeI7EYvZUt4bU7erxTkgFwCBQASAQCCsKzMAK+MNAFBUCEDcIQDM259x5rMAkAlg44N+4Y1IAKRk9MMSCBtXzLMQAR9KBpRtuYJHAJKJuDX9O0JeShL4BMKGIACMSerxRCBsJKnPlhTwlcmAbQFQmvsk4rEAlairsABhA5FJwkYjAAQC4ZqYvZeKAlChxgDE4/Fq4QKEjQx/B0H65TccAaD8HQLhGtLbKlgDAn+otf2j0ZhbAth1BZAouAa5gDToKmwwAiCEGHS7fTF6qgmEdS3uw55hVokGsNBtAFAyvLk+FksocwPNE9fQzQRmvzhjKJWKfXRRNhgBmJmd+X+apgmN8/DJgwJ+CIQNofvXVgTIUQy8Z16Lxu25QJ0X6PpuMPW+fK6XEowxq+Ijw/mJiYnv0IXaYARgbm7u6UKx+CeapoUTAPUGIRAI60v4sxp3Zv6dhZLXr+lRqyGQ0kXYEKYv959zCmfaqBYAznl2fn7+vwkhBumibDACAGDo7Nkzf1osFj+maVz4HmS3SDiZ/QiE9TiBl3EAlRmwanYCBVpUEf6W/1+YEkKqBIDmh3V/rwRenHMwzmbn0+lfGBoaehjACF2ojUcA5gHMnzl75k/S6YUPa5o2r+s6NF23bwBux/7I8BfIGkggrAubAFN8/0sYB1TtPqJriDrlgBlzLQBquWBN6QxIWJuQzitkDmcAuG3u1zUNEV0HA06Mjo6949KlgYcALADI0FXceATAtF9zly4NfOXS4OD9UsqvRXQdmsYtElCD9k8kgEC42kocK9P+lz0pmF4WgK5pSMSjfguAkD43ASML4ZoX/u7vV04Nwbg112uaBl3X04Vi8Q9Onjr5ppmZ6eds4S/sF2EFoa8RAgCb3WXS6fnpk+n59+/YvuNTqVTqlzSNv0owa0KR9gMvAzcPgUBY69q/BJOABAMg3cZ+3lPsFwy6otGXBEM0Ggdk2k0FNEy/BUAnC8BavwNcYuhmdDKrmDPzzP1ZwzD/fnJs7GNTU5OXAGTkwHGTrt7GJgBBGADm+gf6HwNwsqen9+bWlpb36hH9fil5SkppW44s85G0WaUMsktFI2BB1knaAoGwVkUEAOD5k2fw0294FQDgpfs68fVUCmC26JBAyTB9qYJEAK6mei/LNf0Kwp8xBm4LfeclIQeLxdI3xsZGv5BOpwcBzMuB44t0Ya9NAuDcRwUAc2Njo4+PjY0+k0o1NG3atOmNsVj0rRrndwghIKWEkNLzKYXdlDbjJGsBgXB1xLoMKvju3wyMydAEn6eOHHeXX3+wDf8jkYD6IBcNA8WS4ibQdbrYV3Byrij4Q35Mqebzcyevn+dMYT6UyWQf7O+/+CMAJQBFe94v0lW+tgkA7BuiBMv/g2w2M9LXd3YAwGc6OzsPtLa2vTMaibxeY6xHwLIIyIDgJxAIV0HoM2aR8jA6EHAF1AotmrSHkIBkMEwBQ4kTUFsDE1af1DmCPUzLL9tXEf5CyGOFfP4fJyYnvppOp0cAZOXA8QJdVSIAtSAHwJicnDw+OTn5hwD+vLu7+1BjQ+P9kWj09oimHZaQVrVQ9x2ei0BdDrJXViUdiUgFgbBM7d9y9tcn7oGbr7/OXf7nM/NKMSArlaBYMlAy/IGChGVq8hW099DtSmqn6sd33x2e52Z9sGzJMJ7L5XKPzs3N/mhubq4fQBZAGsCCHDhOgX1EAOqCad9ABoD0+Pj49Pj4+GMAtObmltbOzs4Xx2LRBzSu3QOgTcJyEVhuAj8hkOpNbU9SihpT7jpQHgDnASFKQCAs11IASBnuBnjh9Dl3+bbNSdzUncDzzKYREiiUSigoHQOjkQhd0OUK/0qCP8TEz1QSoJj2GbMEPmccQorzhmH+oJDPP3bh4oWHYUXvm/CsuiVYpn5K3iICUDcEgLz98mF+fq5/fn7uFIDPAWjcunXbralU6j6N81u4xg8BaJNSQgqPFEiVuVaapapoOAQCoUZ7QB3m/6nZOQyOjmFrbw+6GyLY1duqUG6JfLGIfFEhAFEiAPVaZ1zhHma29xha2TpL4HsEQEo5aApxtFQqPZ5Oz/9ofHz8IqysrrwcOE7+fCIAVxR5m12WBgcvPQLgKQBxAPGurq4dDQ2Nt0Wj0ds1jd+oMW276xxw34J/+9mwrxx5BddApayD0GBEMiMQNpRWz/zPRR0lvIO7f+ar38Jv/uL7AQDdrc1KNCFDvlBCXmkZHLuWLACy6p9Lm/KDAr1snfPGwv42TCFOlkrGkWKh8PzM7Owz6fT8pKKUFW3Bn6OngQjA1XxEioq1YBGANjExMTkxMfE8gE/Dchm0tbe33xGLRm/RNO1GxtlunWudQkgvhkDay7DzVwMxBDJE4JcFxwSIgiQSQCAV1PbnW89ZmKFtdj7tLne2NCksAcgVStemBUAuLfirmfd9Covrv/f57N13zhlMIfqFEH2mYR7NFwrP9Pdf/DEs96uw303lpf5NIAJwVeH4mipifn5ucH5+7jSABwEkAMTa2zu6mpuaboxEIgc1Xd/PObtOY9quMkIglYIWNQQJsro3EAgbS9Y7qX+eK8C3R5mkm5qdc//q7VBcAAzIFQrIF0rXngVALbYoKwj2KuvKBD5jjmZfEEKcM4V52jCMU/lC4fj4+PjRQiG/CMuimgOZ9IkAbDAI58a2X9Hp6an56empfgDfBRABEAUQ2bJly6F4PHEwouv7ucb3cI1vY2Bt1lQlKzB0WXldFWbv7ud72MP7rEvfNMr8Y7HyMRkxDsLVJAI1rHMwM+dZALpamrwbWgLFkulzAVxpC0BYmqNc0jZffR+5RFxE2bPLypd9+zD/Z51yycLS6odMw+wrlUqnMtnsyfHxsYuK0mTAsqC6y5SqRwRgo8Mxa3Gb8XL7pQHgQ0ND4wC+r6xnqVRDqqura18sFjuocb6Tc76dMbZd17XrpJTcqVrodi2T1oNYMe4gMGeoDF8G6D6zK6KpD7ozjo8ILEECpN1zm0BYUWFvxwKoqYC1i34L2ZznRm5MJhCN6igWSwBjMEwDC4ve9mQivmaF/3K3qZeqgj/e97cTnMc5hxAiDWDIMM0TQsh+wzAuFguFC/0D/adgmeiFfTRR5WXa+5BJnwjAhoa0CUBdyGYz7OLFzDkA/2ZbCyIAYgAimzdv3hmPJ3brmrZb1/UDjLHtYGjVNW2XW8rY1uCZZK6AZ1UjdpbQCJaxPwl/whW1AZSZ/8MfRgb4Cv3ouobOlkYMT8zaOzCksx4BSCUSV5TcBImA82y5Ap2FkHWGpeN9WIVnlvm1ePutYJqiX0gxKoUcMk3zfKFYfGFhYeHc9PTUlK3Fq5q8QXn3BCIAK0scnKCXgm0tiALQh4eHjwE4ZZMC3X7XALDOzs7eeDzRmYjHD3JNa9M438I53wGGVl3XdgY1jaUCqaVcfjptxYptvgkvMNkFJkCVRISuq+B6CJRVCP3sUudOBGa9Pz6oUC/Y6vjnQOMMmzpaMTw56948mZyXCfzKe1+Ef/j2v5Vp1KHa+hLryquKy1DCHFbxUBXSoY8Uq15PLPDZkmGa56WUE9KUU4ZhnBJCTBcKhcGZ2ZnzmUwmo8xBBjzTvbNcIqFPIAJw5SDsh860H3nVleC8MDk5OWlv/wG8olrcWd66devmaDTWEYvFbmJAmxNvoGm8l3PezcA6HMHqkQSJMOJQNkGFCOtgHEFwwgvGOJZvX5oIlLknKpAAwkZT+r0unpVV3nACayqf0zjH1q52PH3qgjtuJleAKQQ0znHouj1gnEEKWbPgL/+7NmLtPQflZNULsGehhMEjCYCQ8qKUcrFkGGcBFIUpjkspZ0ql0vnZudn+qamptH1xnJcI/C0VJhVmuhegYjsEIgBXVKUxLneQwcHBEXvxIXiBiFwhC/qWLVu3RSORrmgstpMBzZqu7WJgKU3jewDENU3bL6XkYROZJ7SZXRCJlU1gVbSSutaFCf1KAr9ebZ60/7Uq81k4SQxmAkCJEwixPpmmv9Tvtu4On+FgPruIYslAIhYFAET1CApOYCCr7bz8ZDXcuqSSVLfqXfX7cV4IMSyEnBTSHBdCjEohJwzDGDFMczKdnj83NTU1Cy/uSFUeSnLguEF3EYEIAMGJyi061gP7XRsaGjwF4CyAJ4IWBnjBi9q2rdsOMs6j0UikQ9f1bsZYRNf1fRKS6Zq2izGWZAwtGtc2l0+ClbWf4D71yOIrIegruRNqdVvUaqFYyg1xtdwUS7mFlt5e++cqjaVap5zg1zJ937eCqSnqEMq4nDN0tTZDLRown1lEoVRyCUAsqqNklNyxZC03cI0whTgtpTSllGOWYBd5wzDPAUChUDgnhMgXCoWp0dGRIUULDwbaOctqvrxzkkIOHKdgOwIRAEIZVFOeM3GwCi8oy/zS4KXHqslWeO4HAJD7r9t/WAIsEtG322mOLBqN3CiEYAAQjUQO2ZO6xjm/fjmCZimBWMnnuhxCUEkAh62vvO/lkYA1Z6ZahvBfSsgH1/kD5ABw5tbR8OQ+s99lqCdA+mIAOLrbmsHAIe2smpl0xlcMKB6LIZvLh5I75b7JSinP29vSphD9ACCESBuGeZExJk3T7DdNc9Y0zfm+c339AQufVLR21dYgA/tUMtWHmfMBMtUTiAAQqhAAn0KyWgc6feb09xVS4KZBBiY6pm6LRmORnTt33mBPstF4LLpfSjApZSwS0Q865EHjWo+m8U5lQt7MGGuvR5jWSh7qclFUPd7lWSeuFjGo3JI3PIo97Durm2uxpAR/v7KywAAY1yCksEiVrc0zya14FeU2Z5yDATh66iwOH9gHxhg6W5oQi+jI202AZhcyWMx76eltLU3/MDQ28aymcVMImS0UCucAwDTNbN+5vj54AXNCeaaY8ow55FrIgeMkkAlEAAjXJNTshlIVAsAB8GKxkD9z5vQTyoT6cHCfwNgI0Zqwd8/enbqut0k7KCEaje7RNJ5yb1ZN28MYSzHmS5aMcs4PenLKFT69jLGu5Qj1yxHiq7VvvUK8mtCu/fj1jO0jHn1SykVVwEogbwhxTgrJpJRMWtmAzDTFZEmIGSElBxgrGOZ4SWCWAYIzmE8c72s8fGDf3wJAR3MjYlHd1fpnFxaRzXkE4IM/+5Mfv/ut734BpmGiPOFO1bzDguNI6BOIABAIFSSBrDCZMlTObA66JWQ1SdN3ru90YKzH65BMrJZ9b77ppsMa13hwJ86ZFEKySETfB6ChmrBjjKU4Z/uqWSDCjl1BW1b3ucm2qqiYBHCpwrHYEsevdF1MIeTRsHFUDd4KZBNjZeYoYe1fMozJo8eODvqOE4nZ7wkNeoQjkuDgGoce5eBcg4QGxjgY4wDTwJgGMB1w1nGH2QgwZswVjC3Ocbtam5GMxTBv5/9PzM5jYdFLBdy5dXMUWrQA0wia6MPuXVnDfUkgEAEgEAGoSz1cw3j+yJEfV1OsAfwYtXVokCu0T73712s2YMvcRwKQ9WrF7IH3O2Op1h8NnitJC6zTYAXFafDHowgAYipbnHfGbkjE0dvRitHpOYAB84s5HwHoaG2NY/vhEgDIhz4lV/CaEwgbEpwuAYFAWCXSWCkwrtI+ZRianHVt/PFoBDs3ddkdBK1Aw/nMomJhQTNddgJhHVkA5MBx+hUIa1ForeVzvOz92QPvh60pr+zJPfQpqVgBUEHAL0UEXLfRmcExjwDEItjV2wWnIyAkMDW/4GkzjH0YwJfpNiYQyAJAIBDWHmmp5o8vIwunB8fcPL+ormNbT7svPWFsZtYtGcwYu+u33/1GjS43gUAEgEAgXH3BL6ssVxX+AJAvlpArlJ6xBTx62lrAuDdtXRqbRjbvxQG86xV3puiyEwhEAAgEwtrX+isKfwdPn7n4Z85yS0MKLamEvafE4OQUMoteKmBzKtEA+IIRCQQCEQACgbAGLACyRguBi/HZ9Iyz3NHSiLamRjdKYGI2jfmsFwgYi0QoEJBAIAJAIBDWGBEIE/bVhD8DwF64ODzrrOhsacLmrjZ3h+m5BUwrgYC6xtvpchMIRAAIBMLVkPbVc/CDgl9gCRfAM2f7XQnf3JDErk1dLj+YXshgOp3xJjTO2lF/rQQCgQgAgUAgrJL2D1R2B1R1BfzgyBnXxp+Kx7B3S6+9VaJYMjAx69YKQkTTfs01H1AcAIFABIBAIFw14Y8qwj8o7EOtAfliSaqZADs2ddqpgJZ8vzA8jpJh9cdijN3xnT/8cIQuPYFABIBAIKwtC0CYNUCE/O0jDs/2DXzUWdHV1oJ4VLcqAgI4NzyOXMHLBDiwrTdBl51AIAJAIBDWJhGoRA4c4e/r2Dc6PTflEoDmRmzrsSsCSonTA8O+tsANiViSLjeBQASAQCBcDWlfHggYNPuLJdb5PnNyYHTaGaizpdEXCDg6NYvJOS8TIBGLdNEvQCAQASAQCGtD+8cSWn+QCPjcAj964awb6dfSkMKO3k53wIVcHv1jk+7fyVj0r0GZAAQCEQACgXDVhX+tr4pE4PvPn84VDeOYpeFHsW9br0sPCkUD54fHgz0BaG4jEIgAEAiENWwJCAp/gXD3gDw3POGWBN7Z24VkImaXCgJOD4ygZBru4K+87SBlAhAIRAAIBMIaEv7VtH5R4SUByKHJ2UvOYDt6OrGtq90d9dnTF2CaXvJAcypBXQEJBCIABALhqkj82gMBRchykBjI7z59wiMAvZ3Y3ttpWQAk8MKFQWRyXiZAZ0tjA/0CBAIRAAKBcPW1/2qFgCoRAt/rz77273OGKU4BViDgzt5Oa28mUSiWcHpg2D1gYyK+ny47gUAEgEAgrE1SgArCP4wESABiNpP9rDPAwZ1bEItEAMkABjx5os8dPB6N/AldYgKBCACBQFhblgCxhNA37Zcq/E0AYnZh8QVnsBt3b0NXW5O1WQLPnD6PfLHkbL5t8O//OE6XnEAgAkAgEK6GxPfiACq1AK6m8ZsKIZAAxL8+c+KYM8DhPTuwpbMNYAxgEqcHRn2tgdubGqg1MIFABIBAIKwxK0BYvn8l4e+u/9Bf/v2skPIkALQ0JLFns1cR8PzIuK8gUETXdtDlJhCIABAIhLVDACoRgTBCUFYUKFcofs4Z7Ka9OxGNRgAJFAol/PjkOfdAusb/F11uAoEIAIFAuFoS3+8GqEYCyoL+AlYACUBkcoWnnbHvuH4PelqbAAaYUuCxY2cgpetpuAdUEphAIAJAIBDWlBWgWj8AUYUMyMdPnD/uDHRo1zbs37bJ/eSZwREMTc6ox9pCl5tAIAJAIBDWhvCvRAKWagwkAcif+O2/npVSHgeA5oYkDu/dAa5ZqYAjU3M4fmFQPd5huuQEAhEAAoFwtaS+vyqgKvhFFSIgKv2dLxq/5Qz2wG2H0JRMAADmM4t4+PmT6qH/B119AoEIAIFAWHuWgKWIQNgLg5Mzjzgfvv3AbuzcZGUDmELg4SOnKA6AQCACQCAQ1gkJCBKBMqGvWgN+49PfmHU+1NKQxF3X7wNnDJASg+PTONk/rI57D11qAoEIAIFAuFrSvrw5EEKEfHBdWEogvvLwMxLAYwDAGMM7XnE3ohEdYAwTc/P41mPPqMe4l64+gUAEgEAgrD0SECb45VL7FA3jg87Ku27Yh+t3bgUgsaOnE3s296ifOUdXnkAoB1N8ZQQC4Vp58B94vyOQr+Y5XLZvXj70qccA3AUAf/PNh3Dm0gje+/qXY9/WXkR0zdmtF8AY/eoEgh86XQICgXC1rQHLJQMlw/xgRNeeB4Cff9MDYbs8RcKfQCACQCAQ1gEZqBNHAPwlgP9SQfh/gK4ugUAEgEAgbEz8IoBPwgr2uw7AowC+BaBEl4ZAqAyKASAQCAQC4RoEZQEQCAQCgUAEgEAgEAgEAhEAAoFAIBAIRAAIBAKBQCAQASAQCAQCgUAEgEAgEAgEAhEAAoFAIBAIRAAIBAKBQCAQASAQCAQCgUAEgEAgEAgEAhEAAoFAIBAIRAAIBAKBQCAQASAQCAQCgUAEgEAgEAgEAhEAAoFAIBAIRAAIBAKBQCAQASAQCAQCgUAEgEAgEAgEIgAEAoFAIBCIABAIBAKBQCACQCAQCAQCgQgAgUAgEAgEIgAEAoFAIBCIABAIBAKBQCACQCAQCAQCgQgAgUAgEAgEIgAEAoFAIBCIABAIBAKBQFht/P8DAN/cJKsNtpaoAAAAAElFTkSuQmCC;" vertex="1" parent="1">
          <mxGeometry x="-37" y="6" width="236" height="236" as="geometry" />
        </mxCell>
        <mxCell id="nevUS6qvJ938rSR4ISRd-8" value="&lt;font style=&quot;font-size: 35px;&quot; face=&quot;Tahoma&quot;&gt;Final SQL&lt;/font&gt;" style="text;html=1;align=center;verticalAlign=middle;whiteSpace=wrap;rounded=0;" vertex="1" parent="1">
          <mxGeometry x="1100" y="-212" width="391" height="92" as="geometry" />
        </mxCell>
        <mxCell id="nevUS6qvJ938rSR4ISRd-9" value="&lt;b&gt;&lt;font data-font-src=&quot;https://fonts.googleapis.com/css?family=Nunito&quot; face=&quot;Nunito&quot; style=&quot;font-size: 35px;&quot;&gt;SQL Error Detected?&lt;/font&gt;&lt;/b&gt;" style="rhombus;whiteSpace=wrap;html=1;strokeWidth=5;fillColor=#f8cecc;strokeColor=#b85450;" vertex="1" parent="1">
          <mxGeometry x="612" y="14" width="252" height="237" as="geometry" />
        </mxCell>
        <mxCell id="nevUS6qvJ938rSR4ISRd-10" value="&lt;font style=&quot;font-size: 41px;&quot; data-font-src=&quot;https://fonts.googleapis.com/css?family=Nunito&quot; face=&quot;Nunito&quot;&gt;&lt;b style=&quot;&quot;&gt;FINAL SQL&lt;/b&gt;&lt;/font&gt;" style="rounded=1;whiteSpace=wrap;html=1;strokeWidth=5;fillColor=#d5e8d4;strokeColor=#82b366;" vertex="1" parent="1">
          <mxGeometry x="1059" y="50" width="339" height="167" as="geometry" />
        </mxCell>
        <mxCell id="nevUS6qvJ938rSR4ISRd-11" value="" style="rounded=1;whiteSpace=wrap;html=1;strokeWidth=5;dashed=1;dashPattern=8 8;fillColor=#fff2cc;strokeColor=#d6b656;" vertex="1" parent="1">
          <mxGeometry x="-9" y="439" width="1495" height="1206" as="geometry" />
        </mxCell>
        <mxCell id="nevUS6qvJ938rSR4ISRd-12" value="&lt;span style=&quot;font-size: 35px;&quot;&gt;&lt;b style=&quot;&quot;&gt;&lt;font data-font-src=&quot;https://fonts.googleapis.com/css?family=Nunito&quot; face=&quot;Nunito&quot;&gt;SQLite Server&lt;/font&gt;&lt;/b&gt;&lt;/span&gt;" style="text;html=1;align=center;verticalAlign=middle;whiteSpace=wrap;rounded=0;" vertex="1" parent="1">
          <mxGeometry x="-40" y="207" width="239" height="92" as="geometry" />
        </mxCell>
        <mxCell id="nevUS6qvJ938rSR4ISRd-13" value="&lt;font style=&quot;font-size: 30px;&quot; face=&quot;Nunito&quot;&gt;&lt;b&gt;User Question&lt;/b&gt;&lt;/font&gt;&lt;div&gt;&lt;font style=&quot;font-size: 30px;&quot; face=&quot;Nunito&quot;&gt;&lt;b&gt;+&lt;/b&gt;&lt;/font&gt;&lt;/div&gt;&lt;div&gt;&lt;b style=&quot;font-family: Nunito; font-size: 30px;&quot;&gt;Contextual Information&lt;/b&gt;&lt;/div&gt;&lt;div&gt;&lt;font style=&quot;font-size: 30px;&quot; face=&quot;Nunito&quot;&gt;&lt;b&gt;+&lt;/b&gt;&lt;/font&gt;&lt;/div&gt;&lt;div&gt;&lt;br&gt;&lt;/div&gt;&lt;div&gt;&lt;b style=&quot;font-family: Nunito; font-size: 30px;&quot;&gt;SQL Query&lt;/b&gt;&lt;/div&gt;&lt;div&gt;&lt;b style=&quot;font-family: Nunito; font-size: 30px;&quot;&gt;+&lt;/b&gt;&lt;/div&gt;&lt;div&gt;&lt;b style=&quot;font-family: Nunito; font-size: 30px;&quot;&gt;Error Message&lt;/b&gt;&lt;b style=&quot;font-family: Nunito; font-size: 30px;&quot;&gt;&lt;/b&gt;&lt;/div&gt;" style="rounded=1;whiteSpace=wrap;html=1;strokeWidth=5;fillColor=#e1d5e7;strokeColor=#9673a6;" vertex="1" parent="1">
          <mxGeometry x="99" y="509" width="355" height="363" as="geometry" />
        </mxCell>
        <mxCell id="nevUS6qvJ938rSR4ISRd-15" value="&lt;font style=&quot;font-size: 35px;&quot; data-font-src=&quot;https://fonts.googleapis.com/css?family=Nunito&quot; face=&quot;Nunito&quot;&gt;&lt;b&gt;PROMPT&lt;/b&gt;&lt;/font&gt;" style="rounded=1;whiteSpace=wrap;html=1;strokeWidth=5;fillColor=#e1d5e7;strokeColor=#9673a6;" vertex="1" parent="1">
          <mxGeometry x="627" y="642.5" width="303" height="96" as="geometry" />
        </mxCell>
        <mxCell id="nevUS6qvJ938rSR4ISRd-16" value="" style="shape=image;verticalLabelPosition=bottom;labelBackgroundColor=default;verticalAlign=top;aspect=fixed;imageAspect=0;image=https://images.seeklogo.com/logo-png/39/1/google-ai-logo-png_seeklogo-393117.png;" vertex="1" parent="1">
          <mxGeometry x="1112" y="588" width="205" height="205" as="geometry" />
        </mxCell>
        <mxCell id="nevUS6qvJ938rSR4ISRd-17" value="&lt;span style=&quot;line-height: 115%;&quot;&gt;&lt;font face=&quot;Nunito&quot; data-font-src=&quot;https://fonts.googleapis.com/css?family=Nunito&quot; style=&quot;line-height: 145%; font-size: 25px;&quot;&gt;&lt;b style=&quot;&quot;&gt;Gemini 2.0 Flash Thinking Experimental&amp;nbsp;&lt;/b&gt;&lt;/font&gt;&lt;/span&gt;" style="text;html=1;align=center;verticalAlign=middle;whiteSpace=wrap;rounded=0;" vertex="1" parent="1">
          <mxGeometry x="1070" y="782" width="278" height="105" as="geometry" />
        </mxCell>
        <mxCell id="nevUS6qvJ938rSR4ISRd-18" value="&lt;font face=&quot;Nunito&quot;&gt;&lt;span style=&quot;font-size: 35px;&quot;&gt;&lt;b&gt;Refined Query&lt;/b&gt;&lt;/span&gt;&lt;/font&gt;" style="rounded=1;whiteSpace=wrap;html=1;strokeWidth=5;fillColor=#dae8fc;strokeColor=#6c8ebf;" vertex="1" parent="1">
          <mxGeometry x="151" y="987" width="303" height="96" as="geometry" />
        </mxCell>
        <mxCell id="nevUS6qvJ938rSR4ISRd-19" value="&lt;font face=&quot;Nunito&quot; data-font-src=&quot;https://fonts.googleapis.com/css?family=Nunito&quot; style=&quot;font-size: 40px;&quot;&gt;&lt;b style=&quot;&quot;&gt;Query Selection&lt;/b&gt;&lt;/font&gt;" style="rounded=1;whiteSpace=wrap;html=1;strokeWidth=5;fillColor=#e1d5e7;strokeColor=#9673a6;" vertex="1" parent="1">
          <mxGeometry x="-689" y="373" width="363" height="669" as="geometry" />
        </mxCell>
        <mxCell id="nevUS6qvJ938rSR4ISRd-20" value="&lt;font data-font-src=&quot;https://fonts.googleapis.com/css?family=Nunito&quot; face=&quot;Nunito&quot; style=&quot;font-size: 42px;&quot;&gt;&lt;b style=&quot;&quot;&gt;Dynamic Feedback Mechanism&lt;/b&gt;&lt;/font&gt;" style="text;html=1;align=center;verticalAlign=middle;whiteSpace=wrap;rounded=0;" vertex="1" parent="1">
          <mxGeometry x="508" y="477" width="751" height="92" as="geometry" />
        </mxCell>
        <mxCell id="nevUS6qvJ938rSR4ISRd-21" value="" style="endArrow=classic;html=1;rounded=0;strokeWidth=5;entryX=0;entryY=0.5;entryDx=0;entryDy=0;exitX=1;exitY=0.5;exitDx=0;exitDy=0;strokeColor=#5E3370;" edge="1" parent="1" source="nevUS6qvJ938rSR4ISRd-13" target="nevUS6qvJ938rSR4ISRd-15">
          <mxGeometry width="50" height="50" relative="1" as="geometry">
            <mxPoint x="-300" y="863" as="sourcePoint" />
            <mxPoint x="-175" y="650" as="targetPoint" />
          </mxGeometry>
        </mxCell>
        <mxCell id="nevUS6qvJ938rSR4ISRd-25" value="" style="endArrow=classic;html=1;rounded=0;entryX=0;entryY=0.5;entryDx=0;entryDy=0;strokeWidth=5;strokeColor=#276FBF;" edge="1" parent="1" source="nevUS6qvJ938rSR4ISRd-6" target="nevUS6qvJ938rSR4ISRd-9">
          <mxGeometry width="50" height="50" relative="1" as="geometry">
            <mxPoint x="-26" y="421" as="sourcePoint" />
            <mxPoint x="24" y="371" as="targetPoint" />
          </mxGeometry>
        </mxCell>
        <mxCell id="nevUS6qvJ938rSR4ISRd-28" value="" style="endArrow=classic;html=1;rounded=0;entryX=0;entryY=0.5;entryDx=0;entryDy=0;strokeWidth=5;strokeColor=#229954;" edge="1" parent="1" target="nevUS6qvJ938rSR4ISRd-10">
          <mxGeometry width="50" height="50" relative="1" as="geometry">
            <mxPoint x="864" y="133" as="sourcePoint" />
            <mxPoint x="622" y="143" as="targetPoint" />
          </mxGeometry>
        </mxCell>
        <mxCell id="nevUS6qvJ938rSR4ISRd-36" value="&lt;font style=&quot;font-size: 30px;&quot; face=&quot;Nunito&quot; data-font-src=&quot;https://fonts.googleapis.com/css?family=Nunito&quot;&gt;NO&lt;/font&gt;" style="edgeLabel;html=1;align=center;verticalAlign=middle;resizable=0;points=[];fontStyle=1" vertex="1" connectable="0" parent="nevUS6qvJ938rSR4ISRd-28">
          <mxGeometry x="-0.1629" y="-5" relative="1" as="geometry">
            <mxPoint x="-1" as="offset" />
          </mxGeometry>
        </mxCell>
        <mxCell id="nevUS6qvJ938rSR4ISRd-30" value="" style="endArrow=classic;html=1;rounded=0;entryX=0.5;entryY=0;entryDx=0;entryDy=0;strokeWidth=5;exitX=0.5;exitY=1;exitDx=0;exitDy=0;strokeColor=#A00115;" edge="1" parent="1" source="nevUS6qvJ938rSR4ISRd-9" target="nevUS6qvJ938rSR4ISRd-11">
          <mxGeometry width="50" height="50" relative="1" as="geometry">
            <mxPoint x="280" y="148" as="sourcePoint" />
            <mxPoint x="444" y="145" as="targetPoint" />
            <Array as="points" />
          </mxGeometry>
        </mxCell>
        <mxCell id="nevUS6qvJ938rSR4ISRd-37" value="&lt;b&gt;&lt;font style=&quot;font-size: 30px;&quot; data-font-src=&quot;https://fonts.googleapis.com/css?family=Nunito&quot; face=&quot;Nunito&quot;&gt;YES&lt;/font&gt;&lt;/b&gt;" style="edgeLabel;html=1;align=center;verticalAlign=middle;resizable=0;points=[];" vertex="1" connectable="0" parent="nevUS6qvJ938rSR4ISRd-30">
          <mxGeometry x="-0.2228" y="5" relative="1" as="geometry">
            <mxPoint y="1" as="offset" />
          </mxGeometry>
        </mxCell>
        <mxCell id="nevUS6qvJ938rSR4ISRd-32" value="" style="endArrow=classic;html=1;rounded=0;entryX=0;entryY=0.5;entryDx=0;entryDy=0;strokeWidth=5;exitX=0.5;exitY=0;exitDx=0;exitDy=0;strokeColor=#276FBF;" edge="1" parent="1" source="nevUS6qvJ938rSR4ISRd-19" target="nevUS6qvJ938rSR4ISRd-55">
          <mxGeometry width="50" height="50" relative="1" as="geometry">
            <mxPoint x="270" y="138" as="sourcePoint" />
            <mxPoint x="-358" y="156.5" as="targetPoint" />
            <Array as="points">
              <mxPoint x="-507" y="158" />
            </Array>
          </mxGeometry>
        </mxCell>
        <mxCell id="nevUS6qvJ938rSR4ISRd-33" value="" style="endArrow=classic;html=1;rounded=0;entryX=0;entryY=0.5;entryDx=0;entryDy=0;strokeWidth=5;exitX=1;exitY=0.5;exitDx=0;exitDy=0;strokeColor=#276FBF;" edge="1" parent="1" source="nevUS6qvJ938rSR4ISRd-55" target="nevUS6qvJ938rSR4ISRd-6">
          <mxGeometry width="50" height="50" relative="1" as="geometry">
            <mxPoint x="-149" y="156.5" as="sourcePoint" />
            <mxPoint x="434" y="135" as="targetPoint" />
          </mxGeometry>
        </mxCell>
        <mxCell id="nevUS6qvJ938rSR4ISRd-34" value="" style="endArrow=classic;html=1;rounded=0;entryX=0.5;entryY=1;entryDx=0;entryDy=0;strokeWidth=5;exitX=0;exitY=0.5;exitDx=0;exitDy=0;strokeColor=#276FBF;" edge="1" parent="1" source="nevUS6qvJ938rSR4ISRd-18" target="nevUS6qvJ938rSR4ISRd-12">
          <mxGeometry width="50" height="50" relative="1" as="geometry">
            <mxPoint x="280" y="148" as="sourcePoint" />
            <mxPoint x="444" y="145" as="targetPoint" />
            <Array as="points">
              <mxPoint x="-122" y="1033" />
              <mxPoint x="-122" y="385" />
              <mxPoint x="80" y="382" />
            </Array>
          </mxGeometry>
        </mxCell>
        <mxCell id="nevUS6qvJ938rSR4ISRd-35" value="&lt;font face=&quot;Nunito&quot; style=&quot;font-size: 30px;&quot; data-font-src=&quot;https://fonts.googleapis.com/css?family=Nunito&quot;&gt;&lt;b&gt;SQL Execution Result&lt;/b&gt;&lt;/font&gt;" style="text;html=1;align=center;verticalAlign=middle;whiteSpace=wrap;rounded=0;" vertex="1" parent="1">
          <mxGeometry x="256" y="50" width="300" height="92" as="geometry" />
        </mxCell>
        <mxCell id="nevUS6qvJ938rSR4ISRd-38" value="" style="endArrow=classic;html=1;rounded=0;strokeWidth=5;exitX=1;exitY=0.5;exitDx=0;exitDy=0;strokeColor=#5E3370;" edge="1" parent="1" source="nevUS6qvJ938rSR4ISRd-15" target="nevUS6qvJ938rSR4ISRd-16">
          <mxGeometry width="50" height="50" relative="1" as="geometry">
            <mxPoint x="953" y="701" as="sourcePoint" />
            <mxPoint x="637" y="701" as="targetPoint" />
          </mxGeometry>
        </mxCell>
        <mxCell id="nevUS6qvJ938rSR4ISRd-40" value="&lt;font style=&quot;font-size: 35px;&quot; data-font-src=&quot;https://fonts.googleapis.com/css?family=Nunito&quot; face=&quot;Nunito&quot;&gt;&lt;b&gt;Feedback&lt;/b&gt;&lt;/font&gt;" style="rounded=1;whiteSpace=wrap;html=1;strokeWidth=5;fillColor=#e1d5e7;strokeColor=#9673a6;" vertex="1" parent="1">
          <mxGeometry x="1055" y="974" width="308" height="109" as="geometry" />
        </mxCell>
        <mxCell id="nevUS6qvJ938rSR4ISRd-41" value="&lt;font style=&quot;font-size: 35px;&quot; data-font-src=&quot;https://fonts.googleapis.com/css?family=Nunito&quot; face=&quot;Nunito&quot;&gt;&lt;b&gt;PROMPT&lt;/b&gt;&lt;/font&gt;" style="rounded=1;whiteSpace=wrap;html=1;strokeWidth=5;fillColor=#e1d5e7;strokeColor=#9673a6;" vertex="1" parent="1">
          <mxGeometry x="627" y="1330" width="303" height="96" as="geometry" />
        </mxCell>
        <mxCell id="nevUS6qvJ938rSR4ISRd-42" value="" style="endArrow=classic;html=1;rounded=0;strokeWidth=5;exitX=0.5;exitY=1;exitDx=0;exitDy=0;entryX=0.5;entryY=0;entryDx=0;entryDy=0;strokeColor=#5E3370;" edge="1" parent="1" source="nevUS6qvJ938rSR4ISRd-17" target="nevUS6qvJ938rSR4ISRd-40">
          <mxGeometry width="50" height="50" relative="1" as="geometry">
            <mxPoint x="940" y="701" as="sourcePoint" />
            <mxPoint x="1122" y="701" as="targetPoint" />
          </mxGeometry>
        </mxCell>
        <mxCell id="nevUS6qvJ938rSR4ISRd-44" value="&lt;font style=&quot;font-size: 30px;&quot; face=&quot;Nunito&quot;&gt;&lt;b&gt;User Question&lt;/b&gt;&lt;/font&gt;&lt;div&gt;&lt;font style=&quot;font-size: 30px;&quot; face=&quot;Nunito&quot;&gt;&lt;b&gt;+&lt;/b&gt;&lt;/font&gt;&lt;/div&gt;&lt;div&gt;&lt;b style=&quot;font-family: Nunito; font-size: 30px;&quot;&gt;Contextual Information&lt;/b&gt;&lt;/div&gt;&lt;div&gt;&lt;font style=&quot;font-size: 30px;&quot; face=&quot;Nunito&quot;&gt;&lt;b&gt;+&lt;/b&gt;&lt;/font&gt;&lt;/div&gt;&lt;div&gt;&lt;br&gt;&lt;/div&gt;&lt;div&gt;&lt;b style=&quot;font-family: Nunito; font-size: 30px;&quot;&gt;SQL Query&lt;/b&gt;&lt;/div&gt;&lt;div&gt;&lt;b style=&quot;font-family: Nunito; font-size: 30px;&quot;&gt;+&lt;/b&gt;&lt;/div&gt;&lt;div&gt;&lt;b style=&quot;font-family: Nunito; font-size: 30px;&quot;&gt;Error Message&lt;/b&gt;&lt;b style=&quot;font-family: Nunito; font-size: 30px;&quot;&gt;&lt;/b&gt;&lt;/div&gt;&lt;div&gt;&lt;b style=&quot;font-family: Nunito; font-size: 30px;&quot;&gt;+&lt;/b&gt;&lt;/div&gt;&lt;div&gt;&lt;b style=&quot;font-family: Nunito; font-size: 30px;&quot;&gt;Feedback&lt;/b&gt;&lt;/div&gt;" style="rounded=1;whiteSpace=wrap;html=1;strokeWidth=5;fillColor=#e1d5e7;strokeColor=#9673a6;" vertex="1" parent="1">
          <mxGeometry x="1031.5" y="1170" width="355" height="416" as="geometry" />
        </mxCell>
        <mxCell id="nevUS6qvJ938rSR4ISRd-45" value="" style="endArrow=classic;html=1;rounded=0;strokeWidth=5;entryX=0.5;entryY=0;entryDx=0;entryDy=0;exitX=0.5;exitY=1;exitDx=0;exitDy=0;strokeColor=#5E3370;" edge="1" parent="1" source="nevUS6qvJ938rSR4ISRd-40" target="nevUS6qvJ938rSR4ISRd-44">
          <mxGeometry width="50" height="50" relative="1" as="geometry">
            <mxPoint x="1219" y="897" as="sourcePoint" />
            <mxPoint x="1219" y="984" as="targetPoint" />
          </mxGeometry>
        </mxCell>
        <mxCell id="nevUS6qvJ938rSR4ISRd-46" value="" style="endArrow=classic;html=1;rounded=0;strokeWidth=5;exitX=0;exitY=0.5;exitDx=0;exitDy=0;entryX=1;entryY=0.5;entryDx=0;entryDy=0;strokeColor=#5E3370;" edge="1" parent="1" source="nevUS6qvJ938rSR4ISRd-44" target="nevUS6qvJ938rSR4ISRd-41">
          <mxGeometry width="50" height="50" relative="1" as="geometry">
            <mxPoint x="940" y="701" as="sourcePoint" />
            <mxPoint x="1122" y="701" as="targetPoint" />
          </mxGeometry>
        </mxCell>
        <mxCell id="nevUS6qvJ938rSR4ISRd-47" value="" style="shape=image;verticalLabelPosition=bottom;labelBackgroundColor=default;verticalAlign=top;aspect=fixed;imageAspect=0;image=https://images.seeklogo.com/logo-png/39/1/google-ai-logo-png_seeklogo-393117.png;" vertex="1" parent="1">
          <mxGeometry x="201.5" y="1277" width="205" height="205" as="geometry" />
        </mxCell>
        <mxCell id="nevUS6qvJ938rSR4ISRd-48" value="&lt;span style=&quot;line-height: 115%;&quot;&gt;&lt;font face=&quot;Nunito&quot; data-font-src=&quot;https://fonts.googleapis.com/css?family=Nunito&quot; style=&quot;line-height: 145%; font-size: 25px;&quot;&gt;&lt;b style=&quot;&quot;&gt;Gemini 2.0 Flash Thinking Experimental&amp;nbsp;&lt;/b&gt;&lt;/font&gt;&lt;/span&gt;" style="text;html=1;align=center;verticalAlign=middle;whiteSpace=wrap;rounded=0;" vertex="1" parent="1">
          <mxGeometry x="159.5" y="1471" width="278" height="105" as="geometry" />
        </mxCell>
        <mxCell id="nevUS6qvJ938rSR4ISRd-50" value="" style="endArrow=classic;html=1;rounded=0;strokeWidth=5;exitX=0;exitY=0.5;exitDx=0;exitDy=0;entryX=1;entryY=0.5;entryDx=0;entryDy=0;strokeColor=#5E3370;" edge="1" parent="1" source="nevUS6qvJ938rSR4ISRd-41" target="nevUS6qvJ938rSR4ISRd-47">
          <mxGeometry width="50" height="50" relative="1" as="geometry">
            <mxPoint x="1042" y="1388" as="sourcePoint" />
            <mxPoint x="940" y="1388" as="targetPoint" />
          </mxGeometry>
        </mxCell>
        <mxCell id="nevUS6qvJ938rSR4ISRd-51" value="" style="endArrow=classic;html=1;rounded=0;strokeWidth=5;exitX=0.5;exitY=0;exitDx=0;exitDy=0;entryX=0.5;entryY=1;entryDx=0;entryDy=0;strokeColor=#5E3370;" edge="1" parent="1" source="nevUS6qvJ938rSR4ISRd-47" target="nevUS6qvJ938rSR4ISRd-18">
          <mxGeometry width="50" height="50" relative="1" as="geometry">
            <mxPoint x="637" y="1388" as="sourcePoint" />
            <mxPoint x="423" y="1388" as="targetPoint" />
          </mxGeometry>
        </mxCell>
        <mxCell id="nevUS6qvJ938rSR4ISRd-52" value="" style="endArrow=classic;html=1;rounded=0;entryX=0;entryY=0.5;entryDx=0;entryDy=0;strokeWidth=5;" edge="1" parent="1" target="nevUS6qvJ938rSR4ISRd-19">
          <mxGeometry width="50" height="50" relative="1" as="geometry">
            <mxPoint x="-780" y="708" as="sourcePoint" />
            <mxPoint x="-833" y="635" as="targetPoint" />
          </mxGeometry>
        </mxCell>
        <mxCell id="nevUS6qvJ938rSR4ISRd-55" value="" style="shape=image;verticalLabelPosition=bottom;labelBackgroundColor=default;verticalAlign=top;aspect=fixed;imageAspect=0;image=data:image/png,iVBORw0KGgoAAAANSUhEUgAAAgAAAAIACAYAAAD0eNT6AAAACXBIWXMAAHYcAAB2HAGnwnjqAAAAGXRFWHRTb2Z0d2FyZQB3d3cuaW5rc2NhcGUub3Jnm+48GgAAIABJREFUeJzt3Xe4ZVV5+PHvzNCrFGkKCiICIsQCYkMsIBhbjEosGIlRNOIvsQWNwUqiWGKLvUaxxd6iUZQmiooKUZAuHaS3aQwz8/vjnfs4jnNn7j3rXXvtc/b38zzrwcJZ511r3733e/ZeBSRJkiRJkiRJkiRJkiRJkiRJkiRJkiRJkiRJkiRJkiRJkiRJkiRJkiRJkiRJkiRJkiRJkiRJkiRJkiRJkiRJkiRJkiRJkiRJkiRJkiRJkiRJkiRJkiRJkiRJkiRJkiRJkiRJkiRJkiRJkiRJkiRJkiRJkiRJkiRJkiRJkiRJkiRJkiRJkiRJkiRJkiRJkiRJkiRJkiRJkiRJkiRJkiRJkiRJkiRJkiRJkiRJkiRJkiRJkiRJkiRJkiRJkiRJkiRJkiRJkiRJkiRJkiRJkiRJkiRJkiRJkiRJkiRJkiRJkiRJkiRJkiRJkiRJkiRJkiRJkiRJkiRJkiRJkiRJkiRJkiRJkiRJkiRJkiRJkiRJkiRJkiRJkqSemtM6gAY2BLYDNlpRNm8bjiSpkVuABSvKNcDCtuF0a9ITgK2AA4ADgb2AewM7tgxIktRblwPnA78FTgJOAW5sGVBNk5gAbAccBjwbeCAwt204kqQxtQw4A/gc8AXgD23DyTVJCcD+wNHAE4F5jWORJE2WpcA3geOAnzWOJcUkJAAPBf6NeMwvSVJtJwL/ApzeOpAS45wAbAm8HjgKH/NLkrq1HDgeeCVwbeNYRjKuCcBTgY8BW7QORJI0aDcCzwe+3jqQ2Rq3X87rA+8Bvow3f0lSe1sCXwM+TUwzHxvj9ATgLsQAjEe0DkSSpNX4GfCXwA2tA5mJcUkAtge+C+zTOhBJktbgHOAQYk2BXhuHBGB74MfALq0DkSRpBi4GHg5c3TqQNen7GIDNgO/gzV+SND52Af6XeHXdW31OANYBvgHcv3UgkiTN0v2IAeu9XZiut4EBbwYObx2EJEkjmnp6fVLLIKbT1zEABwIn0O8ERZKktVlGDAr8QetAVtXHBGAj4Gzgno3jkCQpw+XAHsD81oGsbJ3WAazGMdS/+S8ELlrxz1sqf5emtxuwU2J9Z9PzUbdrsAExajjLrcDPE+uTJtHmxOI9uxLnYC07EnsHvLbid4y93YDFxBrLmWUp8Q7mH4gsrI9PPobm7sB15B3jc4FNOm1Brg+Q+zf/tG7Dl8baHOLe8BLgZOKekX0fWkQkGprGJ8nt8GXE8ox7dNkIrdU6wCnkHeeFwN6dtiDXM8j9u39/t+FLE2cPYqOfZeSemx/rshHjZEfgDvI6+jzgIZ22QDN1LLkn1ZHdhp/qXsDN5PXFr6n7KFMakocCF5B3fi4mnn5qFe8kr5O/DmzabfiaoYPIfbz2hW7DT7U+cAZ5fXEr8RpNUp5NiX1oss7Tt3Ubfv+tA1xDTud+BqcP9tX25B3n5URmvlmnLcj1XvL6YjnwrG7DlwZjHeLeknGeXoX3qD9xCDkd+136ObNBserkD8m72S0CHthpC3I9ldz3ix/tNnxpcNYllvfNOF8P7jj2XvsU5R16ObBVx3Fr5l5H7q/dl3YbfqqdgZvI64vfMGb7kEtjamvgCsrP2Y93HXifXUp5hz6586g1U48E7iTvhvctxncq57rAT8jri9uBPTttgTRsT6X8vL2086h7alfKO/PEzqPWTG0DXEneDe/39HyHrbX4D/L6YjnwvE6jlwSxVkDpubtz51H30PMo78hDuw5aMzIX+B55N7s7gAd32oJcTyL3vf9/dRu+pBUeT/n5+9zOo+6ht1HWiVfiiMq+eg25v3Zf3m34qXYErievL87Hqa5SK3MpHwvw751H3UNfo6wTP9B9yJqBhwFLyLvh+d7/j2UBsde4pHY+RNl5/JXuQ+6f31DWiYd1H7LWYivgMvJueJcx3jM8jiOvL5YDL+w2fEmr8UzKzuOzug+5f0ofo+zVfchagznESoxZN7sl5O6S17VDyX3v/8Vuw5c0jX0o/2EzeKXroG/efchag5eT+2v3Nd2Gnyp7x8NxX/lQmiRbUHY+39R9yP1T+p7Ylf/648Hkbuj0PWKwzTjK3vFwEfCATlsgaU3WoeycXtJ9yP1TemFUP9wFuJi8G941wHadtiDXv5PXF8uJfcol9ctY37/6MKq6tBP60AbFiNanJtW1jFgr+4dJ9XXt0cD3yZue+i1ipcvmF4wkOxPzqHcBNkmuewmRPJ4GnEqsQNmV+xJ/t/cgf2nmhcAlxN/VOcl1r8kcYF/gUcQrrfWS619AvAv/AfDb5Lq74P2r0FhnUAJiXf7MX7uv6zb8VNsCV5PXF5cCW3bagnruTe62qjPpu+d00K4HEclGV+06hW5eBx1E+Syt2ZTTgP06aFem0jYPnh043vYmfp1kXQROYnwXdpoLnEBeX9wBPKTTFtRzEOUDfkctH6Xe39ThwOIGbVoEPLtSmyAG32bOXplpWQwcUbFd2UrbO3h24PjaBDiXvJP/D8AOnbYg1xvJvRi+rNvwq9mH2LSo65vJyuXtFdr1OHI3uZptWUIkVtle2LBNy4GlwF9WaFcNpW0dPDtwfB1P7kk/zntkH0juzeA7TMb7wTnAGbS9oSwnfs1mPk3ZgNzFrkYtVwAbJbZre2B+D9r1B8ZjqevSdg6eHTiejiT3hD+22/BTbQNcRV5fXE7sOz4JDqH9zWSqfC2xXS/qQXumSubKkKV7s2SWlya2q5bSNg6eHTh+9iJG72ad6Kcwvus5zCVGZmf1xRJiH4VJUbpeemZZQN7o/MxdLkvL/yS1CWKTqdbtmSrjMAuotI2DZweOl42JaUhZJ/kNxLSpcXUMuRe9o7sNv7rMxZAyyp5J7erD4/+pcklSm9ajzcC/6co1Se2qqbSNg2cHjpf/Iu8EXwY8qdvwUx1A7nv/7zK+Kx9O5yza30hWLllPV27pQVumys1Jbdq6B21ZuSxKaldNpW0cPDtwfBxB7gn+tm7DT3VXyjeyWrmM+8qH08mcFplR7pXUrgt70Japcl5Sm+aSu4V3abk0qV01lbaxqUn7taF6dgPek1jfz4F/TayvS3OAjwN3S6pvGTGnexweec7WL1oHsJIbyLup9KldWbEsA36VVFeGPvWxKhnrDGogNgDOJC+zv4lYDnZcvYbcXzrHdBt+p+5Pf94rfyixXX/Vg/ZMlczXaNm7eZaUZyS2q5bSNg6eHdh/HyPvpF5GXDzH1f7k7nh4IuO78uFMfZn2N5P5wI6JbZpD/EJt3a7TyV0vYiNyX22NWn7FeDyhLm3n4NmB/XYYuSf2u7sNP9UWxIjrrL4Y95UPZ2pL4CLa3lBqLJu7M3B9wzbdCOxaoV0PJQbgtWrXrcTGSuOgtK2DZwf2167kjnY+A1i/0xbkmQN8nby+WEqdZVz76p7Ebm9d30wWUXdt+b2JcQVdt+tK4IEV23UwbfZuuJzYXGlclLZ38OzAflqfeAyXdWLfSgwkHFevIvdC9+Zuw++FDYFX080j5kXAl4D7dNCuuwDH0c3TgOuBtwKbd9CuHYCPALd10K4biFlBW3TQrkxjff/qw1rjpZ3QhzZMog8AL06s79nA5xLr69J+xHavWXuhnwo8mm73qu+TucQv513J3+p4IfHr+BfEjatL6xC/yncGNkuu+1bgYiIp7/rvZgOiXbuQt5LilFuIJyhnMJ7ng/evQmOdQU2op5Gb3X+g2/BT3YW48Gb+0tmp0xZIqsX7VyE7sF92Iffd3/+R/6uhK3OAr5LXF+O+8qGkP+X9q5Ad2B/rAj8l74Z3G7B7py3I9U/k9cVy4j2xpMnh/auQHdgf7yb3hnd4t+GnehCwmLy++Bl5Ywgk9YP3r0J2YD88gdwV2z7Wbfip7kLuvPUbiWlwkiaL969CdmB7O5I7hem3xIpi4+pz5PXFMuAp3YYvqSPevwrZgW2tA/yYvBveQmKK17g6iry+WA68q9vwJXXI+1chO7Ctt5F7w6u56lptewMLyOuLX+B7f2mSef8qZAe2cyi57/0/3234qTYBziWvL24mplRKmlzevwrZgW3cDbiOvBve+cCmnbYg1/Hk9cVy4Jndhi+pAe9fhezA7s0DfkjezW4hse/7uHoRuTf/93cbvqRGvH8VsgO7dyy5N7wjuw0/1V7kvvcf55UPJc2O969CdmC3HkVsupF1w/vvbsNPtTFwDnl9Me4rH0qaHe9fhezA7mwLXEXeDe9CutmWtJZPk9cXy4HndBu+pMa8fxWyA7sxF/gBeTe7RcADOm1BrueTe/P/SLfhS+oB71+F7MBuvJ7cG95R3Yaf6r7AfPL6YtxXPpQ0Gu9fhezA+h5J7nv/bxFb5Y6jjYGzyeuL24E9O22BpL4Y6/tXHy7ipZ1wU0oUk21jclekux1Yklhfl9YlFv3JsoToD0nDs0Xh55vegychAZAkaRw1vQfPbfnlkiSpDRMASZIGyARAkqQBMgGQJGmATAAkSRogEwBJkgbIBECSpAEyAZAkaYBMACRJGiATAEmSBsgEQJKkATIBkCRpgEwAJEkaIBMASZIGyARAkqQBMgGQJGmATAAkSRogEwBJkgbIBECSpAEyAZAkaYBMACRJGiATAEmSBsgEQJKkATIBkCRpgEwAJEkaIBMASZIGyARAkqQBMgGQJGmATAAkSRogEwBJkgbIBECSpAEyAZAkaYBMACRJGiATAEmSBsgEQJKkATIBkCRpgEwAJEkaIBMASZIGyARAkqQBMgGQJGmATAAkSRogEwBJkgbIBECSpAEyAZAkaYBMACRJGiATAEmSBsgEQJKkATIBkCRpgEwAJEkaIBMASZIGyARAkqQBMgGQJGmATAAkSRogEwBJkgbIBECSpAEyAZAkaYBMACRJGiATAEmSBsgEQJKkATIBkCRpgEwAJEkaIBMASZIGyARAkqQBMgGQJGmATAAkSRogEwBJkgbIBECSpAEyAZAkaYBMACRJGiATAEmSBsgEQJKkATIBkCRpgEwAJEkaIBMASZIGyARAkqQBMgGQJGmATAAkSRogEwBJkgZondYBqHO3Ab8BbgG2APYENmsa0ewsAS4BLgeWrfS/bwrcC9i6QUwaD0uAa4CbgG2A7dqG09ytwDlEf2wO7A1s0jQidcoEYDh+BrwZ+AFwx0r/+3rA44DXAw9sENfaXAh8G/gRcC5x81+yhn9/c2AXYD+iXY8lkoOhuA04jUjyzgfOA64kLvbzgYXABsSFfjNgB+A+wG7AXsAjmLz+Ogs4DvgO0Q9T7gEcBryKYSWOZwBvBL7Pn18LDgaOIc4fqbrllqplKfA6YM5ajsNcIglY1oOYLwdeQ9yUSq0LHAh8Bljcg7bVKGcD/wo8hPKkfh3gwcC/EElE67aVlKXE39HaXnVuDnyzB/HWLsuIm/tMrwVLexDzpJfBa30AJrncCTx35ocCgKMbxvsr4DnETbuGHYB/B25o2MaschvwXuo/tbk/8C7ilVHrNs+2vHAW7ZwLfKUHMdcsR8+iPyCuHXf2IO5JLoPX+gBMalkMPG0Wx2HKHOI1QZexXktcbNb2yyTLlsBH6MfTjtmWG4A3rGhDl7Ygfj1eN2LcXZdPj9DGjYFLexB7jfI9Rju/nsbkPjnrQxm81gdgEssC4PGzOQireHBHcS4DPglsVRBriYcxPo+5lwDvJh5Xt7Qp8A7i3XHrPpmu3AHcfcT2Pa8H8dco+47YHxDXkgU9aMMklsFrfQAmrdwGPGpWR2D1Lqoc53xGe0KRbQPi12Lr47am8lNgn1odMKK9gFNp3zerK98vaNcmTN7N7sKC/pjyKOLa0rotk1YGr/UBmKRyE7D/7Lp/WsdXjPNK+jfj4Gj6N+hpKTFmoa+zdeYRo8n79p74dYXt+kkP2pBZRnkdsjr7E9eY1u2ZpNKUCwFNjuuARwOnJ9V3bVI9qzqbmGL0y0r1j+o44OnEzawPbgAOJUbj9yWmVS0lRosfTPz99cUVjT/fN9cn1XM6cY3p07FWAROAyXANcWL+OrHOGosDXUm8T7yyQt0Zvkq8A162ln+vtquIR64lj7K79CPi1+EFrQNZ4Y61/ytrtDgliv7IXNzn18ABTF6SNEgmAOPvEuDhwG+T690jub6biIV5LkuuN9tnmf10qUxTT0h+0zCGUVxM3BjObB2I/kz2uXwusbbGJcn1aoBav4MZ53Iuo492XpPtyH0ffidxwRgnH6b743kBsG0Xjatoa+B3tD0vnlPYhs80jj+73Emdv6u7E9eg1u0b59KUTwDG1znEY/8aj+JeTe7fxjuAkxLr68LL6faR9lXEu/Q/dPidNVwPHETMp1c/zCOWO852BfHU56wKdWsgWmdg41h+Tr2FYB5G7sIfZxNT7cbRw+hmhPsC4C86alNX7kdM9WxxfvgE4M/LYmKp6Bq2JK5Jrds4jmXwWh+AcSsnU2/3vj2J0f9Zsd5J2QIkffAu6h/TF3TWmm79LW3OEROA1ZdriXO8hs2Ia1PrNo5bGbzWB2CcyveAjUbr5rW6P7k3/+XA5yvF2qVtgNupd0yP764pTXyC7s8TE4Dpy7XEuV7DRsQ1qnUbx6kMXusDMC7la8D6I/bx2uwP3Jgc7zJif/FadiXePz6BeFS/U8Xveht1juk1xBr7tW1KLLz0WOCpK/75ILpZVngzYtpnl+eKCcCay43kLRi2qvWJa1XrNo5LGbzWB2AcymeptxrcgcQe6dkxf7NCrPsCHwOunuY7LybWy981+XtrPQUovVFNZy5xk/8wax+lfRHRp48nBovVcNhaYuhbv056ArCcOOcPLOyn6axDXLNat3EcyuC1PgB9Lx+h3myNQ6m37nnGfgRTdmJ2W7UuBT5I7liJ7P0CTiJ/98P1gZcAvx8xpiuAl1HnNdMJI8Y0SjEBmFlZQFwDaphLXLtat7HvZfBaH4A+l3dRb4vcp1Jvm88/kPdr8mBiatkocVwM3CcpjieOGMN05YCkuKY8Fjg/KbZLiFcrmR6SFNtMignAzMti4lpQwxy6GUQ7zmXwWh+AvpZjSzp1LZ5NbC9bK/aPJMV5COVJStbI5/WBmwtjmSonJ8QzZR4xRmFZUmwrl/cC6ybG+v0KMa6umADMriwhrgm1HNuDNva1DF7rA9DHUnMp2hdQf9e7QxLi3I289+7nkTPgLevG8LiEWCCSki8lxTRdOYEYRJjhwMqxThUTgNmXpdSdjnp0D9rYxzJ4rQ9An8oy4Kiy7lyjf6LOL8WVy1Jg48I45xA7j2XG9b7CmAD+OSGOS8gZ0zGP2Y2LKCknkjMDZQ55rynWVEwARivLiGtELUdR//ozbmXwWh+AvpQ7gSMK+3JNXttROy5MiPUpFeK6g/LZAX+XEMebC2OY8v6EWGZTPpUU9792EKsJQFl5bWH/rckRdLO65riUwWt9APpQ7iCmStXylg7b8vWEeE+qFNu/Fcb1ioQY7l0YA8BfJ8QxSjk8IfZ7UP9XoAlAeXlLYR+uyWHENa91G/tQBq/1AWhdFhIjzGuYQwzk6rI9pTfZbak3RuFiymZVfK7w+88v+O4pm9L9wjpT5QZit79Sv6kcpwlATnkv9WYhPZG49rVuY+vSlLsBtjWfmG71rQp1zwM+Cry0Qt1rcn3h5x9Cvb/LnYFHjvjZjSkfvPfDws9D7NS4Q0I9o9iSnMfDGf2g+l5KXENqLBD1LeLaN79C3ZohE4B2biFuKDUuhusSv2KeX6HutVlY+PndU6KY3mtG/Nw/UL4DY+mx3oxY6KelF1L+FMAEYHw8n7iWZE4HnfJD4hp4S4W6NQMmAG1cDzwGOK1C3VNTw55Zoe6ZKE0AsqacTedg4MWz/Mw+wBsTvvuMws8fRjfr96/JRpT/bf0iIxB15pnENaXGXiSnEdfC0ieHGoEJQPeuJuZD/7JC3RsRa/A/uULdM7W48PNdvBd7HzN/OvIAYgGbDQu/cz5wWWEdNQeKzsbfFH7+GuCmjEDUmScT15Yay0T/krgmXl2hbq2BCUC3LiXeQZ9doe5Nge8Sv3Bb2qrw86U3yZmYR2yA899Mv0rgVsSUvZ8QmwGVOo8Y/T6q9YldD/tgP8r3WTg3IxB16mDiGlPjKd3ZxLXx0gp1axq1dpjTn7uAWK+9xg1uC2If7v0q1D1bdyv8/FkpUczM04GnAWcSjyJvJX7h3Je4GK2X+F0XFX7+L4ANMgJJsA7xZOSkgjouIgZ8arwcQKwOeQj5T3EuWKn+jOmyWgsTgG78FjiIePSZbRviEfU+FeoeRWkCcAaxX3npgLuZmgPcf0WpqXSgU9amRlnuQ1kCcHNSHOrefsTqkAcTe21kuoxIAn4A7JVct1bhK4D6fklsjVvj5n83YmOZvtz8Ae5Z+Pml5K061yelCcD2KVHk2bbw8yYA420f4tpTmvCvzjXENbPGOCmtxASgrpojXHcGTqH+tLnZehDlj87fQ+xVPkluK/x8jcFXJUrfA9+aEoVa2p24Bu1coe6aM6W0gglAPSdQb47rfYgTb5cKdZfaCNi3sI7LgDclxNIndxZ+vsZiLCVK4yntD/XDLsS1qMYrqqm1Uk6oULcwAajlO8CTqLPK1Z7Aj4C7V6g7y6ir7a3s7cA3EuqRVNfdiSSgxqvI+cBfAl+rUPfgmQDk+zbwV5QviLM6+wKn0m4p2Jk6NKGOZcCzqbNMsqRc2xA/TEqf/q3O1GZp/1Oh7kEzAch1BvAMYEmFuh9BPArranR8iYcz/fz62ZhPbA38RuIiIKm/tiSuUY+oUPcSYtrumRXqHiwTgDy3ETf/Gr/8DyLm+ZcuvtKlI5PqWQa8gXjH+Ckmb3CgNEk2I65VB1WoewGRBLiBUBITgDyvB35fod4nEY/B+zYKfG0OJzfmS4AjiI1onkAkBR8mlic9lVhr4Sp8UiC1thFxzXpShbovBI6tUO8guRBQjsuA91eo9zDq7cRV2xbEdqLHJde7kBhk+Z1p/v/1iEV99ltRHkP/5tBLk2594MvED4EvJtf9buD/4XldzCcAOd5D/i/PI4DPMp43/ymvpfuT9A7gZ8SGP4cDOxKDEj+Ljw6lLq1LnHdHJNe7iDi/VcgEoNydwPHJdR4FfJz+zf2erU2BtzSOYSnxTvI5xOyJN1K+KI+kmZlHXMuOSq73eMo21xImABl+Tu562EcT2e2cxDpbOpycdQEy3EqMHbgXdZ7aSPpzc4hr2tGJdV5OtxuHTSQTgHI/TqzrTcBbE+vrg7nAF+jX2gXXAf8E7E9s0yupvreSu8LnKYl1DZIJQLlzEuqYA7wTOCahrj7aDvgKMTCoT35NDBh8b+tApIE4BvhPcp5w/i6hjkEzASh3deHn5wIfBF6eEEuf7U/MlOjbq42FwD8S6xb4TlGq7yXENa/0/nNlQiyDZgJQrnRk+XHkLZrTd8+nv4MbPwI8FzepkbpwJOVThG/PCGTITADKlT7W/k9icYuhOIIYwdvHNSg+S6y9UGMpZ0l/dCFx7SvRt1eKY8cEoNzWhZ+/FDiAnLEE4+JvgO8SYwP65qvAK1oHIU2wc4hr3qWF9WyVEMugmQCU2y2hjquBA4lBaUPxWOD/iK0+++Z95K/tICmucQdSPnYKcq69g2YCUO7BSfVcBzwa+GlSfePgrsSa4R9c8Z/75EjceUzK9FPiGnddUn1Z197BMgEo90hgg6S6bgYOBk5Mqm8czAFeBFxELNKzadNo/mgBMWhxEmcGnEOsz/5p4GRgcdtwNAAnEte2m5Pq25A62w4PiglAuU3J3fXqduKx+HcT6xwHmxI7Kl4EvA3Yq204APyKmLUwKU4GHgDclxiH8bfE49it+GMSJmX7LnFNyxy1/0Rg48T6BskEIMc/Jte3EHgKMSBtaO4KvAr4DXEDfiWxhkCrEb+vJe9XS0vHAo9i9eNM5hNbK9+XWKjFWRDK8lXiWrYwud6XJtc3SH2cijWOHkrsOJf5q/0OYkraJ4mNbIbo/isKRH+cSQwcvBa4EbhhRbkGuIKcgUWrug54O/BvFeruypuB183g31tMJAo/BD4P3KNmUJp4xxPTfrPX1jgYeHhynWpk+YSUC4CNkvsG4inNh3vQvnEovyNeH+w8Uk9Pbxvi5lgS22sLYzh2xO89jdEWXtqSSGinq/c/Rm8KAC+bQeyjltKE+TMVYxtK+TB1njCvT5znrduXVZryFUCeXSlf2GJ1lhHvZ99Voe5Jszvx+uBcYtnhuyTVey3wtaS6uvYGYkvk2boReALwodRoNATvIq5ZNQbQvpM4z5XABCDXEeRueTllObFXwLEV6p5E6wH/QGzVfN+kOj+cVE+XrgVOKPj8UuDFRBIhzcSxxLWqxq/bI4l9BJTEBCDfW4itZms4BnhNpbon0b2JR+AZvxhOJsYbjJOfk3MhfiPxi26UJwkajtdQb0fTw4mnekpkApBvDvEI7K2V6n8r8atsEuen17A58I0V/yyxjPHbf/ymxLo+DDwNWJRYpybDcmJMR61r3pHAp+jnJmJjzQSgnqOJpwE1fAh4Af4im6ndmNko+LU5MaGOLm2YXN/XgccB11P+ZKFv20JrNEuBvwfeXan+V5CzdbBWw06t69XAe6lzsfsEMdrZOdsz82Jgh8I6Ti74bOkMkQUjfKbGYkqnEOsynFFYT40ZM+rWEuIa9IlK9b8eeAcmi9WYANT3UuCj1Hl89QXg6biU60xsSAzSLHFBwWdLVy0b5XH+7sCehd+7OhcR6wSU2CQjEDWzmLj2fKFC3XOItTfeUKFurcQEoBvPJ+YW11h46RvEUsSj/ELs2vXAj4FfAFc1+P7HF35+IaMPBCzduvTCET/3qsLvraUvez5o9hYQ15xvVKh7LjHY75UV6lYPtV6IocvydeotaXsAcEsP2rhqWUKc0PusJubdia13F3UUy53AurPp1NU4a8TvLnl9ALAtMRBxtt+7DDik8Ltr+Ab1jrMLAdUrtxDXmhrmAf/VgzZ2WQav9QEiu4tfAAAOgElEQVTounyPeu8/9yN+obZu41S5FPiLGcS9D3B+RzHdbQbxrMn/jvi9lxV+L8DZI3737fRv57RzqHeMTQDqlBuIa0wN6wFf6kEbuy5N+Qqge48jllit8Qj058SGL9dWqHu2ribW6z5zBv/uWcQ+4ZdWjSiUPoofdUDSjsTyuiVGXY1wY+AHwLMLvz/LPOBerYPQrFxLXFt+XqHuDYm/7adVqFs91zoDa1V+BmyR0H+rszuxOU7L9j1uhLgfxWiPuWdTSp8AnFrw3Y8u/O77UNY/y4B/KYwhw/2oe4x9ApBbrqDe8rubAD/qQRtblaZ8AtDOfsS88m0q1H0u8cj39xXqnomTiUfls3XiiJ+bqTuBPxTWsUHBZ0sfw58HfKvg83OIXQ0/STxybeXAht+t2fk98Xd7boW67wJ8n0j81YAJQFv7EDfL0l+lq/N7YrDOeRXqXptPF3z2k2lR/LnTKd+atOTVzWMLvxtiQaPSNjyPeA2VtVnSbHnBHw/nEdeQGj8k7kr88n9Ihbo1Rlo/gulDuYj8LWynbMvoI9dHLSWPCzciBq3ViKt0H4X1gDsKvv8OyscgQCw1ndEf51Dv72466xE7Ddb8+yt9BfDpyvGNQzmLuHbUsAN1B4GOUxm81gegL+Vy4h1vDVvyx41huihbF8b78QoxLaB8JcCMd9cvKIwB4jXErxNiWU6szdDlDIGnJMW9pvLCwhizEqxxLT+nfMDqdO5JrGnRuo19KYPX+gD0qVwD7F3WndPajFjGtYt27FgY667ESmOZMb29MCaAZybEcWJCHAC7EDMtMvpmAbGqWxe+nBTzmsorCmM8soMY+1pOIa4VNdyHmA7buo19KoPX+gD0rdwA7FvUo9PbiBh0U7sNByfEekxiPL8j56KW8ctwGXnL8+5DJI0ZfbSM2Luiti6S0NJkbwdinEWL879l+T711ijZm7y/1Ukqg9f6APSx3EK9x7LrU3cVtuXAexLiXAf4TkIsN5M3henihHiWE7ubZdmVSHCyjt3HKF8tcU02Ar6SGO/qyjcT4vxE5Rj7Vr5BvVVK96VfC5T1qQxe6wPQ13I7cFBBv67JusRmLrViv4KcGSabAF8tiGOmKxHOxP0L4li1LATunhQXRD99nLw1FH5A3d365hK/0mv9/Y26b8LKtmU4j6s/T72k7xH0c4nyvpTBa30A+lwWEZtu1DCPOoPtpsrDk+KcQ7zTne3MgK+SO4r5jbP8/rWVDyTGNuXhxGZLJXGdQc4rnJk4ktgrosbfX0aCdT9icG7r60DN8nHq7FQK8Xc0vwdt7HMZvNYHoO/lDuCwkXt3zeYQm/HUiPvDybHeFTiO2EVwuu+cTywp+tDk716P/BvBEuIGU8PDiAv7TKfb3Qp8ilipsOu91w+mzi/E5ybFty0xLXBphRhbl/dR73g/me42+Rrn0lTXJ/vqNO+EMbCUmD72yUr1vxU4OrnOxcC9iRtntr2ABxDTDTchkoJLgNOIx+vZXgB8pEK9pxCr4tU6B+YRr0AeSByLrYl9AW4lkoOLiClfv6F8caESewHfBu6RWOe3gScm1ncP4mnc7kQyWsNcIuHYFdiu0ndMOY56gz6fRezqV2P780nTh3twU60zsHEpy4CXjNjHM5E56n6q1HjM3bV51J23fFR3Tem17chdq2IJ9RayqW0usD+xfXiNv7ljKsb+90zm05JaZfBaH4BxK/88WjfPyMvI3YxnMbBTxXi7cAR1j+cCYI/OWtNvG5E7Q+X13YZfxTPIe4++jDjHa/lH6m/mNWll8FofgHEsbxqpp2fmTcmxfpvxfcy1Pd1MX8pap2ASrAecQE6/3kCdbbe7dgg56xK8vmKMr02Ib4hl8FofgHEt76TOjXUO5SPJVy2lS7O2UusR7OrKt6g3GnvcbE+MU8jo1zd3HHstx1HWDydSLxF/S2FsQy6D1/oAjHP5EHV2dDwgOc7bgHtViLOm59D98fwY4/u0JFvpDW+qLKLeHhtdugtlSdH+FWKqOYtoKGXwWh+AcS+fJv+X4xzyp72dCWyeHGctDyXezbc4nu/GJABimeOsPv0JdVc37MoXGa39GQsjrWoew1stsUYZvNYHYBLKl4l3p5lqLNd6MrBhcpzZ9iB2yGt5PGsuzjIu5hFTOrP69G3dhl/Fyxit7Z9NjmNd4AsjxmL50zJ4rQ/ApJTvkHtz/UClOL9Of+cH70SsJ9D6WC4H/od47DsO5hCLVWUnd2ta9Gm2ZRnwd8nxdW3U3SjfmRjDBsReC63Pj0kpg9f6AExS+RGxME6G4yvG+X1gi6Q4s+xL7g0no5xHvdUCs2wKfImI93Ry595nrxC4BPirxPi69iJGa3fWqpwbE/tEtD4vJqkMXusDMGnlNHJ+Of66cpzn0Z/BWU+n3Tv/tZVFwMupM9iz1KP48x0Sf0/Odsc7Uac/lxBrO4yjdzNam09N+O7NyZ8dZFHzAzCJ5ZfEsq+j2oluFvS4CXh2QZylNiEuquOweMnpwIPqdMOs3ZX4VTldv91IzCQpcdQ0dWeUZcTUtb6+ilqdOYy+IuUSyq4HWxGbRLU+ByaxDF7rAzCp5bfEfOpRvL/jWH8I7DZirKN6EuO33etSYtOeVlMqNyH2jLh5mvhWLguJJyujWJ/Yp6B2f55KrLs/Dg6jrK1vGfF7tyP2imj9tz+pZfBaH4BJLucz+6V4H03OqmOzLYuAdwA7zjLe2XoEsTph62NTUpYQ0z/3S+6b6exArCI329kRS4FXMvtpje+Y5feUlIXEVs9ZY2dq2A64gvLza99Zfu9OxDWk9d/7JJfBa30AJr1cAuw9w2PxMNpPgVtCTDF68Axjnon1iF+jpzduW43yS+AV5O+5sBnwN8Ta/EsKY/wKMx+X8s+F3zVquQ74V8oeldewHXmP368k1leYib3pz4yYSS6D1/oADKHMJwaSTTdNaxPgDfRv/+6LgQ8Se4vP9hfa9sS0ry+Tt6xsn8sy4P+IMQ1/TbwmmM0v762BxwCvI9biz/5buIqYxjZdTPckjlXrflxMTFV9FvW35F2TqamVpb/8Vy23EdeC6dYN2YBYbyBrAyLLmktTfVhxrHknDMj1wP8CvyIuBFsC9wceT/83TVlCvLO/mBhpfhl/uof9usAuxMyC3ejfL7kWbgcuJVZ1vHHFf19EXOTnAtsQN7l7rvjPXbgI+AyxAdI6xCufA4GD6OfiR78DziFmrVxNJJMLK37fVsTf8JOIv+darifm859FPP3YGngAcS3o6m9Bje/BJgCSJLXR9B7cx7nFkiSpMhMASZIGyARAkqQBMgGQJGmATAAkSRogEwBJkgbIBECSpAEyAZAkaYBMACRJGiATAEmSBsgEQJKkATIBkCRpgEwAJEkaIBMASZIGyARAkqQBMgGQJGmATAAkSRogEwBJkgbIBECSpAEyAZAkaYBMACRJGiATAEmSBsgEQJKkATIBkCRpgEwAJEkaIBMASZIGyARAkqQBMgGQJGmATAAkSRogEwBJkgbIBECSpAEyAZAkaYBMACRJGiATAEmSBsgEQJKkATIBkCRpgEwAJEkaIBMASZIGyARAkqQBMgGQJGmATAAkSRogEwBJkgbIBECSpAEyAZAkaYBMACRJGiATAEmSBsgEQJKkAepDArC0dQCSJHWs+b2vDwnA/NYBSJLUsdtaB9CHBKB5J0iS1LFbWwfQhwTg5tYBSJLUsVtaB9CHBODi1gFIktSxi1oH0IcE4NzWAUiS1LHm9z4TAEmSunde6wD6kAD8tHUAkiR17LTWAcxpHcAKVwB3ax2EJEkduBK4e+sg+vAEAODE1gFIktSRE1oHAP1JAL7SOgBJkjry5dYBQH9eAawLXAVs3ToQSZIquo545b2kdSB9eQKwBPh86yAkSarsc/Tg5g/9eQIAsAsxLWKd1oFIklTBUmB34MLWgUB/ngBArAj4xdZBSJJUyfH05OYP/XoCALAncBY+BZAkTZYlwP3owQJAU+a1DmAV1wFbAvu3DkSSpET/AXyhdRAr69sTAIBNgd/hwkCSpMlwBbAHcHvrQFbWpzEAU24DXgwsbx2IJEmFlgNH0rObP/TvFcCU84HNgIe0DkSSpAJvAz7YOojV6eMrgCnrAicBD20chyRJozgVeAw9mfe/qj4nAABbER24R+tAJEmahXOARwA3tg5kOn1PAAB2IrZNbL5zkiRJM3AF8fT68taBrEkfBwGu6jLgAGJcgCRJfXYx8Gh6fvOH8UgAAH5PJAG/bB2IJEnTOIMYvH5B60BmYlwSAIA/EO9TPtI6EEmSVvEZ4EDg2sZxzNg4jAFYnecB/wls3DgOSdKw3Q68BPh060Bmq6/rAKzNmcCngG2AfdqGIkkaqG8DTwBOaR3IKMbpFcCqrgKeCxyKYwMkSd05A3gc8ETg0saxjGxcXwGszqHAq4nBgpIkZVpO/NJ/K/C9xrGkmKQEYMq9gecAzwJ2bRyLJGm8XQB8DjgeuLBxLKkmMQFY2c7EfMxHAvcF7oMDByVJqzcfOA84m1iK/kfAJQ3jqWrSE4DVuRuwLbAJsfXwRm3DkSQ1soDYgfZ2Yqr5lW3DkSRJkiRJkiRJkiRJkiRJkiRJkiRJkiRJkiRJkiRJkiRJkiRJkiRJkiRJkiRJkiRJkiRJkiRJkiRJkiRJkiRJkiRJkiRJkiRJkiRJkiRJkiRJkiRJkiRJkiRJkiRJkiRJkiRJkiRJkiRJkiRJkiRJkiRJkiRJkiRJkiRJkiRJkiRJkiRJkiRJkiRJkiRJkiRJkiRJkiRJkiRJkiRJkiRJkiRJkiRJkiRJkiRJkiRJkiRJkiRJkiRJkiRJkiRJkiRJkiRJkiRJkiRJkiRJkiRJkiRJkiRJkiRJkiRJkiRJkiRJkiRJkiRJkiRJkiRJkiRJkiRJkiRJkiRJkiRJkiRJkiRJkiRJkiRJkiRJkiRJkiRJkiRJkgTA/wfLqOUhihPg3wAAAABJRU5ErkJggg==;" vertex="1" parent="1">
          <mxGeometry x="-362" y="50" width="219" height="219" as="geometry" />
        </mxCell>
      </root>
    </mxGraphModel>
  </diagram>
</mxfile>
